<svg width="408" height="370" viewBox="0 0 408 370" fill="none" xmlns="http://www.w3.org/2000/svg">
<path d="M0.498047 368.67H405.798" stroke="#263238" stroke-width="0.552459" stroke-linecap="round" stroke-linejoin="round"/>
<path d="M344.51 11.7705H347.645C361.503 11.7705 374.794 17.2756 384.593 27.0748C394.392 36.874 399.897 50.1646 399.897 64.0228V259.109H292.258V64.0228C292.258 50.1646 297.763 36.874 307.562 27.0748C317.361 17.2756 330.652 11.7705 344.51 11.7705Z" stroke="#263238" stroke-width="0.552459" stroke-linecap="round" stroke-linejoin="round"/>
<path d="M304.41 258.527V67.3509C304.41 56.3024 308.799 45.7064 316.612 37.8939C324.424 30.0814 335.02 25.6924 346.069 25.6924C351.539 25.6924 356.956 26.77 362.009 28.8636C367.063 30.9573 371.655 34.0259 375.523 37.8944C379.39 41.7629 382.458 46.3553 384.551 51.4095C386.643 56.4637 387.72 61.8806 387.719 67.3509V258.527" stroke="#263238" stroke-width="0.552459" stroke-linecap="round" stroke-linejoin="round"/>
<path d="M346.072 11.7705V258.814" stroke="#263238" stroke-width="0.552459" stroke-linecap="round" stroke-linejoin="round"/>
<path d="M292.84 59.3623H399.148" stroke="#263238" stroke-width="0.552459" stroke-linecap="round" stroke-linejoin="round"/>
<path d="M292.84 92.9131H399.148" stroke="#263238" stroke-width="0.552459" stroke-linecap="round" stroke-linejoin="round"/>
<path d="M292.84 126.473H399.148" stroke="#263238" stroke-width="0.552459" stroke-linecap="round" stroke-linejoin="round"/>
<path d="M292.84 160.032H399.148" stroke="#263238" stroke-width="0.552459" stroke-linecap="round" stroke-linejoin="round"/>
<path d="M292.84 193.583H399.148" stroke="#263238" stroke-width="0.552459" stroke-linecap="round" stroke-linejoin="round"/>
<path d="M292.84 227.143H399.148" stroke="#263238" stroke-width="0.552459" stroke-linecap="round" stroke-linejoin="round"/>
<path d="M307.059 28.5664L316.7 37.3482" stroke="#263238" stroke-width="0.552459" stroke-linecap="round" stroke-linejoin="round"/>
<path d="M384.678 28.5664L375.037 37.3482" stroke="#263238" stroke-width="0.552459" stroke-linecap="round" stroke-linejoin="round"/>
<path d="M268.846 194.821H289.645" stroke="#263238" stroke-width="0.552459" stroke-linecap="round" stroke-linejoin="round"/>
<path d="M269.268 207.253H280.224V272.712H335.848V358.953H268.779" stroke="#263238" stroke-width="0.552459" stroke-linecap="round" stroke-linejoin="round"/>
<path d="M406.987 272.711H349.357V358.952H402.427" stroke="#263238" stroke-width="0.552459" stroke-linecap="round" stroke-linejoin="round"/>
<path d="M268.78 1.21777H122.625V368.669H268.78V1.21777Z" stroke="#263238" stroke-width="0.552459" stroke-miterlimit="10"/>
<path d="M266.389 185.051C267.643 181.863 266.075 178.263 262.887 177.009C259.699 175.755 256.098 177.323 254.845 180.511C253.591 183.699 255.159 187.3 258.347 188.554C261.535 189.807 265.136 188.239 266.389 185.051Z" stroke="#263238" stroke-width="0.552459" stroke-miterlimit="10"/>
<path d="M263.101 182.81C263.101 182.319 262.955 181.838 262.682 181.429C262.409 181.02 262.021 180.702 261.567 180.513C261.112 180.325 260.612 180.276 260.13 180.372C259.648 180.468 259.205 180.705 258.857 181.052C258.509 181.4 258.273 181.843 258.177 182.325C258.081 182.808 258.13 183.308 258.318 183.762C258.506 184.216 258.825 184.604 259.234 184.878C259.643 185.151 260.123 185.297 260.615 185.297C260.942 185.298 261.266 185.234 261.568 185.11C261.87 184.985 262.145 184.802 262.376 184.571C262.607 184.34 262.79 184.065 262.914 183.763C263.039 183.461 263.102 183.137 263.101 182.81Z" stroke="#263238" stroke-width="0.552459" stroke-miterlimit="10"/>
<path d="M190.047 17.7109H136.109V78.7534H190.047V17.7109Z" stroke="#263238" stroke-width="0.552459" stroke-miterlimit="10"/>
<path d="M183.819 24.7656H142.338V71.7084H183.819V24.7656Z" stroke="#263238" stroke-width="0.552459" stroke-miterlimit="10"/>
<path d="M136.109 17.7109L142.338 24.765" stroke="#263238" stroke-width="0.552459" stroke-miterlimit="10"/>
<path d="M142.338 71.707L136.109 78.7527" stroke="#263238" stroke-width="0.552459" stroke-miterlimit="10"/>
<path d="M183.818 71.707L190.046 78.7527" stroke="#263238" stroke-width="0.552459" stroke-miterlimit="10"/>
<path d="M190.046 17.7109L183.818 24.765" stroke="#263238" stroke-width="0.552459" stroke-miterlimit="10"/>
<path d="M190.047 84.29H136.109V145.332H190.047V84.29Z" stroke="#263238" stroke-width="0.552459" stroke-miterlimit="10"/>
<path d="M183.819 91.3447H142.338V138.287H183.819V91.3447Z" stroke="#263238" stroke-width="0.552459" stroke-miterlimit="10"/>
<path d="M136.109 84.29L142.338 91.3441" stroke="#263238" stroke-width="0.552459" stroke-miterlimit="10"/>
<path d="M142.338 138.286L136.109 145.332" stroke="#263238" stroke-width="0.552459" stroke-miterlimit="10"/>
<path d="M183.818 138.286L190.046 145.332" stroke="#263238" stroke-width="0.552459" stroke-miterlimit="10"/>
<path d="M190.046 84.29L183.818 91.3441" stroke="#263238" stroke-width="0.552459" stroke-miterlimit="10"/>
<path d="M190.047 150.869H136.109V211.912H190.047V150.869Z" stroke="#263238" stroke-width="0.552459" stroke-miterlimit="10"/>
<path d="M183.819 157.924H142.338V204.867H183.819V157.924Z" stroke="#263238" stroke-width="0.552459" stroke-miterlimit="10"/>
<path d="M136.109 150.869L142.338 157.923" stroke="#263238" stroke-width="0.552459" stroke-miterlimit="10"/>
<path d="M142.338 204.867L136.109 211.913" stroke="#263238" stroke-width="0.552459" stroke-miterlimit="10"/>
<path d="M183.818 204.867L190.046 211.913" stroke="#263238" stroke-width="0.552459" stroke-miterlimit="10"/>
<path d="M190.046 150.869L183.818 157.923" stroke="#263238" stroke-width="0.552459" stroke-miterlimit="10"/>
<path d="M190.047 217.449H136.109V278.492H190.047V217.449Z" stroke="#263238" stroke-width="0.552459" stroke-miterlimit="10"/>
<path d="M183.819 224.503H142.338V271.446H183.819V224.503Z" stroke="#263238" stroke-width="0.552459" stroke-miterlimit="10"/>
<path d="M136.109 217.449L142.338 224.503" stroke="#263238" stroke-width="0.552459" stroke-miterlimit="10"/>
<path d="M142.338 271.445L136.109 278.491" stroke="#263238" stroke-width="0.552459" stroke-miterlimit="10"/>
<path d="M183.818 271.445L190.046 278.491" stroke="#263238" stroke-width="0.552459" stroke-miterlimit="10"/>
<path d="M190.046 217.449L183.818 224.503" stroke="#263238" stroke-width="0.552459" stroke-miterlimit="10"/>
<path d="M190.047 291.134H136.109V352.176H190.047V291.134Z" stroke="#263238" stroke-width="0.552459" stroke-miterlimit="10"/>
<path d="M183.819 298.187H142.338V345.129H183.819V298.187Z" stroke="#263238" stroke-width="0.552459" stroke-miterlimit="10"/>
<path d="M136.109 291.134L142.338 298.188" stroke="#263238" stroke-width="0.552459" stroke-miterlimit="10"/>
<path d="M142.338 345.13L136.109 352.175" stroke="#263238" stroke-width="0.552459" stroke-miterlimit="10"/>
<path d="M183.818 345.13L190.046 352.175" stroke="#263238" stroke-width="0.552459" stroke-miterlimit="10"/>
<path d="M190.046 291.134L183.818 298.188" stroke="#263238" stroke-width="0.552459" stroke-miterlimit="10"/>
<path d="M251.571 17.7109H197.633V78.7534H251.571V17.7109Z" stroke="#263238" stroke-width="0.552459" stroke-miterlimit="10"/>
<path d="M245.341 24.7656H203.859V71.7084H245.341V24.7656Z" stroke="#263238" stroke-width="0.552459" stroke-miterlimit="10"/>
<path d="M197.633 17.7109L203.861 24.765" stroke="#263238" stroke-width="0.552459" stroke-miterlimit="10"/>
<path d="M203.861 71.707L197.633 78.7527" stroke="#263238" stroke-width="0.552459" stroke-miterlimit="10"/>
<path d="M245.344 71.707L251.572 78.7527" stroke="#263238" stroke-width="0.552459" stroke-miterlimit="10"/>
<path d="M251.572 17.7109L245.344 24.765" stroke="#263238" stroke-width="0.552459" stroke-miterlimit="10"/>
<path d="M251.571 84.29H197.633V145.332H251.571V84.29Z" stroke="#263238" stroke-width="0.552459" stroke-miterlimit="10"/>
<path d="M245.341 91.3447H203.859V138.287H245.341V91.3447Z" stroke="#263238" stroke-width="0.552459" stroke-miterlimit="10"/>
<path d="M197.633 84.29L203.861 91.3441" stroke="#263238" stroke-width="0.552459" stroke-miterlimit="10"/>
<path d="M203.861 138.286L197.633 145.332" stroke="#263238" stroke-width="0.552459" stroke-miterlimit="10"/>
<path d="M245.344 138.286L251.572 145.332" stroke="#263238" stroke-width="0.552459" stroke-miterlimit="10"/>
<path d="M251.572 84.29L245.344 91.3441" stroke="#263238" stroke-width="0.552459" stroke-miterlimit="10"/>
<path d="M251.571 150.869H197.633V211.912H251.571V150.869Z" stroke="#263238" stroke-width="0.552459" stroke-miterlimit="10"/>
<path d="M245.341 157.924H203.859V204.867H245.341V157.924Z" stroke="#263238" stroke-width="0.552459" stroke-miterlimit="10"/>
<path d="M197.633 150.869L203.861 157.923" stroke="#263238" stroke-width="0.552459" stroke-miterlimit="10"/>
<path d="M203.861 204.867L197.633 211.913" stroke="#263238" stroke-width="0.552459" stroke-miterlimit="10"/>
<path d="M245.344 204.867L251.572 211.913" stroke="#263238" stroke-width="0.552459" stroke-miterlimit="10"/>
<path d="M251.572 150.869L245.344 157.923" stroke="#263238" stroke-width="0.552459" stroke-miterlimit="10"/>
<path d="M251.571 217.449H197.633V278.492H251.571V217.449Z" stroke="#263238" stroke-width="0.552459" stroke-miterlimit="10"/>
<path d="M245.341 224.503H203.859V271.446H245.341V224.503Z" stroke="#263238" stroke-width="0.552459" stroke-miterlimit="10"/>
<path d="M197.633 217.449L203.861 224.503" stroke="#263238" stroke-width="0.552459" stroke-miterlimit="10"/>
<path d="M203.861 271.445L197.633 278.491" stroke="#263238" stroke-width="0.552459" stroke-miterlimit="10"/>
<path d="M245.344 271.445L251.572 278.491" stroke="#263238" stroke-width="0.552459" stroke-miterlimit="10"/>
<path d="M251.572 217.449L245.344 224.503" stroke="#263238" stroke-width="0.552459" stroke-miterlimit="10"/>
<path d="M251.571 291.134H197.633V352.176H251.571V291.134Z" stroke="#263238" stroke-width="0.552459" stroke-miterlimit="10"/>
<path d="M245.341 298.187H203.859V345.129H245.341V298.187Z" stroke="#263238" stroke-width="0.552459" stroke-miterlimit="10"/>
<path d="M197.633 291.134L203.861 298.188" stroke="#263238" stroke-width="0.552459" stroke-miterlimit="10"/>
<path d="M203.861 345.13L197.633 352.175" stroke="#263238" stroke-width="0.552459" stroke-miterlimit="10"/>
<path d="M245.344 345.13L251.572 352.175" stroke="#263238" stroke-width="0.552459" stroke-miterlimit="10"/>
<path d="M251.572 291.134L245.344 298.188" stroke="#263238" stroke-width="0.552459" stroke-miterlimit="10"/>
<path d="M8.55565 1.21777H2.95117" stroke="#263238" stroke-width="0.552459" stroke-miterlimit="10"/>
<path d="M122.627 1.21777H13.5879" stroke="#263238" stroke-width="0.552459" stroke-miterlimit="10"/>
<path d="M97.7625 70.5262H74.0214L68.9395 29.2891H102.844L97.7625 70.5262Z" stroke="#263238" stroke-width="1.10492" stroke-miterlimit="10"/>
<path d="M108.247 29.1788H63.5293L78.438 22.3018H93.3468L108.247 29.1788Z" fill="#263238" stroke="#263238" stroke-width="0.552459" stroke-miterlimit="10"/>
<path d="M78.0084 70.3583L74.6289 29.6016" stroke="#263238" stroke-width="1.10492" stroke-miterlimit="10"/>
<path d="M94.2578 70.3583L97.848 29.6016" stroke="#263238" stroke-width="1.10492" stroke-miterlimit="10"/>
<path d="M73.5176 66.3887L74.0232 70.5267H97.7643L98.27 66.3887H73.5176Z" fill="#263238" stroke="#263238" stroke-width="0.552459" stroke-miterlimit="10"/>
<path d="M90.1683 13.7061H81.9512V22.9935H90.1683V13.7061Z" fill="#263238" stroke="#263238" stroke-width="0.552459" stroke-miterlimit="10"/>
<path d="M122.387 15.1387H88.9121V16.9254H122.387V15.1387Z" fill="#263238" stroke="#263238" stroke-width="0.552459" stroke-miterlimit="10"/>
<path d="M391.146 197.923C391.146 197.923 391.146 193.979 385.617 188.45C380.088 182.922 376.54 179.77 376.54 179.77C376.54 179.77 373.776 188.846 378.908 194.366C382.683 198.255 386.776 201.822 391.146 205.028V197.923Z" fill="#92E3A9"/>
<path d="M383.122 222.567C383.122 222.567 383.122 218.622 377.601 213.094C372.081 207.565 368.525 204.413 368.525 204.413C368.525 204.413 365.76 213.49 370.893 219.018C374.665 222.904 378.755 226.468 383.122 229.671V222.567Z" fill="#92E3A9"/>
<path d="M390.791 204.639C390.791 204.639 391.212 200.72 397.289 195.807C403.365 190.894 407.234 188.138 407.234 188.138C407.234 188.138 409.02 197.45 403.332 202.406C399.168 205.862 394.722 208.963 390.041 211.676L390.791 204.639Z" fill="#92E3A9"/>
<path d="M381.109 233.749C381.109 233.749 381.952 229.889 388.5 225.641C395.048 221.394 399.186 219.051 399.186 219.051C399.186 219.051 400.029 228.498 393.818 232.83C389.311 235.838 384.561 238.466 379.617 240.685L381.109 233.749Z" fill="#92E3A9"/>
<path d="M382.928 265.481C382.928 265.481 382.928 261.536 388.456 256.008C393.985 250.479 397.533 247.327 397.533 247.327C397.533 247.327 400.289 256.404 395.165 261.933C391.389 265.817 387.296 269.381 382.928 272.585V265.481Z" fill="#92E3A9"/>
<path d="M382.834 273.226C382.834 273.226 383.399 269.324 378.713 263.112C374.027 256.901 370.959 253.227 370.959 253.227C370.959 253.227 366.939 261.814 371.229 268.017C374.413 272.397 377.957 276.505 381.823 280.297L382.834 273.226Z" fill="#92E3A9"/>
<path d="M377.391 296.181C377.391 296.181 377.391 292.237 382.911 286.709C388.431 281.18 391.988 278.045 391.988 278.045C391.988 278.045 394.752 287.122 389.619 292.65C385.848 296.545 381.758 300.117 377.391 303.328V296.181Z" fill="#92E3A9"/>
<path d="M381.081 316.991C381.081 316.991 380.078 313.173 384.022 306.431C387.966 299.688 390.629 295.744 390.629 295.744C390.629 295.744 395.602 303.826 392.037 310.467C389.369 315.183 386.314 319.668 382.901 323.876L381.081 316.991Z" fill="#92E3A9"/>
<path d="M391.641 196.912C391.364 201.022 390.858 205.113 390.124 209.166C387.942 220.451 382.48 227.707 380.298 237.922C378.115 248.136 384.385 261.241 382.708 274.33C381.031 287.418 375.966 294.7 377.39 303.431C378.814 312.162 386.661 337.597 386.661 337.597" stroke="#263238" stroke-width="0.552459" stroke-linecap="round" stroke-linejoin="round"/>
<path d="M390.74 207.269L396.69 202.692" stroke="#263238" stroke-width="0.552459" stroke-linecap="round" stroke-linejoin="round"/>
<path d="M391.018 202.003L388.523 197.578" stroke="#263238" stroke-width="0.552459" stroke-linecap="round" stroke-linejoin="round"/>
<path d="M380.637 237.45C380.637 237.45 385.618 233.708 390.75 229.975" stroke="#263238" stroke-width="0.552459" stroke-linecap="round" stroke-linejoin="round"/>
<path d="M383.121 229.671C383.121 229.671 378.966 221.53 374.264 216.128" stroke="#263238" stroke-width="0.552459" stroke-linecap="round" stroke-linejoin="round"/>
<path d="M383.121 271.094C385.967 265.851 389.559 261.047 393.782 256.834" stroke="#263238" stroke-width="0.552459" stroke-linecap="round" stroke-linejoin="round"/>
<path d="M382.152 276.63C380.642 273.072 378.838 269.647 376.758 266.39C373.85 262.092 373.387 261.544 373.387 261.544" stroke="#263238" stroke-width="0.552459" stroke-linecap="round" stroke-linejoin="round"/>
<path d="M377.391 303.43C378.654 300.296 380.153 297.262 381.874 294.354C383.602 291.671 385.547 289.134 387.689 286.769" stroke="#263238" stroke-width="0.552459" stroke-linecap="round" stroke-linejoin="round"/>
<path d="M382.878 323.868C382.591 320.874 383.106 317.857 384.37 315.128C386.452 311.108 388.803 305.858 389.772 303.768" stroke="#263238" stroke-width="0.552459" stroke-linecap="round" stroke-linejoin="round"/>
<path d="M354.966 250.639C354.966 250.639 354.536 248.17 357.402 244.099C360.267 240.029 362.147 237.669 362.147 237.669C362.147 237.669 364.869 243.063 362.248 247.083C360.307 249.934 358.127 252.615 355.733 255.098L354.966 250.639Z" fill="#92E3A9"/>
<path d="M362.667 265.227C362.667 265.227 362.238 262.749 365.103 258.687C367.968 254.625 369.856 252.257 369.856 252.257C369.856 252.257 372.57 257.651 369.949 261.671C368.006 264.518 365.827 267.196 363.434 269.677L362.667 265.227Z" fill="#92E3A9"/>
<path d="M355.908 254.819C355.908 254.819 355.226 252.4 350.852 249.982C346.478 247.563 343.789 246.248 343.789 246.248C343.789 246.248 343.68 252.291 347.776 254.777C350.764 256.498 353.89 257.966 357.122 259.168L355.908 254.819Z" fill="#92E3A9"/>
<path d="M365.146 272.019C365.146 272.019 364.21 269.685 359.634 267.738C355.058 265.791 352.209 264.771 352.209 264.771C352.209 264.771 352.74 270.78 357.08 272.828C360.231 274.222 363.493 275.349 366.831 276.2L365.146 272.019Z" fill="#92E3A9"/>
<path d="M367.446 292.112C367.446 292.112 367.016 289.643 362.954 286.778C358.892 283.912 356.321 282.319 356.321 282.319C356.321 282.319 355.571 288.311 359.389 291.219C362.178 293.253 365.132 295.048 368.221 296.588L367.446 292.112Z" fill="#92E3A9"/>
<path d="M368.347 296.957C368.347 296.957 367.572 294.572 369.831 290.139C372.089 285.706 373.615 283.102 373.615 283.102C373.615 283.102 377.07 288.057 375.056 292.372C373.533 295.466 371.757 298.429 369.746 301.23L368.347 296.957Z" fill="#92E3A9"/>
<path d="M375.284 316.924C375.284 316.924 375.57 314.395 379.498 311.336C383.425 308.277 385.861 306.507 385.861 306.507C385.861 306.507 386.948 312.448 383.332 315.567C380.663 317.751 377.816 319.707 374.82 321.416L375.284 316.924Z" fill="#92E3A9"/>
<path d="M374.255 310.763C374.255 310.763 373.825 308.293 369.763 305.428C365.7 302.563 363.13 300.97 363.13 300.97C363.13 300.97 362.38 306.962 366.198 309.869C368.985 311.896 371.936 313.686 375.022 315.221L374.255 310.763Z" fill="#92E3A9"/>
<path d="M374.197 324.214C374.197 324.214 374.416 321.686 371.205 317.91C367.994 314.134 365.921 311.918 365.921 311.918C365.921 311.918 363.679 317.531 366.638 321.307C368.82 323.975 371.222 326.455 373.818 328.723L374.197 324.214Z" fill="#92E3A9"/>
<path d="M354.545 250.057C355.164 252.605 355.924 255.118 356.82 257.583C359.416 264.418 363.63 268.387 366.091 274.548C368.552 280.708 366.091 289.608 368.535 297.64C370.979 305.672 374.991 309.675 375.024 315.338C375.058 321.002 372.833 336.635 372.833 336.635" stroke="#263238" stroke-width="0.552459" stroke-linecap="round" stroke-linejoin="round"/>
<path d="M356.229 256.454L351.998 254.237" stroke="#263238" stroke-width="0.552459" stroke-linecap="round" stroke-linejoin="round"/>
<path d="M355.486 253.184L356.565 250.142" stroke="#263238" stroke-width="0.552459" stroke-linecap="round" stroke-linejoin="round"/>
<path d="M365.844 274.287C365.844 274.287 362.313 272.483 358.697 270.696" stroke="#263238" stroke-width="0.552459" stroke-linecap="round" stroke-linejoin="round"/>
<path d="M363.436 269.678C364.477 266.396 365.846 263.228 367.523 260.222" stroke="#263238" stroke-width="0.552459" stroke-linecap="round" stroke-linejoin="round"/>
<path d="M367.935 295.66C365.581 292.681 362.808 290.058 359.701 287.873" stroke="#263238" stroke-width="0.552459" stroke-linecap="round" stroke-linejoin="round"/>
<path d="M369.141 299.022C369.704 296.626 370.465 294.28 371.416 292.01C372.773 289.001 372.975 288.639 372.975 288.639" stroke="#263238" stroke-width="0.552459" stroke-linecap="round" stroke-linejoin="round"/>
<path d="M374.854 319.585C376.223 317.879 377.744 316.3 379.396 314.865C380.448 314.088 381.437 313.228 382.354 312.295" stroke="#263238" stroke-width="0.552459" stroke-linecap="round" stroke-linejoin="round"/>
<path d="M375.039 315.314C373.913 313.47 372.645 311.718 371.246 310.072C369.872 308.573 368.379 307.189 366.779 305.934" stroke="#263238" stroke-width="0.552459" stroke-linecap="round" stroke-linejoin="round"/>
<path d="M373.817 328.722C373.675 326.813 373.023 324.976 371.929 323.404C370.193 321.112 368.145 318.061 367.311 316.864" stroke="#263238" stroke-width="0.552459" stroke-linecap="round" stroke-linejoin="round"/>
<path d="M386.493 367.995H370.581C369.89 367.995 369.334 367.153 369.334 366.175L365.348 336.838H391.659L387.715 366.175C387.749 367.178 387.192 367.995 386.493 367.995Z" fill="#263238" stroke="#263238" stroke-width="0.552459" stroke-linecap="round" stroke-linejoin="round"/>
<path d="M366.418 341.946H385.355" stroke="white" stroke-width="0.552459" stroke-linecap="round" stroke-linejoin="round"/>
<path d="M387.143 341.946H390.261" stroke="white" stroke-width="0.552459" stroke-linecap="round" stroke-linejoin="round"/>
<path d="M240.033 352.468C240.033 352.468 235.591 358.013 232.928 359.345C230.265 360.676 222.722 363.339 222.495 365.337C222.267 367.334 222.275 368.666 222.275 368.666H257.352C257.352 368.666 258.018 367.823 257.79 364.671C257.563 361.519 255.354 351.802 255.354 351.802L240.033 352.468Z" fill="white" stroke="#263238" stroke-width="0.552459" stroke-linecap="round" stroke-linejoin="round"/>
<path d="M257.832 366.003H222.435C222.283 367.629 222.283 368.666 222.283 368.666H257.36C257.36 368.666 257.815 368.042 257.832 366.003Z" fill="white" stroke="#263238" stroke-width="0.552459" stroke-linecap="round" stroke-linejoin="round"/>
<path d="M295.748 367.562C295.748 367.562 295.504 361.393 295.748 358.679C295.864 356.458 295.791 354.231 295.529 352.021H310.177C310.177 352.021 311.736 358.014 313.287 360.23C314.837 362.447 316.616 365.565 316.616 366.669V368.666H295.976L295.748 367.562Z" fill="white" stroke="#263238" stroke-width="0.552459" stroke-linecap="round" stroke-linejoin="round"/>
<path d="M316.616 366.668C316.611 366.519 316.589 366.372 316.549 366.229H295.707L295.749 367.561L295.977 368.665H316.616V366.668Z" fill="white" stroke="#263238" stroke-width="0.552459" stroke-linecap="round" stroke-linejoin="round"/>
<path d="M246.7 201.13C246.7 201.13 240.48 236.755 239.654 254.992C238.828 273.23 237.581 294.763 239.241 305.121C240.902 315.479 240.48 343.653 240.48 343.653C240.48 343.653 236.342 346.552 237.581 350.285L238.828 354.01L256.847 358.359C257.389 355.975 257.736 353.551 257.884 351.111C258.297 346.139 257.041 344.479 257.041 341.579C257.041 338.68 266.354 282.779 266.766 281.127C267.179 279.475 271.545 233.855 271.545 233.855L274.191 243.067C274.191 243.067 282.375 285.4 284.861 297.848C287.347 310.295 293.499 334.93 293.499 338.301C293.499 341.672 293.912 344.512 293.912 347.411C293.912 350.311 292.673 349.485 293.912 352.384C295.151 355.283 295.986 357.778 295.986 357.778L311.998 358.207C311.351 354.79 311.108 351.307 311.274 347.833C311.687 343.273 311.274 336.228 311.687 329.603C312.099 322.979 314.586 303.477 312.934 293.971C311.282 284.464 309.613 285.678 309.613 276.98V223.911C309.613 216.461 305.475 200.709 305.475 200.709C305.475 200.709 276.054 203.617 265.696 202.782C255.338 201.948 246.7 201.13 246.7 201.13Z" fill="#263238" stroke="#263238" stroke-width="0.552459" stroke-linecap="round" stroke-linejoin="round"/>
<path d="M257.52 203.49C267.569 207.059 278.525 207.154 288.635 203.759L287.792 199.394C287.792 199.394 271.139 199.663 265.678 198.846C260.217 198.028 257.25 197.759 257.25 197.759" fill="#5E5E5E"/>
<path d="M257.52 203.49C267.569 207.059 278.525 207.154 288.635 203.759L287.792 199.394C287.792 199.394 271.139 199.663 265.678 198.846C260.217 198.028 257.25 197.759 257.25 197.759" stroke="#263238" stroke-width="0.552459" stroke-linecap="round" stroke-linejoin="round"/>
<path d="M273.624 202.593L268.066 202.103L267.777 205.385L273.335 205.875L273.624 202.593Z" fill="white" stroke="#263238" stroke-width="0.552459" stroke-linecap="round" stroke-linejoin="round"/>
<path d="M279.382 114.492C279.382 114.492 267.642 117.223 263.546 118.858C259.45 120.493 258.633 152.982 258.633 165C258.633 177.018 255.354 197.481 256.18 198.576C257.006 199.672 261.633 202.394 272.008 202.394C277.695 202.476 283.373 201.928 288.939 200.759C288.939 200.759 284.565 182.218 289.782 164.452C294.999 146.686 297.696 123.501 295.782 119.675C293.869 115.849 279.382 114.492 279.382 114.492Z" fill="#DA0025" stroke="#263238" stroke-width="0.552459" stroke-linecap="round" stroke-linejoin="round"/>
<path d="M273.626 136.497C273.626 136.497 269.361 172.366 269.361 199.705" stroke="#263238" stroke-width="0.552459" stroke-linecap="round" stroke-linejoin="round"/>
<path d="M275.945 139.362C275.945 139.529 275.896 139.692 275.803 139.831C275.711 139.969 275.579 140.077 275.425 140.141C275.271 140.205 275.102 140.221 274.938 140.189C274.775 140.156 274.624 140.076 274.507 139.958C274.389 139.84 274.308 139.69 274.276 139.527C274.243 139.363 274.26 139.194 274.324 139.04C274.388 138.886 274.496 138.754 274.634 138.662C274.773 138.569 274.936 138.52 275.103 138.52C275.326 138.52 275.54 138.608 275.698 138.766C275.857 138.924 275.945 139.139 275.945 139.362Z" fill="#263238"/>
<path d="M274.611 151.626C274.611 151.793 274.562 151.956 274.469 152.094C274.377 152.233 274.245 152.341 274.091 152.405C273.937 152.468 273.768 152.485 273.604 152.453C273.441 152.42 273.29 152.34 273.173 152.222C273.055 152.104 272.974 151.954 272.942 151.79C272.909 151.627 272.926 151.457 272.99 151.303C273.054 151.149 273.162 151.018 273.3 150.925C273.439 150.833 273.602 150.783 273.769 150.783C273.992 150.783 274.206 150.872 274.365 151.03C274.523 151.188 274.611 151.402 274.611 151.626Z" fill="#263238"/>
<path d="M273.525 165.168C273.525 165.335 273.476 165.498 273.383 165.636C273.291 165.775 273.159 165.883 273.005 165.947C272.851 166.01 272.682 166.027 272.518 165.995C272.355 165.962 272.205 165.882 272.087 165.764C271.969 165.646 271.889 165.496 271.856 165.332C271.824 165.169 271.84 164.999 271.904 164.845C271.968 164.691 272.076 164.56 272.214 164.467C272.353 164.375 272.516 164.325 272.683 164.325C272.906 164.325 273.121 164.414 273.279 164.572C273.437 164.73 273.525 164.944 273.525 165.168Z" fill="#263238"/>
<path d="M272.066 179.47C272.536 179.47 272.917 179.089 272.917 178.619C272.917 178.149 272.536 177.768 272.066 177.768C271.596 177.768 271.215 178.149 271.215 178.619C271.215 179.089 271.596 179.47 272.066 179.47Z" fill="#263238"/>
<path d="M270.853 193.402C271.323 193.402 271.704 193.021 271.704 192.55C271.704 192.08 271.323 191.699 270.853 191.699C270.383 191.699 270.002 192.08 270.002 192.55C270.002 193.021 270.383 193.402 270.853 193.402Z" fill="#263238"/>
<path d="M243.598 126.233C243.598 126.233 242.536 134.459 242.536 138.664C242.536 142.869 232.886 163.062 231.487 165.86C229.723 169.121 228.264 172.537 227.13 176.067C225.032 182.135 225.445 189.947 226.616 192.079C227.787 194.212 234.378 194.296 238.811 191.725C243.244 189.155 247.677 180.289 248.848 168.852C250.02 157.416 249.076 135.461 248.612 131.264C248.149 127.067 246.295 125.239 243.598 126.233Z" fill="#5E5E5E" stroke="#263238" stroke-width="0.552459" stroke-linecap="round" stroke-linejoin="round"/>
<path d="M234.824 168.252C234.824 168.252 243.109 170.468 243.387 179.301" stroke="#263238" stroke-width="0.552459" stroke-linecap="round" stroke-linejoin="round"/>
<path d="M233.443 165.219C233.443 165.219 235.373 162.733 238.964 165.497" stroke="#263238" stroke-width="0.552459" stroke-linecap="round" stroke-linejoin="round"/>
<path d="M267.347 130.876C267.347 130.876 262.704 169.913 261.608 184.923C260.512 199.933 256.155 219.595 253.694 225.056C251.233 230.518 239.502 237.883 239.502 237.883C239.502 237.883 241.685 218.5 243.05 205.403C244.415 192.306 246.328 175.906 246.328 167.478C246.328 159.05 243.32 129.258 243.598 126.257C243.876 123.257 266.53 116.431 266.53 116.431C267.733 121.148 268.011 126.053 267.347 130.876Z" fill="#5E5E5E" stroke="#263238" stroke-width="0.552459" stroke-linecap="round" stroke-linejoin="round"/>
<path d="M262.526 174.978C264.254 157.28 267.389 130.876 267.389 130.876C268.047 126.043 267.761 121.129 266.546 116.405C266.546 116.405 265.358 116.759 263.537 117.341L255.109 132.646L263.158 135.326L255.446 141.031L262.526 174.978Z" fill="#263238" stroke="#263238" stroke-width="0.552459" stroke-linecap="round" stroke-linejoin="round"/>
<path d="M358.427 168.608C358.427 168.608 360.568 158.831 359.961 156.084C359.354 153.336 353.219 155.78 353.219 158.831C353.219 161.882 356.598 167.082 358.427 168.608Z" fill="#263238" stroke="#263238" stroke-width="0.552459" stroke-linecap="round" stroke-linejoin="round"/>
<path d="M354.77 152.416C354.77 152.416 358.141 149.669 359.346 147.84C360.432 146.208 361.659 144.674 363.012 143.255C363.931 142.337 369.122 141.115 370.648 138.679C372.173 136.243 374.314 135.923 374.314 138.367C374.314 140.811 370.032 143.559 370.032 143.559C370.032 143.559 376.775 145.396 378.283 145.396C379.792 145.396 387.747 143.559 387.747 145.396C387.747 147.233 382.859 153.032 380.112 153.942C377.364 154.852 360.568 158.223 360.568 158.223L355.68 163.415C355.68 163.415 352.932 157.608 354.77 152.416Z" fill="white" stroke="#263238" stroke-width="0.552459" stroke-linecap="round" stroke-linejoin="round"/>
<path d="M386.795 145.381C386.795 145.381 388.152 141.074 387.166 141.319C386.18 141.563 384.207 145.625 383.963 147.218C383.719 148.811 386.795 145.381 386.795 145.381Z" fill="white" stroke="#263238" stroke-width="0.552459" stroke-linecap="round" stroke-linejoin="round"/>
<path d="M383.65 151.524C385.367 149.965 386.794 148.113 387.864 146.055C389.356 142.936 388.37 142.987 387.325 143.771C386.28 144.555 385.075 147.437 384.24 148.726C383.406 150.016 382.555 151.196 382.555 151.196" fill="white"/>
<path d="M383.65 151.524C385.367 149.965 386.794 148.113 387.864 146.055C389.356 142.936 388.37 142.987 387.325 143.771C386.28 144.555 385.075 147.437 384.24 148.726C383.406 150.016 382.555 151.196 382.555 151.196" stroke="#263238" stroke-width="0.552459" stroke-linecap="round" stroke-linejoin="round"/>
<path d="M380.692 153.042C382.745 152.348 384.446 150.882 385.437 148.954C387.038 145.752 387.038 144.74 385.934 145.381C384.83 146.021 383.962 147.066 382.858 148.828C382.133 149.937 381.161 150.863 380.018 151.533" fill="white"/>
<path d="M380.692 153.042C382.745 152.348 384.446 150.882 385.437 148.954C387.038 145.752 387.038 144.74 385.934 145.381C384.83 146.021 383.962 147.066 382.858 148.828C382.133 149.937 381.161 150.863 380.018 151.533" stroke="#263238" stroke-width="0.552459" stroke-linecap="round" stroke-linejoin="round"/>
<path d="M359.852 155.122C359.852 155.122 361.933 151.473 362.978 150.689C364.023 149.905 377.044 151.734 377.044 151.734C377.044 151.734 382.944 145.717 383.719 146.239C384.494 146.762 381.275 152.139 380.693 153.04C380.112 153.942 369.232 155.906 369.232 155.906" fill="white"/>
<path d="M359.852 155.122C359.852 155.122 361.933 151.473 362.978 150.689C364.023 149.905 377.044 151.734 377.044 151.734C377.044 151.734 382.944 145.717 383.719 146.239C384.494 146.762 381.275 152.139 380.693 153.04C380.112 153.942 369.232 155.906 369.232 155.906" stroke="#263238" stroke-width="0.552459" stroke-linecap="round" stroke-linejoin="round"/>
<path d="M318.149 124.016C318.149 124.016 321.815 142.954 324.259 149.974C326.704 156.994 328.532 162.498 328.532 162.498C328.753 162.416 328.988 162.384 329.222 162.404C329.456 162.423 329.683 162.494 329.887 162.61C330.091 162.726 330.267 162.886 330.403 163.078C330.539 163.27 330.631 163.489 330.673 163.72L331.28 165.549L355.409 150.589C355.398 153.855 355.603 157.118 356.024 160.357C356.64 163.161 357.454 165.918 358.459 168.608C358.459 168.608 343.197 180.82 337.39 184.789C331.583 188.759 323.063 191.203 320.897 190.899C318.731 190.596 306.848 171.052 306.848 171.052C306.848 171.052 311.432 144.479 312.039 135.655C312.646 126.831 316.59 123.106 318.149 124.016Z" fill="#5E5E5E" stroke="#263238" stroke-width="0.552459" stroke-linecap="round" stroke-linejoin="round"/>
<path d="M331.248 165.549C331.248 165.549 327.877 169.088 327.877 172.957" stroke="#263238" stroke-width="0.552459" stroke-linecap="round" stroke-linejoin="round"/>
<path d="M328.5 162.498C328.5 162.498 323.208 167.985 322.104 174.297" stroke="#263238" stroke-width="0.552459" stroke-linecap="round" stroke-linejoin="round"/>
<path d="M313.21 145.338C313.21 145.338 306.932 183.263 308.297 191.75C309.662 200.236 323.037 231.605 323.037 231.605C299.439 240.336 292.697 235.979 290.009 233.964C288.247 232.641 284.269 207.586 281.539 194.48C278.808 181.375 280.696 168.27 284.817 152.712C288.938 137.155 290.278 115.04 290.278 115.04C290.278 115.04 301.74 120.771 308.567 121.588C315.393 122.406 317.298 121.867 318.124 125.415C318.95 128.963 316.758 135.241 316.758 136.059" fill="#5E5E5E"/>
<path d="M313.21 145.338C313.21 145.338 306.932 183.263 308.297 191.75C309.662 200.236 323.037 231.605 323.037 231.605C299.439 240.336 292.697 235.979 290.009 233.964C288.247 232.641 284.269 207.586 281.539 194.48C278.808 181.375 280.696 168.27 284.817 152.712C288.938 137.155 290.278 115.04 290.278 115.04C290.278 115.04 301.74 120.771 308.567 121.588C315.393 122.406 317.298 121.867 318.124 125.415C318.95 128.963 316.758 135.241 316.758 136.059" stroke="#263238" stroke-width="0.552459" stroke-linecap="round" stroke-linejoin="round"/>
<path d="M286.656 161.165C291.013 152.105 300.452 137.339 300.452 137.339L291.729 133.968L301.792 130.597L298.59 118.647C294.089 116.885 290.322 115.006 290.322 115.006C290.322 115.006 288.957 137.12 284.861 152.678C282.543 161.494 280.925 169.534 280.453 177.203C282.167 171.727 284.239 166.369 286.656 161.165Z" fill="#263238" stroke="#263238" stroke-width="0.552459" stroke-linecap="round" stroke-linejoin="round"/>
<path d="M290.996 201.627L309.327 196.663L309.95 199.765L298.455 202.874" stroke="#263238" stroke-width="0.552459" stroke-linecap="round" stroke-linejoin="round"/>
<path d="M269.09 117.619C266.826 119.987 265.371 123.011 264.935 126.258C264.37 130.278 264.345 134.559 262.213 138.014C267.135 138.604 270.16 131.163 275.099 131.567C277.332 131.753 279.043 133.522 280.805 134.938C282.337 136.167 284.041 137.166 285.861 137.905C286.023 138.019 286.214 138.086 286.412 138.098C286.61 138.11 286.807 138.066 286.982 137.973C287.156 137.879 287.302 137.739 287.402 137.568C287.501 137.397 287.552 137.201 287.547 137.003C288.384 133.576 289.213 130.148 290.033 126.721C291.019 122.659 291.87 117.931 289.274 114.644C287.193 112.015 283.375 111.273 280.097 111.871C275.938 112.651 272.106 114.652 269.09 117.619Z" fill="#DA0025" stroke="#263238" stroke-width="0.552459" stroke-linecap="round" stroke-linejoin="round"/>
<path d="M259.156 77.6382C259.156 77.6382 257.521 83.0994 257.791 85.5519C258.06 88.0044 258.06 89.1084 256.948 89.6478C255.835 90.1872 252.329 92.6312 252.607 94.3168C252.886 96.0023 255.877 98.4127 255.877 98.4127C255.881 101.332 256.064 104.247 256.425 107.144C256.973 110.7 258.608 111.24 259.426 111.518C260.243 111.796 264.339 111.518 264.339 111.518C264.339 111.518 267.07 121.631 269.8 127.345C272.531 133.059 273.348 135.815 274.444 134.172C275.539 132.528 285.088 120.797 286.453 115.631C287.819 110.464 288.088 102.745 288.088 102.745C288.088 102.745 293.55 94.5528 284.54 83.9085C275.531 73.2642 268.713 72.4467 265.156 72.9524C261.6 73.458 259.156 77.6382 259.156 77.6382Z" fill="white" stroke="#263238" stroke-width="0.552459" stroke-linecap="round" stroke-linejoin="round"/>
<path d="M260.792 70.2719C260.792 70.2719 249.878 69.9937 250.965 76.0028C252.052 82.0118 269.253 77.3681 269.253 77.3681C269.253 77.3681 265.983 82.5511 268.714 84.1946C271.444 85.838 273.897 85.5514 273.897 86.3774C273.897 87.2033 272.532 88.5602 274.992 89.6473C277.453 90.7345 280.723 90.4901 280.993 93.1954C281.263 95.9007 276.897 101.118 278.81 102.753C280.723 104.388 287.82 105.483 289.455 103.3C291.089 101.118 296.829 96.4738 298.464 84.1946C300.099 71.9153 294.916 66.176 289.733 64.2629C284.55 62.3497 285.089 67.5413 285.089 67.5413C285.089 67.5413 271.714 60.167 263.253 62.8976C254.791 65.6282 260.792 70.2719 260.792 70.2719Z" fill="#263238" stroke="#263238" stroke-width="0.552459" stroke-linecap="round" stroke-linejoin="round"/>
<path d="M274.442 92.1087C274.442 92.1087 276.355 85.2822 279.903 86.3778C283.451 87.4735 282.634 94.5612 280.746 97.0221C280.163 97.7282 279.393 98.256 278.524 98.5451C277.655 98.8343 276.723 98.8731 275.833 98.6571C275.833 98.6571 274.198 103.571 270.102 105.484L266.006 107.397" fill="white"/>
<path d="M274.442 92.1087C274.442 92.1087 276.355 85.2822 279.903 86.3778C283.451 87.4735 282.634 94.5612 280.746 97.0221C280.163 97.7282 279.393 98.256 278.524 98.5451C277.655 98.8343 276.723 98.8731 275.833 98.6571C275.833 98.6571 274.198 103.571 270.102 105.484L266.006 107.397" stroke="#263238" stroke-width="0.552459" stroke-linecap="round" stroke-linejoin="round"/>
<path d="M259.154 85.5523C259.154 85.5523 261.607 83.0998 262.433 86.395" stroke="#263238" stroke-width="0.552459" stroke-linecap="round" stroke-linejoin="round"/>
<path d="M260.791 90.1955C260.791 91.4007 260.488 92.3783 260.108 92.3783C259.729 92.3783 259.426 91.4007 259.426 90.1955C259.426 88.9903 259.738 88.0127 260.108 88.0127C260.479 88.0127 260.791 88.9903 260.791 90.1955Z" fill="#263238"/>
<path d="M234.36 199.134C234.36 199.134 239.493 194.701 241.103 190.259C242.712 185.818 238.574 182.556 235.97 184.891C233.366 187.225 234.36 199.134 234.36 199.134Z" fill="white" stroke="#263238" stroke-width="0.552459" stroke-linecap="round" stroke-linejoin="round"/>
<path d="M240.428 179.732L261.211 177.17L261.674 199.352H244.161L238.793 181.603L240.428 179.732Z" fill="#263238" stroke="#263238" stroke-width="0.552459" stroke-linecap="round" stroke-linejoin="round"/>
<path d="M236.46 175.299C236.46 175.299 245.099 184.873 245.798 185.572C246.498 186.272 244.172 189.306 242.537 191.64C240.902 193.975 237.16 195.61 237.16 195.61L234.362 203.313C234.362 203.313 226.187 193.511 225.723 189.542C225.26 185.572 228.993 178.585 230.392 176.9C231.097 175.969 231.968 175.177 232.963 174.565" fill="#5E5E5E"/>
<path d="M236.46 175.299C236.46 175.299 245.099 184.873 245.798 185.572C246.498 186.272 244.172 189.306 242.537 191.64C240.902 193.975 237.16 195.61 237.16 195.61L234.362 203.313C234.362 203.313 226.187 193.511 225.723 189.542C225.26 185.572 228.993 178.585 230.392 176.9C231.097 175.969 231.968 175.177 232.963 174.565" stroke="#263238" stroke-width="0.552459" stroke-linecap="round" stroke-linejoin="round"/>
<path d="M244.398 184.873C244.398 184.873 248.839 184.873 250.002 185.573C251.165 186.272 253.972 191.413 255.607 192.113C257.242 192.812 257.006 194.447 256.306 194.641C255.607 194.835 252.337 193.941 251.637 193.478C250.938 193.014 248.131 191.607 248.131 191.607C248.131 191.607 252.809 196.276 253.736 197.211C254.663 198.147 255.607 199.546 254.671 200.481C253.736 201.417 249.766 201.417 249.766 201.417C248.945 202.358 247.902 203.079 246.732 203.515C245.097 203.987 242.518 204.451 240.428 203.052C238.338 201.653 237.158 198.61 237.158 195.576C237.158 192.542 244.398 184.873 244.398 184.873Z" fill="white" stroke="#263238" stroke-width="0.552459" stroke-linecap="round" stroke-linejoin="round"/>
<path d="M204.031 149.942C204.031 149.942 208.902 175.647 210.68 185.768C212.459 195.89 216.58 214.811 216.58 214.811C216.58 214.811 219.858 228.556 219.428 232.905C218.999 237.254 217.38 241.956 215.847 243.431C214.313 244.906 211.102 244.578 210.739 243.617C210.377 242.656 211.692 240.937 211.692 240.937C211.692 240.937 208.717 242.959 207.941 241.493C207.166 240.027 209.559 239.108 209.559 239.108C209.559 239.108 207.132 237.945 207.705 236.841C208.278 235.737 210.562 235.998 210.562 235.998C210.562 235.998 207.967 231.784 208.312 228.371C208.658 224.958 209.998 220.676 210.065 219.985C210.133 219.294 202.843 201.689 202.843 201.689C202.843 201.689 195.536 176.312 192.679 167.708C189.822 159.103 193.968 150.852 195.687 149.858C197.407 148.863 204.031 149.942 204.031 149.942Z" fill="white" stroke="#263238" stroke-width="0.552459" stroke-linecap="round" stroke-linejoin="round"/>
<path d="M214.955 224.597C214.955 224.597 212.427 228.979 213.497 232.325C214.567 235.671 215.132 236.876 215.039 237.795C214.946 238.713 212.688 242.851 212.553 244.259C212.418 245.666 214.542 245.152 215.874 243.416C217.205 241.68 218.503 242.514 219.051 237.019C219.295 233.107 218.98 229.179 218.115 225.355" fill="white"/>
<path d="M214.955 224.597C214.955 224.597 212.427 228.979 213.497 232.325C214.567 235.671 215.132 236.876 215.039 237.795C214.946 238.713 212.688 242.851 212.553 244.259C212.418 245.666 214.542 245.152 215.874 243.416C217.205 241.68 218.503 242.514 219.051 237.019C219.295 233.107 218.98 229.179 218.115 225.355" stroke="#263238" stroke-width="0.552459" stroke-linecap="round" stroke-linejoin="round"/>
<path d="M216.606 214.837C216.606 214.837 212.459 195.917 210.706 185.795C208.953 175.673 204.031 149.943 204.031 149.943C204.031 149.943 197.432 148.831 195.713 149.817C193.994 150.803 189.814 159.087 192.704 167.675C195.595 176.263 202.868 201.656 202.868 201.656C202.868 201.656 210.158 219.27 210.091 219.953L217.255 217.661C216.875 215.95 216.606 214.837 216.606 214.837Z" fill="#4963A5" stroke="#263238" stroke-width="0.552459" stroke-linecap="round" stroke-linejoin="round"/>
<path d="M210.857 351.813C210.857 351.813 222.943 352.943 227.435 352.1C231.927 351.257 236.705 353.221 237.27 355.185C237.835 357.148 236.984 359.12 231.084 361.649C225.185 364.177 221.257 363.899 213.95 365.584C206.644 367.27 204.402 368.391 202.152 367.548C199.901 366.705 199.059 356.592 199.059 356.592L210.857 351.813Z" fill="white" stroke="#263238" stroke-width="0.552459" stroke-linecap="round" stroke-linejoin="round"/>
<path d="M210.857 351.813C210.857 351.813 222.943 352.943 227.435 352.1C231.927 351.257 236.705 353.221 237.27 355.185C237.835 357.148 236.984 359.12 231.084 361.649C225.185 364.177 221.257 363.899 213.95 365.584C206.644 367.27 204.402 368.391 202.152 367.548C199.901 366.705 199.059 356.592 199.059 356.592L210.857 351.813Z" fill="#263238" stroke="#263238" stroke-width="0.552459" stroke-linecap="round" stroke-linejoin="round"/>
<path d="M237.244 355.184C236.696 353.28 232.187 351.375 227.796 352.041L229.094 359.398C229.094 359.398 220.388 360.806 211.674 363.056C208.019 364.001 204.297 364.666 200.541 365.045C200.971 366.326 201.493 367.312 202.125 367.573C204.376 368.416 206.617 367.295 213.924 365.61C221.231 363.924 225.159 364.202 231.058 361.674C236.957 359.145 237.826 357.156 237.244 355.184Z" fill="white" stroke="#263238" stroke-width="0.552459" stroke-linecap="round" stroke-linejoin="round"/>
<path d="M156.34 353.787C156.34 353.787 157.461 358.279 161.397 359.122C165.333 359.965 169.825 363.9 169.825 365.864C169.825 367.828 167.852 368.67 160.267 368.67C152.682 368.67 148.418 369.345 145.047 367.373C141.676 365.4 143.134 356.872 143.698 353.787C144.263 350.702 156.34 353.787 156.34 353.787Z" fill="#263238" stroke="#263238" stroke-width="0.552459" stroke-linecap="round" stroke-linejoin="round"/>
<path d="M169.823 365.862C169.823 364.766 168.415 363.055 166.494 361.605C164.547 361.892 161.589 362.448 159.988 363.333C157.459 364.741 157.459 366.14 157.459 366.14C157.459 366.14 150.296 367.631 147.009 365.971C145.494 365.176 144.079 364.202 142.795 363.072C142.963 364.884 143.579 366.51 145.062 367.37C148.433 369.342 152.698 368.668 160.283 368.668C167.868 368.668 169.823 367.825 169.823 365.862Z" fill="white" stroke="#263238" stroke-width="0.552459" stroke-linecap="round" stroke-linejoin="round"/>
<path d="M205.522 209.105C205.522 209.105 207.208 217.811 208.893 229.897C210.579 241.982 210.301 272.592 210.301 286.363C210.301 300.134 210.579 342.829 210.579 344.228V347.886C210.579 347.886 198.215 352.942 197.373 352.942C196.53 352.942 193.159 331.873 190.63 320.63C188.102 309.388 186.678 297.597 186.678 290.855C186.678 284.113 185.548 278.491 185.548 277.092C185.548 275.693 177.407 232.981 177.407 232.981C177.407 232.981 170.1 280.464 168.137 290.29C166.173 300.117 157.18 343.107 156.616 345.636C156.245 347.674 156.056 349.741 156.051 351.813L144.252 350.692C144.252 350.692 143.974 336.087 143.696 324.288C143.418 312.489 142.289 302.376 143.131 294.791C143.974 287.206 146.502 273.999 146.781 272.592C147.059 271.185 145.938 239.445 145.938 236.352C145.938 233.259 146.781 206.577 146.781 206.577L185.548 207.142L205.522 209.105Z" fill="#263238" stroke="#263238" stroke-width="0.552459" stroke-linecap="round" stroke-linejoin="round"/>
<path d="M194.002 349.006L197.66 359.684L214.793 351.534L211.7 341.985L194.002 349.006Z" fill="white" stroke="#263238" stroke-width="0.552459" stroke-linecap="round" stroke-linejoin="round"/>
<path d="M141.75 346.757L159.448 348.442V355.185L142.037 355.749L141.75 346.757Z" fill="white" stroke="#263238" stroke-width="0.552459" stroke-linecap="round" stroke-linejoin="round"/>
<path d="M165.398 119.164C165.398 119.164 150.675 122.729 145.686 124.625C140.696 126.521 139.516 128.662 138.8 131.511C138.084 134.359 145.922 188.895 146.638 194.593C147.354 200.29 145.214 208.128 149.251 212.164C153.287 216.201 173.615 217.786 184.866 217.626C195.654 217.466 203.745 215.637 205.885 211.6C208.026 207.563 207.428 205.751 207.428 197.205C207.428 188.659 206.711 159.213 206.003 148.324C205.295 137.435 205.523 132.412 201.486 129.564C197.449 126.715 190.328 119.198 186.055 118.962C181.782 118.726 168.719 117.268 165.398 119.164Z" fill="#4963A5" stroke="#263238" stroke-width="0.552459" stroke-linecap="round" stroke-linejoin="round"/>
<path d="M171.928 151.644L165.102 141.017L158.275 151.644L165.102 162.263L171.928 151.644Z" fill="white"/>
<path d="M187.485 151.644L180.659 141.017L173.832 151.644L180.659 162.263L187.485 151.644Z" fill="white"/>
<path d="M203.037 151.644L196.211 141.017L189.393 151.644L196.211 162.263L203.037 151.644Z" fill="white"/>
<path d="M171.928 174.821L165.102 164.193L158.275 174.821L165.102 185.448L171.928 174.821Z" fill="white"/>
<path d="M187.485 174.821L180.659 164.193L173.832 174.821L180.659 185.448L187.485 174.821Z" fill="white"/>
<path d="M203.037 174.821L196.211 164.193L189.393 174.821L196.211 185.448L203.037 174.821Z" fill="white"/>
<path d="M171.928 197.998L165.102 187.379L158.275 197.998L165.102 208.625L171.928 197.998Z" fill="white"/>
<path d="M187.485 197.998L180.659 187.379L173.832 197.998L180.659 208.625L187.485 197.998Z" fill="white"/>
<path d="M203.037 197.998L196.211 187.379L189.393 197.998L196.211 208.625L203.037 197.998Z" fill="white"/>
<path d="M171.568 114.546C171.568 114.546 167.059 117.159 166.342 119.055C165.626 120.951 163.258 125.94 163.258 125.94L167.767 138.767L174.652 130.449L177.265 129.261L183.678 129.505L191.263 138.776C191.263 138.776 192.452 130.938 191.263 124.996C190.075 119.055 187.892 116.687 185.322 115.726C182.751 114.765 173.708 114.546 171.568 114.546Z" fill="white" stroke="#263238" stroke-width="0.552459" stroke-linecap="round" stroke-linejoin="round"/>
<path d="M170.144 111.242C170.144 111.242 169.908 118.827 169.908 120.269C169.908 121.71 179.406 136.652 181.067 135.228C182.727 133.804 186.966 121.929 186.966 121.929L188.862 106.759L170.144 111.242Z" fill="white" stroke="#263238" stroke-width="0.552459" stroke-linecap="round" stroke-linejoin="round"/>
<path d="M166.587 86.7853C166.587 86.7853 163.73 81.7961 162.786 85.597C161.842 89.398 163.258 93.182 164.682 92.9629C166.107 92.7438 166.587 86.7853 166.587 86.7853Z" fill="white" stroke="#263238" stroke-width="0.552459" stroke-linecap="round" stroke-linejoin="round"/>
<path d="M168.245 68.2607C168.245 68.2607 163.492 75.1547 163.492 79.2169C163.496 81.6415 164.154 84.0202 165.397 86.1024L171.094 70.1907L168.245 68.2607Z" fill="#263238" stroke="#263238" stroke-width="0.552459" stroke-linecap="round" stroke-linejoin="round"/>
<path d="M170.143 68.9758C170.143 68.9758 166.586 77.2856 166.342 79.6622C166.098 82.0389 163.021 96.5178 163.021 101.271C163.021 106.024 164.707 107.171 168.719 109.109C172.73 111.047 182.49 111.005 186.055 109.109C189.62 107.213 192.704 99.8383 192.704 99.8383C192.704 99.8383 199.59 98.1528 199.118 93.8967C198.646 89.6407 194.364 91.5285 194.364 91.5285C194.364 91.5285 197.449 85.8229 197.449 81.0781C197.449 76.3333 180.121 68.4954 177.264 68.015C174.407 67.5346 170.143 68.9758 170.143 68.9758Z" fill="white" stroke="#263238" stroke-width="0.552459" stroke-linecap="round" stroke-linejoin="round"/>
<path d="M171.062 61.1221C167.851 61.5267 165.087 62.7487 166.342 65.8923C168.247 70.6371 171.332 73.0137 177.029 74.91C182.726 76.8062 189.62 77.5226 190.8 79.4273C191.98 81.332 188.432 82.7478 189.856 83.9361L192.705 86.3128C192.705 86.3128 187.243 102.932 186.763 103.649C186.283 104.365 181.546 103.885 180.358 101.963C179.17 100.042 179.641 96.7379 177.265 96.0637C174.888 95.3895 167.295 93.4511 166.587 94.3782C164.956 96.0409 163.736 98.0608 163.022 100.278C162.07 103.607 161.336 110.964 166.342 112.388C171.349 113.813 181.302 113.577 183.914 112.152C186.527 110.728 189.856 108.351 190.8 105.503C191.744 102.654 193.657 95.0524 195.553 90.7795C197.449 86.5066 202.911 81.7533 200.542 75.3482C198.174 68.9431 182.001 61.5772 177.787 61.0968C175.551 60.8606 173.296 60.8691 171.062 61.1221Z" fill="#263238" stroke="#263238" stroke-width="0.552459" stroke-linecap="round" stroke-linejoin="round"/>
<path d="M179.134 85.6967C178.839 86.7754 178.241 87.5508 177.803 87.3822C177.364 87.2137 177.238 86.2866 177.533 85.2163C177.828 84.146 178.426 83.3706 178.873 83.5307C179.32 83.6909 179.429 84.6264 179.134 85.6967Z" fill="#263238"/>
<path d="M170.237 83.2122C169.942 84.2826 169.343 85.0579 168.896 84.8978C168.45 84.7377 168.332 83.8106 168.635 82.7319C168.939 81.6531 169.529 80.8862 169.967 81.0042C170.405 81.1222 170.531 82.1335 170.237 83.2122Z" fill="#263238"/>
<path d="M178.25 79.8988C178.25 79.8988 182.287 79.1909 183.239 83.6998" stroke="#263238" stroke-width="1.10492" stroke-linecap="round" stroke-linejoin="round"/>
<path d="M171.804 78.4747C171.804 78.4747 170.38 76.7891 167.768 78.2387" stroke="#263238" stroke-width="1.10492" stroke-linecap="round" stroke-linejoin="round"/>
<path d="M173.472 80.6162L172.52 85.597C172.52 85.597 166.621 90.5863 167.767 93.4349C168.913 96.2835 174.652 93.9068 174.652 93.9068" stroke="#263238" stroke-width="0.552459" stroke-linecap="round" stroke-linejoin="round"/>
<path d="M171.996 100.91C170.183 100.955 168.415 100.338 167.024 99.1741C166.838 98.9815 166.73 98.7262 166.723 98.4584C166.716 98.1905 166.809 97.9298 166.985 97.7276C167.161 97.5254 167.406 97.3964 167.672 97.3662C167.938 97.336 168.206 97.4067 168.423 97.5644C169.864 98.8201 172.072 99.1235 174.474 98.4071C174.744 98.3267 175.036 98.3569 175.284 98.4913C175.532 98.6256 175.717 98.853 175.797 99.1235C175.878 99.3939 175.847 99.6853 175.713 99.9334C175.579 100.182 175.351 100.366 175.081 100.447C174.08 100.747 173.041 100.904 171.996 100.91Z" fill="white" stroke="#263238" stroke-width="0.552459" stroke-linecap="round" stroke-linejoin="round"/>
<path d="M177.112 243.06C175.693 238.47 173.756 234.056 171.339 229.904C169.797 227.468 169.561 227.325 167.968 224.847L167.049 223.541L158.992 227.409C158.992 227.409 160.838 234.817 161.36 236.68C162.118 238.526 163.174 240.234 164.487 241.737L164.622 242.411L165.128 245.681C165.246 246.524 164.799 249.052 165.128 250.072C165.456 251.091 166.56 249.861 166.813 248.563C166.982 247.585 167.167 245.133 167.251 244.029L167.386 244.08C167.53 245.015 167.791 246.768 167.883 247.358C168.12 248.826 168.619 250.239 169.358 251.53C170.159 252.667 170.791 251.311 170.808 250.055C170.808 249.044 170.285 245.276 170.066 243.835H170.218C170.802 245.143 171.306 246.486 171.727 247.855C171.845 248.698 172.249 251.336 173.168 251.825C174.086 252.313 174.744 251.167 174.668 249.296C174.435 247.258 174.084 245.234 173.614 243.237H174.036C174.671 244.231 175.164 245.309 175.502 246.439C175.696 247.67 175.881 248.9 177.045 248.302C178.208 247.703 177.533 244.467 177.112 243.06Z" fill="white" stroke="#263238" stroke-width="0.552459" stroke-linecap="round" stroke-linejoin="round"/>
<path d="M143.309 126.285C143.309 126.285 138.083 127.971 136.659 132.463C135.235 136.955 133.558 184.715 134.872 188.583C136.187 192.452 158.807 229.163 158.807 229.163L168.002 224.882L149.739 183.653L153.523 142.652" fill="#4963A5"/>
<path d="M143.309 126.285C143.309 126.285 138.083 127.971 136.659 132.463C135.235 136.955 133.558 184.715 134.872 188.583C136.187 192.452 158.807 229.163 158.807 229.163L168.002 224.882L149.739 183.653L153.523 142.652" stroke="#263238" stroke-width="0.552459" stroke-linecap="round" stroke-linejoin="round"/>
<path d="M114.352 80.2706C114.352 80.2706 123.884 80.1947 128.072 85.3272C132.261 90.4598 126.463 97.7751 125.78 100.329C125.097 102.882 120.884 115.844 121.667 122.022C122.451 128.199 124.196 129.447 126.387 129.32C128.578 129.194 127.938 130.365 126.471 132.498C125.005 134.63 120.42 135.473 119.274 134.242C118.128 133.012 116.628 130.18 115.346 127.163C114.065 124.146 114.074 123.547 114.596 114.041C115.119 104.534 116.914 92.4909 116.231 89.2883C115.549 86.0857 114.352 80.2706 114.352 80.2706Z" fill="#263238" stroke="#263238" stroke-width="0.552459" stroke-linecap="round" stroke-linejoin="round"/>
<path d="M139.163 168.029C139.163 168.029 144.776 189.849 146.858 198.454C148.939 207.058 153.6 223.088 153.6 223.088C153.6 223.088 157.173 234.727 157.047 238.486C156.921 242.244 155.791 246.382 154.519 247.756C153.246 249.13 150.507 249.012 150.136 248.203C149.765 247.394 150.81 245.843 150.81 245.843C150.81 245.843 148.366 247.748 147.616 246.534C146.866 245.321 148.88 244.394 148.88 244.394C148.88 244.394 146.723 243.551 147.153 242.548C147.583 241.545 149.563 241.638 149.563 241.638C149.563 241.638 147.102 238.182 147.203 235.207C147.413 232.754 147.762 230.314 148.248 227.9C148.248 227.302 141.026 212.57 141.026 212.57C141.026 212.57 135.008 191.13 132.075 183.916C129.143 176.702 130.584 169.378 132.008 168.434C133.432 167.49 139.163 168.029 139.163 168.029Z" fill="white" stroke="#263238" stroke-width="0.552459" stroke-linecap="round" stroke-linejoin="round"/>
<path d="M152.68 231.591C152.68 231.591 150.767 235.501 151.837 238.333C152.907 241.165 153.523 242.159 153.464 242.951C153.405 243.744 151.728 247.452 151.685 248.649C151.643 249.845 153.447 249.298 154.492 247.747C155.537 246.196 156.708 246.828 156.868 242.075C156.863 238.7 156.375 235.342 155.419 232.105" fill="white"/>
<path d="M152.68 231.591C152.68 231.591 150.767 235.501 151.837 238.333C152.907 241.165 153.523 242.159 153.464 242.951C153.405 243.744 151.728 247.452 151.685 248.649C151.643 249.845 153.447 249.298 154.492 247.747C155.537 246.196 156.708 246.828 156.868 242.075C156.863 238.7 156.375 235.342 155.419 232.105" stroke="#263238" stroke-width="0.552459" stroke-linecap="round" stroke-linejoin="round"/>
<path d="M139.164 168.029C139.164 168.029 133.425 167.439 132.009 168.383C130.593 169.327 129.144 176.625 132.077 183.865C134.133 188.921 137.698 200.981 139.662 207.732L142.628 206.645L148.612 205.221C147.955 202.768 147.348 200.417 146.867 198.478C144.777 189.848 139.164 168.029 139.164 168.029Z" fill="#5E5E5E" stroke="#263238" stroke-width="0.552459" stroke-linecap="round" stroke-linejoin="round"/>
<path d="M140.165 219.364C140.165 219.364 144.202 224.842 138.943 247.175C133.684 269.509 127.06 282.749 125.18 288.311C122.874 295.18 120.016 301.852 116.634 308.26C113.036 314.884 99.8969 337.277 98.3546 341.128C97.2203 344.224 96.2691 347.385 95.506 350.593C95.506 350.593 97.1157 352.893 102.029 357.276C106.942 361.658 113.027 364.397 112.404 366.344C111.78 368.291 105.864 368.367 101.372 368.215C96.8797 368.063 92.2444 364.001 89.1852 363.024C86.1259 362.046 85.2494 362.889 85.2494 362.889L84.651 363.993L78.7516 362.67C78.343 360.528 78.4179 358.323 78.9707 356.214C79.9146 353.155 80.9934 352.084 83.2941 344.836C85.4938 337.884 90.2639 305.647 92.7248 299.267C95.1857 292.888 99.7115 283.76 101.574 278.763C103.437 273.765 106.808 257.019 105.35 250.218C103.892 243.417 93.0114 224.505 96.2139 221.243C99.4165 217.981 120.486 218.411 122.719 218.765C124.953 219.119 140.165 219.364 140.165 219.364Z" fill="#263238" stroke="#263238" stroke-width="0.552459" stroke-linecap="round" stroke-linejoin="round"/>
<path d="M102.029 357.267C97.116 352.884 95.5063 350.583 95.5063 350.583C95.5063 350.583 95.7339 349.614 96.1131 348.215C91.6274 348.294 87.1984 347.205 83.2607 345.055C81.019 352.092 79.9486 353.179 79.0469 356.205C78.494 358.313 78.4192 360.519 78.8277 362.66L84.7272 363.983L85.3255 362.879C85.3255 362.879 86.1683 362.037 89.2613 363.014C92.3543 363.992 96.9559 368.071 101.448 368.206C105.94 368.341 111.848 368.282 112.48 366.335C113.112 364.388 106.934 361.666 102.029 357.267Z" fill="white" stroke="#263238" stroke-width="0.552459" stroke-linecap="round" stroke-linejoin="round"/>
<path d="M103.345 358.395L100.749 361.767C95.5703 360.617 90.6085 358.649 86.0508 355.935C84.2016 354.819 82.288 353.815 80.32 352.926C79.8166 354.008 79.3804 355.119 79.0137 356.255C78.4608 358.363 78.386 360.569 78.7945 362.71L84.694 364.034L85.2923 362.93C85.2923 362.93 86.1351 362.087 89.2281 363.064C92.3211 364.042 96.9227 368.121 101.415 368.256C105.907 368.391 111.815 368.332 112.447 366.385C112.978 364.573 107.955 362.137 103.345 358.395Z" fill="#F87171" stroke="#263238" stroke-width="0.552459" stroke-linecap="round" stroke-linejoin="round"/>
<path d="M113.938 230.277C113.938 230.277 117.967 252.341 119.838 263.651C121.709 274.961 121.801 288.446 123.453 297.784C125.105 307.122 132.184 347.272 132.429 348.123C132.673 348.974 133.524 348.965 138.834 350.019C144.143 351.072 154.847 351.123 156.996 353.171C159.145 355.219 159.718 355.792 153.119 359.787C146.52 363.782 130.701 366.049 128.434 366.529C126.927 366.787 125.379 366.635 123.95 366.091C123.95 366.091 119.737 348.527 118.742 345.679C117.748 342.83 106.884 322.224 104.331 314.833C101.777 307.442 100.648 298.963 99.2739 289.642C97.9002 280.321 93.9138 273.722 93.1385 271.725C92.3631 269.728 78.0443 252.678 74.9597 244.141C71.8752 235.603 72.482 217.627 72.482 217.627L112.253 222.068" fill="#263238"/>
<path d="M113.938 230.277C113.938 230.277 117.967 252.341 119.838 263.651C121.709 274.961 121.801 288.446 123.453 297.784C125.105 307.122 132.184 347.272 132.429 348.123C132.673 348.974 133.524 348.966 138.834 350.019C144.143 351.072 154.847 351.123 156.996 353.171C159.145 355.219 159.718 355.792 153.119 359.787C146.52 363.782 130.701 366.049 128.434 366.529C126.927 366.787 125.379 366.635 123.95 366.091C123.95 366.091 119.737 348.527 118.742 345.679C117.748 342.83 106.884 322.224 104.331 314.833C101.777 307.442 100.648 298.963 99.2739 289.642C97.9002 280.321 93.9138 273.722 93.1385 271.725C92.3631 269.728 78.0443 252.678 74.9597 244.141C71.8752 235.603 72.482 217.627 72.482 217.627L112.253 222.068" stroke="#263238" stroke-width="0.552459" stroke-linecap="round" stroke-linejoin="round"/>
<path d="M156.995 353.17C154.82 351.122 144.134 351.046 138.833 350.018C133.532 348.99 132.681 348.973 132.428 348.122C132.428 348.046 132.344 347.726 132.242 347.178C129.621 348.863 125.054 351.341 120.494 352.032C122.045 358.109 123.95 366.098 123.95 366.098C125.378 366.643 126.926 366.794 128.433 366.536C130.7 366.048 146.519 363.772 153.118 359.794C159.717 355.816 159.178 355.209 156.995 353.17Z" fill="white" stroke="#263238" stroke-width="0.552459" stroke-linecap="round" stroke-linejoin="round"/>
<path d="M156.996 353.171C155.218 351.485 147.793 351.14 142.239 350.508L143.082 357.191C143.082 357.191 130.339 360.562 122.645 360.731C123.395 363.798 123.942 366.099 123.942 366.099L124.785 368.628C125.645 368.72 126.513 368.72 127.373 368.628C129.074 368.291 130.743 367.809 132.362 367.186L132.05 365.922C137.705 364.911 148.063 362.863 153.119 359.821C159.71 355.792 159.179 355.211 156.996 353.171Z" fill="#F87171" stroke="#263238" stroke-width="0.552459" stroke-linecap="round" stroke-linejoin="round"/>
<path d="M116.079 81.9158C116.079 81.9158 121.607 88.658 122.897 91.6752C124.186 94.6923 123.74 96.6644 124.852 98.291C125.964 99.9176 129.175 99.6226 129.108 101.612C129.041 103.601 127.599 105.126 127.38 105.716C127.161 106.306 128.543 112.306 128.636 115.484C128.729 118.661 127.271 120.793 125.063 121.316C122.855 121.838 119.062 122.698 119.062 122.698C119.062 122.698 117.478 134.353 118.986 136.789C120.495 139.225 125.214 140.371 125.214 140.371C125.214 140.371 136.112 140.944 138.699 147.771C141.286 154.597 139.373 168.84 139.432 173.003C139.491 177.167 138.025 179.307 141.05 189.53C144.076 199.753 149.916 220.789 149.916 220.789L139.676 224.21C139.676 224.21 122.475 228.188 111.191 227.413C99.9058 226.638 80.5809 222.997 75.4736 221.64C70.3664 220.283 70.6192 218.496 70.6192 218.496C70.6192 218.496 78.4065 193.559 79.1482 183.462C79.8898 173.366 76.6198 159.165 75.5832 153.771C74.5466 148.377 76.2658 139.705 79.2746 138.601C82.2833 137.497 91.8572 136.25 92.4556 136.267C93.054 136.283 100.69 127.417 99.6192 124.004C98.5489 120.591 97.7398 103.306 99.2063 95.021C100.673 86.7365 106.665 78.6206 116.079 81.9158Z" fill="white" stroke="#263238" stroke-width="0.552459" stroke-linecap="round" stroke-linejoin="round"/>
<path d="M119.062 122.696L112.783 123.783L118.405 126.084L119.062 122.696Z" fill="#263238" stroke="#263238" stroke-width="0.552459" stroke-linecap="round" stroke-linejoin="round"/>
<path d="M122.106 99.3782C122.384 100.718 122.106 101.907 121.482 102.041C120.859 102.176 120.134 101.199 119.856 99.8333C119.578 98.468 119.856 97.3049 120.488 97.1701C121.12 97.0353 121.836 98.0634 122.106 99.3782Z" fill="#263238"/>
<path d="M117.613 95.2641C117.613 95.2641 118.321 92.1122 121.625 94.0084" stroke="#263238" stroke-width="0.552459" stroke-linecap="round" stroke-linejoin="round"/>
<path d="M125.854 109.633C125.162 110.05 124.343 110.205 123.546 110.069C122.749 109.933 122.028 109.515 121.514 108.892" stroke="#263238" stroke-width="0.552459" stroke-linecap="round" stroke-linejoin="round"/>
<path d="M141.008 189.554C137.983 179.331 139.449 177.19 139.39 173.027C139.39 170.347 140.106 163.512 139.98 157.157C138.168 155.388 136.297 154.528 134.443 155C124.835 157.452 96.9224 155.514 96.9224 155.514L76.2744 157.36C77.606 164.026 79.7298 175.134 79.123 183.486C78.3813 193.599 70.594 218.52 70.594 218.52C70.594 218.52 70.3328 220.298 75.4484 221.664C80.5641 223.029 99.889 226.653 111.165 227.437C122.442 228.221 139.651 224.234 139.651 224.234L149.891 220.813C149.891 220.813 144.042 199.751 141.008 189.554Z" fill="white" stroke="#263238" stroke-width="0.552459" stroke-linecap="round" stroke-linejoin="round"/>
<path d="M132.075 183.865L117.268 191.905" stroke="#263238" stroke-width="0.552459" stroke-linecap="round" stroke-linejoin="round"/>
<path d="M111.301 190.33L121.035 185.939" stroke="#263238" stroke-width="0.552459" stroke-linecap="round" stroke-linejoin="round"/>
<path d="M103.978 210.7C105.925 200.047 108.723 176.146 105.604 162.729C102.832 150.795 93.8054 138.819 91.8164 136.333C89.5662 136.569 81.8801 137.656 79.2338 138.617C76.225 139.704 74.5395 148.376 75.5424 153.787C76.5453 159.198 79.8406 173.382 79.1073 183.478C78.3741 193.574 70.5784 218.512 70.5784 218.512C70.5784 218.512 70.3172 220.291 75.4328 221.656C79.2169 222.659 90.8135 224.917 101.154 226.333C101.753 222.937 102.781 217.273 103.978 210.7Z" fill="#5E5E5E" stroke="#263238" stroke-width="0.552459" stroke-linecap="round" stroke-linejoin="round"/>
<path d="M133.769 186.696L141.253 223.669L149.875 220.787C149.875 220.787 144.043 199.717 141.009 189.528C137.975 179.339 139.45 177.164 139.391 173.001C139.332 168.838 141.203 154.603 138.657 147.768C136.112 140.933 125.173 140.369 125.173 140.369C125.173 140.369 124.726 140.259 124.061 140.04C126.479 144.591 133.651 158.202 136.07 164.354C138.995 171.796 140.124 173.625 137.756 178.302C135.387 182.98 133.769 186.696 133.769 186.696Z" fill="#5E5E5E" stroke="#010B25" stroke-width="0.552459" stroke-linecap="round" stroke-linejoin="round"/>
<path d="M87.8379 136.526C87.8379 136.526 96.3837 150.609 98.1872 155.843C99.9907 161.076 101.98 164.405 102.174 170.364C102.367 176.322 97.3444 195.647 97.3444 195.647L100.918 195.765C100.918 195.765 105.612 168.341 105.326 165.155C105.039 161.97 94.6307 141.178 93.6952 139.358C93.1838 138.39 92.7552 137.381 92.4142 136.341L87.8379 136.526Z" fill="#F87171" stroke="#263238" stroke-width="0.552459" stroke-linecap="round" stroke-linejoin="round"/>
<path d="M72.4739 191.771C72.4739 191.771 100.378 193.904 100.977 193.929C101.575 193.954 106.092 230.413 106.775 233.615C107.458 236.818 103.918 241.849 97.7067 243.425C91.4954 245.001 73.5443 242.009 66.0772 239.97C58.6102 237.93 51.9354 235.756 53.6041 227.244C55.2728 218.732 60.7003 193.752 60.7425 192.361C60.7846 190.971 72.4739 191.771 72.4739 191.771Z" fill="#F87171" stroke="#263238" stroke-width="0.552459" stroke-linecap="round" stroke-linejoin="round"/>
<path d="M95.1179 241.705C94.3785 241.966 93.6125 242.144 92.834 242.236" stroke="#263238" stroke-width="0.552459" stroke-linecap="round" stroke-linejoin="round"/>
<path d="M97.3438 195.589C97.3438 195.589 100.496 230.817 99.4675 234.972C98.9197 237.197 98.5152 238.925 97.4786 240.147" stroke="#263238" stroke-width="0.552459" stroke-linecap="round" stroke-linejoin="round"/>
<path d="M92.8086 204.606L95.4212 204.868" stroke="#263238" stroke-width="0.552459" stroke-linecap="round" stroke-linejoin="round"/>
<path d="M62.0488 201.53L88.3941 204.168" stroke="#263238" stroke-width="0.552459" stroke-linecap="round" stroke-linejoin="round"/>
<path d="M62.6309 203.754L73.3847 205.001" stroke="#263238" stroke-width="0.552459" stroke-linecap="round" stroke-linejoin="round"/>
<path d="M85.1738 138.986C85.1738 138.986 78.0692 137.756 71.8158 140.722C65.5624 143.689 66.3461 155.842 64.5763 161.135C62.8065 166.427 57.3537 181.125 56.2244 185.263C55.0951 189.401 60.7332 192.562 65.3095 192.317C69.8858 192.073 74.2261 192.621 75.8611 185.533C77.4961 178.445 83.7664 157.022 83.7664 157.022" fill="#5E5E5E"/>
<path d="M85.1738 138.986C85.1738 138.986 78.0692 137.756 71.8158 140.722C65.5624 143.689 66.3461 155.842 64.5763 161.135C62.8065 166.427 57.3537 181.125 56.2244 185.263C55.0951 189.401 60.7332 192.562 65.3095 192.317C69.8858 192.073 74.2261 192.621 75.8611 185.533C77.4961 178.445 83.7664 157.022 83.7664 157.022" stroke="#010B25" stroke-width="0.552459" stroke-linecap="round" stroke-linejoin="round"/>
<path d="M93.1981 171.638C93.1981 171.638 96.3754 165.789 97.412 164.053C98.4486 162.317 100.842 162.367 102.047 162.03C103.252 161.693 106.025 161.769 105.595 162.746C105.19 163.457 104.61 164.052 103.91 164.474C103.91 164.474 108.259 164.82 109.649 164.87C111.04 164.921 110.593 166.286 110.955 167.297C111.318 168.309 109.919 168.646 109.683 169.632C109.377 171.373 108.923 173.084 108.326 174.748C107.677 176.113 102.696 176.939 100.682 177.664C98.6677 178.388 95.6759 179.079 95.6759 179.079C95.6759 179.079 84.4669 185.822 77.6404 189.977C69.9458 194.679 62.7232 197.014 59.5628 196.508C56.4024 196.002 53.9836 191.165 55.1635 185.839C56.1411 181.406 58.8886 177.967 71.7073 177.672C78.6602 177.512 86.8773 175.986 89.0685 174.882C90.6177 174.041 92.0138 172.944 93.1981 171.638Z" fill="white" stroke="#263238" stroke-width="0.552459" stroke-linecap="round" stroke-linejoin="round"/>
<path d="M73.0475 186.629C72.3716 185.226 72.0087 183.693 71.984 182.136C71.9592 180.579 72.2732 179.035 72.9042 177.611H71.758C58.9394 177.906 56.1919 181.345 55.2143 185.778C54.0344 191.104 56.4532 195.942 59.6136 196.447C62.5465 196.919 69.0106 194.93 76.0899 190.86C74.8232 189.65 73.7916 188.215 73.0475 186.629Z" fill="#5E5E5E" stroke="#263238" stroke-width="0.552459" stroke-linecap="round" stroke-linejoin="round"/>
<path d="M116.08 81.9146C116.08 81.9146 116.847 94.4467 112.709 105.816C108.571 117.185 104.829 121.618 106.868 126.042C108.908 130.467 112.245 131.183 112.245 131.183C112.245 131.183 112.818 132.026 111.403 133.931C109.987 135.836 104.761 136.678 104.761 136.678C104.945 137.943 104.832 139.232 104.433 140.446C103.775 142.401 99.5362 144.44 99.5362 144.44C99.3527 143.496 99.1192 142.562 98.8367 141.642C98.3753 140.294 97.7528 139.007 96.9826 137.808C96.4426 138.987 95.6651 140.043 94.6987 140.909C93.266 142.047 86.1192 142.199 83.397 140.521C80.6749 138.844 79.4191 135.026 79.4191 135.026C79.4191 135.026 82.1666 135.92 82.7902 133.956C83.4139 131.992 82.9419 129.397 79.1663 123.708C75.3906 118.019 75.0367 99.1663 81.9138 89.4743C88.7908 79.7824 106.354 76.8327 110.518 76.9506C111.899 76.9272 113.239 77.4251 114.269 78.345C115.3 79.265 115.947 80.5394 116.08 81.9146Z" fill="#263238" stroke="#263238" stroke-width="0.552459" stroke-linecap="round" stroke-linejoin="round"/>
</svg>
