<svg width="40" height="40" viewBox="0 0 40 40" fill="none" xmlns="http://www.w3.org/2000/svg">
<g clip-path="url(#clip0_2354_14479)">
<path opacity="0.97" d="M3.125 5.49744V33.8174C3.125 36.1646 5.02779 38.0674 7.375 38.0674H27.375C29.7222 38.0674 31.625 36.1646 31.625 33.8174V10.3267C31.625 9.21075 31.1861 8.13959 30.4031 7.34451L25.647 2.51526C24.8482 1.70416 23.7573 1.24744 22.6189 1.24744H7.375C5.02779 1.24744 3.125 3.15023 3.125 5.49744Z" fill="#78C8F0" stroke="#141212" stroke-width="2.5"/>
<path fill-rule="evenodd" clip-rule="evenodd" d="M23.125 2.49756V8.74756H29.375" fill="#4BBFEB"/>
<path d="M6.875 8.12256H20.625M6.875 11.8726H24.375M6.875 15.6226H15.625H24.375" stroke="white" stroke-width="1.5"/>
<path opacity="0.15" d="M35.4409 11.4275C35.6156 11.6014 35.7542 11.808 35.8488 12.0356C35.9434 12.2632 35.9921 12.5072 35.9921 12.7536C35.9921 13.0001 35.9434 13.2443 35.8488 13.4719C35.7542 13.6995 35.6156 13.9061 35.4409 14.0799L34.1159 15.405L14.6697 34.8513L9.36719 36.6187L34.9997 10.9862L35.4409 11.4275Z" fill="black"/>
<path opacity="0.15" d="M34.5572 10.5437C34.3833 10.3692 34.1767 10.2308 33.9493 10.1363C33.7218 10.0418 33.4779 9.99316 33.2316 9.99316C32.9852 9.99316 32.7413 10.0418 32.5139 10.1363C32.2864 10.2308 32.0798 10.3692 31.9059 10.5437L30.5809 11.87L11.1347 31.3149L9.36719 36.6187L34.9997 10.9862L34.5572 10.5437Z" fill="black"/>
<path d="M31.4648 12.7537L35.0004 16.2892L15.5549 35.7346L12.0194 32.1991L31.4648 12.7537Z" fill="#DA0025"/>
<path d="M12.0175 32.1987L15.5525 35.7349L10.25 37.5025L12.0175 32.1987ZM31.4625 12.7536L32.7875 11.4287C32.9614 11.254 33.168 11.1154 33.3956 11.0208C33.6232 10.9263 33.8673 10.8776 34.1137 10.8776C34.3602 10.8776 34.6043 10.9263 34.8319 11.0208C35.0595 11.1154 35.2661 11.254 35.44 11.4287L36.3238 12.3113C36.4984 12.4852 36.637 12.6917 36.7316 12.9193C36.8262 13.1469 36.8749 13.391 36.8749 13.6374C36.8749 13.8839 36.8262 14.1279 36.7316 14.3555C36.637 14.5831 36.4984 14.7898 36.3238 14.9637L34.9987 16.2886L31.4625 12.7536Z" fill="#E9EDED"/>
<path d="M13.7852 33.9675L33.2302 14.5212" stroke="white"/>
<path d="M10.6913 36.1763L10.25 37.5026L11.575 37.0601L10.6913 36.1763Z" fill="#637E9A"/>
<path d="M31.4609 12.7545L34.9965 16.2901L34.1126 17.1739L30.5771 13.6384L31.4609 12.7545Z" fill="#34485C"/>
</g>
<defs>
<clipPath id="clip0_2354_14479">
<rect width="40" height="40" fill="white"/>
</clipPath>
</defs>
</svg>
