<svg width="33" height="32" viewBox="0 0 33 32" fill="none" xmlns="http://www.w3.org/2000/svg">
<g id="calendar" clip-path="url(#clip0_4111_19469)">
<g id="flat">
<path id="Vector" d="M13.5 6H7.5C6.9 6 6.5 5.6 6.5 5V3C6.5 1.4 7.9 0 9.5 0H11.5C13.1 0 14.5 1.4 14.5 3V5C14.5 5.6 14.1 6 13.5 6ZM25.5 6H19.5C18.9 6 18.5 5.6 18.5 5V3C18.5 1.4 19.9 0 21.5 0H23.5C25.1 0 26.5 1.4 26.5 3V5C26.5 5.6 26.1 6 25.5 6Z" fill="#5B5C5F"/>
<path id="Vector_2" d="M23.5004 0H21.5004C21.3004 0 21.1004 0 20.9004 0C22.3004 0.2 23.5004 1.4 23.5004 3V6H25.5004C26.1004 6 26.5004 5.6 26.5004 5V3C26.5004 1.4 25.1004 0 23.5004 0Z" fill="#212121"/>
<path id="Vector_3" d="M29.5 32H3.5C1.9 32 0.5 30.6 0.5 29V12H32.5V29C32.5 30.6 31.1 32 29.5 32Z" fill="#F0F0F0"/>
<path id="Vector_4" d="M32.5 12H0.5V7C0.5 5.4 1.9 4 3.5 4H29.5C31.1 4 32.5 5.4 32.5 7V12Z" fill="#F71E1E"/>
<path id="Vector_5" d="M29.5008 12V25C29.5008 28 27.7008 30.6 25.3008 32H29.5008C31.1008 32 32.5008 30.6 32.5008 29V12H29.5008Z" fill="#CFD3D4"/>
<path id="Vector_6" d="M29.5008 11V12H32.5008V7C32.5008 5.4 31.1008 4 29.5008 4H25.3008C27.7008 5.4 29.5008 8 29.5008 11Z" fill="#D80303"/>
</g>
</g>
<defs>
<clipPath id="clip0_4111_19469">
<rect width="32" height="32" fill="white" transform="translate(0.5)"/>
</clipPath>
</defs>
</svg>
