<svg width="21" height="21" viewBox="0 0 21 21" fill="none" xmlns="http://www.w3.org/2000/svg">
<g clip-path="url(#clip0_1847_12368)">
<path d="M18.2848 3.80957H2.72928C2.43459 3.80957 2.15197 3.92663 1.9436 4.13501C1.73523 4.34338 1.61816 4.626 1.61816 4.92068V16.0318C1.61816 16.3265 1.73523 16.6091 1.9436 16.8175C2.15197 17.0258 2.43459 17.1429 2.72928 17.1429H18.2848C18.5795 17.1429 18.8621 17.0258 19.0705 16.8175C19.2789 16.6091 19.3959 16.3265 19.3959 16.0318V4.92068C19.3959 4.626 19.2789 4.34338 19.0705 4.13501C18.8621 3.92663 18.5795 3.80957 18.2848 3.80957ZM17.4293 16.0318H3.6515L7.54039 12.0096L6.74039 11.2373L2.72928 15.3873V5.76513L9.63483 12.6373C9.84301 12.8443 10.1246 12.9605 10.4182 12.9605C10.7117 12.9605 10.9933 12.8443 11.2015 12.6373L18.2848 5.5929V15.3151L14.1959 11.2262L13.4126 12.0096L17.4293 16.0318ZM3.45705 4.92068H17.3848L10.4182 11.8485L3.45705 4.92068Z" fill="black"/>
</g>
<defs>
<clipPath id="clip0_1847_12368">
<rect width="20" height="20" fill="white" transform="translate(0.506836 0.476196)"/>
</clipPath>
</defs>
</svg>
