<svg width="41" height="40" viewBox="0 0 41 40" fill="none" xmlns="http://www.w3.org/2000/svg">
<g id="Coins">
<path id="Vector" d="M12.002 11.75C17.5248 11.75 22.002 10.5188 22.002 9C22.002 7.48122 17.5248 6.25 12.002 6.25C6.47911 6.25 2.00195 7.48122 2.00195 9C2.00195 10.5188 6.47911 11.75 12.002 11.75Z" fill="#FFF27D"/>
<path id="Vector_2" d="M20.752 7.65002C20.7698 7.73661 20.7698 7.82594 20.752 7.91252C20.752 9.41252 16.277 10.6625 10.752 10.6625C7.76991 10.786 4.79367 10.3056 2.00195 9.25002C2.46445 10.65 6.73945 11.75 12.002 11.75C17.527 11.75 22.002 10.5 22.002 9.00002C22.002 8.51252 21.527 8.05002 20.752 7.65002Z" fill="#F7E76F"/>
<path id="Vector_3" d="M22.002 9V16.325C22.002 17.85 17.527 19.075 12.002 19.075C6.47695 19.075 2.00195 17.825 2.00195 16.325V9C2.00195 10.5125 6.47695 11.75 12.002 11.75C17.527 11.75 22.002 10.5125 22.002 9Z" fill="#FFC661"/>
<path id="Vector_4" d="M12.627 18.0625C7.10195 18.0625 2.62695 16.8125 2.62695 15.3125V10C2.44854 9.89761 2.29814 9.75277 2.18912 9.57833C2.08009 9.40389 2.0158 9.20524 2.00195 9V16.325C2.00195 17.85 6.47695 19.075 12.002 19.075C17.527 19.075 22.002 17.825 22.002 16.325V16.25C20.5895 17.3125 17.002 18.0625 12.627 18.0625Z" fill="#F7B54B"/>
<path id="Vector_5" d="M22.002 16.325V23.675C22.002 25.1875 17.527 26.425 12.002 26.425C6.47695 26.425 2.00195 25.175 2.00195 23.675V16.325C2.00195 17.85 6.47695 19.075 12.002 19.075C17.527 19.075 22.002 17.85 22.002 16.325Z" fill="#FFF27D"/>
<path id="Vector_6" d="M12.627 25.4C7.10195 25.4 2.62695 24.15 2.62695 22.65V17.2875C2.45508 17.1899 2.30882 17.0529 2.20017 16.8877C2.09152 16.7226 2.02359 16.534 2.00195 16.3375V23.675C2.00195 25.2 6.47695 26.425 12.002 26.425C17.527 26.425 22.002 25.175 22.002 23.675V23.6125C20.5895 24.6625 17.002 25.4 12.627 25.4Z" fill="#F7E76F"/>
<path id="Vector_7" d="M22.002 23.675V31C22.002 32.5 17.527 33.75 12.002 33.75C6.47695 33.75 2.00195 32.5 2.00195 31V23.675C2.00195 25.1875 6.47695 26.425 12.002 26.425C17.527 26.425 22.002 25.1875 22.002 23.675Z" fill="#FFC661"/>
<path id="Vector_8" d="M12.627 32.7375C7.10195 32.7375 2.62695 31.4875 2.62695 29.9875V24.625C2.45508 24.5274 2.30882 24.3904 2.20017 24.2252C2.09152 24.0601 2.02359 23.8715 2.00195 23.675V31C2.00195 32.5 6.47695 33.75 12.002 33.75C17.527 33.75 22.002 32.5 22.002 31V30.9375C20.5895 31.9875 17.002 32.7375 12.627 32.7375Z" fill="#F7B54B"/>
<path id="Vector_9" d="M28.252 33.75C34.4652 33.75 39.502 28.7132 39.502 22.5C39.502 16.2868 34.4652 11.25 28.252 11.25C22.0387 11.25 17.002 16.2868 17.002 22.5C17.002 28.7132 22.0387 33.75 28.252 33.75Z" fill="#FFC661"/>
<path id="Vector_10" d="M29.6143 32.625C27.3733 32.6211 25.1845 31.948 23.3286 30.6919C21.4727 29.4359 20.0342 27.6542 19.1975 25.5753C18.3608 23.4963 18.1641 21.2148 18.6325 19.0234C19.101 16.8319 20.2133 14.8302 21.8268 13.275C20.5343 14.1534 19.439 15.2915 18.6107 16.6166C17.7824 17.9417 17.2393 19.4249 17.0159 20.9716C16.7925 22.5182 16.8939 24.0945 17.3134 25.5998C17.7329 27.1052 18.4615 28.5066 19.4526 29.7148C20.4437 30.923 21.6757 31.9114 23.07 32.6171C24.4643 33.3228 25.9903 33.7303 27.5508 33.8136C29.1113 33.8969 30.672 33.6541 32.1335 33.1008C33.595 32.5476 34.9252 31.6959 36.0393 30.6C34.1569 31.9198 31.9133 32.627 29.6143 32.625Z" fill="#F7B54B"/>
<path id="Vector_11" d="M28.252 30C32.3941 30 35.752 26.6421 35.752 22.5C35.752 18.3579 32.3941 15 28.252 15C24.1098 15 20.752 18.3579 20.752 22.5C20.752 26.6421 24.1098 30 28.252 30Z" fill="#FFF27D"/>
<path id="Vector_12" d="M29.5015 28.75C28.1044 28.7477 26.7357 28.3552 25.5496 27.6168C24.3636 26.8783 23.4074 25.8233 22.7888 24.5705C22.1702 23.3178 21.9139 21.9172 22.0486 20.5266C22.1834 19.1359 22.7039 17.8106 23.5515 16.7C22.7158 17.3616 22.0308 18.1937 21.542 19.1409C21.0533 20.0882 20.772 21.1287 20.717 22.1931C20.662 23.2576 20.8345 24.3215 21.2231 25.3141C21.6116 26.3066 22.2073 27.2049 22.9703 27.9492C23.7333 28.6934 24.6462 29.2664 25.6482 29.6301C26.6501 29.9937 27.718 30.1397 28.7808 30.0581C29.8435 29.9766 30.8767 29.6695 31.8114 29.1572C32.7461 28.645 33.5609 27.9394 34.2015 27.0875C32.8702 28.1613 31.2119 28.7479 29.5015 28.75Z" fill="#F7E76F"/>
</g>
</svg>
