<svg width="40" height="40" viewBox="0 0 40 40" fill="none" xmlns="http://www.w3.org/2000/svg">
<g id="database">
<path id="Vector" d="M18.8244 23.9828C14.8812 23.9828 11.1618 23.5189 8.35156 22.6764C6.12054 22.0076 3.46094 20.7793 3.46094 18.7257C3.46094 18.2118 3.87768 17.7952 4.39149 17.7952C4.90546 17.7952 5.32205 18.2118 5.32205 18.7257C5.32205 19.2553 6.43738 20.1597 8.88608 20.8937C11.5277 21.6856 15.0572 22.1217 18.8244 22.1217C22.4485 22.1217 25.8821 21.7136 28.4927 20.9725C28.987 20.8321 29.5017 21.1191 29.642 21.6135C29.7825 22.1079 29.4954 22.6224 29.0011 22.7628C26.2298 23.5496 22.6156 23.9828 18.8244 23.9828Z" fill="#001F6D"/>
<path id="Vector_2" d="M29.3268 4.20359C26.5076 3.35849 22.7784 2.89307 18.826 2.89307C14.8736 2.89307 11.1444 3.35849 8.32509 4.20359C6.06242 4.88192 3.36493 6.13415 3.36493 8.24778C3.36493 8.30339 3.36783 8.35803 3.37163 8.41245C3.35622 8.4831 3.34766 8.55628 3.34766 8.63154V29.2035C3.34766 29.2895 3.35927 29.3726 3.37922 29.4524C3.58134 31.4159 6.15287 32.5966 8.32516 33.2478C11.1443 34.093 14.8737 34.5583 18.8261 34.5583C22.7785 34.5583 26.5077 34.0929 29.3268 33.2478C31.5896 32.5695 34.287 31.3172 34.287 29.2037V8.24778C34.2869 6.13415 31.5896 4.88192 29.3268 4.20359ZM28.7363 31.2781C26.1034 32.0674 22.5838 32.502 18.826 32.502C15.068 32.502 11.5485 32.0673 8.91558 31.2781C6.35186 30.5096 5.42123 29.6165 5.42123 29.2037C5.42123 29.1407 5.41468 29.0793 5.40396 29.0195V11.069C6.29074 11.599 7.34837 11.999 8.32516 12.2919C11.1443 13.137 14.8737 13.6024 18.8261 13.6024C18.8262 13.6024 18.8262 13.6024 18.8265 13.6024C22.4874 13.6024 26.0117 13.1954 28.7494 12.4562C29.2977 12.3082 29.6222 11.7438 29.4741 11.1956C29.3262 10.6474 28.7619 10.3229 28.2134 10.471C25.6453 11.1643 22.3114 11.5461 18.826 11.5461C15.068 11.5461 11.5485 11.1114 8.91558 10.3223C6.35186 9.55369 5.42123 8.66058 5.42123 8.24778C5.42123 7.83499 6.35194 6.94188 8.91558 6.17331C11.5485 5.38405 15.068 4.94937 18.826 4.94937C22.5839 4.94937 26.1034 5.38405 28.7363 6.17331C31.3001 6.94188 32.2306 7.83499 32.2306 8.24778V29.2037C32.2306 29.6165 31.3001 30.5096 28.7363 31.2781Z" fill="#001F6D"/>
<path id="Vector_3" d="M28.0514 18.3455C28.7571 18.3455 29.3293 17.7734 29.3293 17.0676C29.3293 16.3618 28.7571 15.7897 28.0514 15.7897C27.3456 15.7897 26.7734 16.3618 26.7734 17.0676C26.7734 17.7734 27.3456 18.3455 28.0514 18.3455Z" fill="#DA0025"/>
<path id="Vector_4" d="M28.0514 28.3506C28.7571 28.3506 29.3293 27.7785 29.3293 27.0727C29.3293 26.3669 28.7571 25.7948 28.0514 25.7948C27.3456 25.7948 26.7734 26.3669 26.7734 27.0727C26.7734 27.7785 27.3456 28.3506 28.0514 28.3506Z" fill="#DA0025"/>
</g>
</svg>
