<svg width="20" height="21" viewBox="0 0 20 21" fill="none" xmlns="http://www.w3.org/2000/svg">
<g id="vuesax/linear/eye-slash">
<g id="vuesax/linear/eye-slash_2">
<g id="eye-slash">
<path id="Vector" d="M12.1083 8.38452L7.89166 12.6012C7.35 12.0595 7.01666 11.3179 7.01666 10.4929C7.01666 8.84285 8.35 7.50952 10 7.50952C10.825 7.50952 11.5667 7.84286 12.1083 8.38452Z" stroke="#667085" stroke-width="1.5" stroke-linecap="round" stroke-linejoin="round"/>
<path id="Vector_2" d="M14.85 5.30132C13.3917 4.20132 11.725 3.60132 10 3.60132C7.05834 3.60132 4.31667 5.33465 2.40834 8.33465C1.65834 9.50965 1.65834 11.4847 2.40834 12.6597C3.06667 13.693 3.83334 14.5847 4.66667 15.3013" stroke="#667085" stroke-width="1.5" stroke-linecap="round" stroke-linejoin="round"/>
<path id="Vector_3" d="M7.01666 16.768C7.96666 17.168 8.975 17.3847 10 17.3847C12.9417 17.3847 15.6833 15.6513 17.5917 12.6513C18.3417 11.4763 18.3417 9.50132 17.5917 8.32632C17.3167 7.89298 17.0167 7.48465 16.7083 7.10132" stroke="#667085" stroke-width="1.5" stroke-linecap="round" stroke-linejoin="round"/>
<path id="Vector_4" d="M12.925 11.0762C12.7083 12.2512 11.75 13.2095 10.575 13.4262" stroke="#667085" stroke-width="1.5" stroke-linecap="round" stroke-linejoin="round"/>
<path id="Vector_5" d="M7.89167 12.6013L1.66667 18.8263" stroke="#667085" stroke-width="1.5" stroke-linecap="round" stroke-linejoin="round"/>
<path id="Vector_6" d="M18.3333 2.15967L12.1083 8.38467" stroke="#667085" stroke-width="1.5" stroke-linecap="round" stroke-linejoin="round"/>
</g>
</g>
</g>
</svg>
