<svg width="24" height="25" viewBox="0 0 24 25" fill="none" xmlns="http://www.w3.org/2000/svg">
<path d="M21.8055 10.5344H21V10.4929H12V14.4929H17.6515C16.827 16.8214 14.6115 18.4929 12 18.4929C8.6865 18.4929 6 15.8064 6 12.4929C6 9.17942 8.6865 6.49292 12 6.49292C13.5295 6.49292 14.921 7.06992 15.9805 8.01242L18.809 5.18392C17.023 3.51942 14.634 2.49292 12 2.49292C6.4775 2.49292 2 6.97042 2 12.4929C2 18.0154 6.4775 22.4929 12 22.4929C17.5225 22.4929 22 18.0154 22 12.4929C22 11.8224 21.931 11.1679 21.8055 10.5344Z" fill="#FFC107"/>
<path d="M3.15295 7.83842L6.43845 10.2479C7.32745 8.04692 9.48045 6.49292 12 6.49292C13.5295 6.49292 14.921 7.06992 15.9805 8.01242L18.809 5.18392C17.023 3.51942 14.634 2.49292 12 2.49292C8.15895 2.49292 4.82795 4.66142 3.15295 7.83842Z" fill="#FF3D00"/>
<path d="M12 22.4929C14.583 22.4929 16.93 21.5044 18.7045 19.8969L15.6095 17.2779C14.5718 18.0671 13.3038 18.4939 12 18.4929C9.39903 18.4929 7.19053 16.8344 6.35853 14.5199L3.09753 17.0324C4.75253 20.2709 8.11353 22.4929 12 22.4929Z" fill="#4CAF50"/>
<path d="M21.8055 10.5344H21V10.4929H12V14.4929H17.6515C17.2571 15.6011 16.5467 16.5695 15.608 17.2784L15.6095 17.2774L18.7045 19.8964C18.4855 20.0954 22 17.4929 22 12.4929C22 11.8224 21.931 11.1679 21.8055 10.5344Z" fill="#1976D2"/>
</svg>
