<svg width="28" height="28" viewBox="0 0 28 28" fill="none" xmlns="http://www.w3.org/2000/svg">
<g id="ph:video-light">
<path id="Vector" d="M17.9261 12.0088L12.8456 8.01793C12.7499 7.94269 12.6387 7.8995 12.5238 7.89297C12.4088 7.88644 12.2946 7.91681 12.1932 7.98084C12.0918 8.04487 12.007 8.14016 11.948 8.25652C11.889 8.37288 11.8579 8.50594 11.8581 8.6415V16.6232C11.8579 16.7588 11.889 16.8919 11.948 17.0082C12.007 17.1246 12.0918 17.2199 12.1932 17.2839C12.2946 17.3479 12.4088 17.3783 12.5238 17.3718C12.6387 17.3652 12.7499 17.322 12.8456 17.2468L17.9261 13.2559C18.0134 13.1877 18.0851 13.095 18.1346 12.9862C18.1842 12.8774 18.2101 12.7559 18.2101 12.6324C18.2101 12.5089 18.1842 12.3873 18.1346 12.2785C18.0851 12.1697 18.0134 12.0771 17.9261 12.0088ZM13.1282 15.2252V10.0396L16.4284 12.6324L13.1282 15.2252ZM23.5009 3.90234H4.87243C4.47943 3.90234 4.10253 4.0863 3.82464 4.41374C3.54674 4.74118 3.39063 5.18528 3.39062 5.64835V19.6164C3.39062 20.0795 3.54674 20.5236 3.82464 20.851C4.10253 21.1784 4.47943 21.3624 4.87243 21.3624H23.5009C23.8939 21.3624 24.2708 21.1784 24.5487 20.851C24.8266 20.5236 24.9827 20.0795 24.9827 19.6164V5.64835C24.9827 5.18528 24.8266 4.74118 24.5487 4.41374C24.2708 4.0863 23.8939 3.90234 23.5009 3.90234ZM23.7126 19.6164C23.7126 19.6825 23.6903 19.746 23.6506 19.7928C23.6109 19.8395 23.557 19.8658 23.5009 19.8658H4.87243C4.81629 19.8658 4.76245 19.8395 4.72275 19.7928C4.68305 19.746 4.66075 19.6825 4.66075 19.6164V5.64835C4.66075 5.5822 4.68305 5.51875 4.72275 5.47198C4.76245 5.4252 4.81629 5.39892 4.87243 5.39892H23.5009C23.557 5.39892 23.6109 5.4252 23.6506 5.47198C23.6903 5.51875 23.7126 5.5822 23.7126 5.64835V19.6164ZM24.9827 24.605C24.9827 24.8034 24.9158 24.9938 24.7967 25.1341C24.6776 25.2744 24.516 25.3533 24.3476 25.3533H4.02569C3.85726 25.3533 3.69573 25.2744 3.57663 25.1341C3.45753 24.9938 3.39062 24.8034 3.39062 24.605C3.39062 24.4065 3.45753 24.2162 3.57663 24.0759C3.69573 23.9355 3.85726 23.8567 4.02569 23.8567H24.3476C24.516 23.8567 24.6776 23.9355 24.7967 24.0759C24.9158 24.2162 24.9827 24.4065 24.9827 24.605Z" fill="#3B3A3A" stroke="#3B3A3A" stroke-width="0.451598"/>
</g>
</svg>
