<svg width="24" height="24" viewBox="0 0 24 24" fill="none" xmlns="http://www.w3.org/2000/svg">
<path fill-rule="evenodd" clip-rule="evenodd" d="M6.28571 4H17.7143C18.3205 4 18.9019 4.24082 19.3305 4.66947C19.7592 5.09812 20 5.67951 20 6.28571V17.7143C20 18.3205 19.7592 18.9019 19.3305 19.3305C18.9019 19.7592 18.3205 20 17.7143 20H6.28571C5.67951 20 5.09812 19.7592 4.66947 19.3305C4.24082 18.9019 4 18.3205 4 17.7143V6.28571C4 5.67951 4.24082 5.09812 4.66947 4.66947C5.09812 4.24082 5.67951 4 6.28571 4Z" stroke="white" stroke-width="1.5" stroke-linecap="round" stroke-linejoin="round"/>
<path d="M20 15.4285L16.5714 11.9999L13.1429 15.4114M17.7143 19.9999L7.42857 9.71423L4 13.1428" stroke="white" stroke-width="1.5" stroke-linecap="round" stroke-linejoin="round"/>
<path d="M15.9993 9.14289C16.6305 9.14289 17.1422 8.63122 17.1422 8.00003C17.1422 7.36885 16.6305 6.85718 15.9993 6.85718C15.3681 6.85718 14.8564 7.36885 14.8564 8.00003C14.8564 8.63122 15.3681 9.14289 15.9993 9.14289Z" fill="white"/>
</svg>
