<svg width="25" height="25" viewBox="0 0 25 25" fill="none" xmlns="http://www.w3.org/2000/svg">
<g id="system-uicons:picture">
<g id="Group">
<g id="Group_2">
<path id="Vector" fill-rule="evenodd" clip-rule="evenodd" d="M5.40402 2.06348H19.6897C20.4475 2.06348 21.1742 2.3645 21.71 2.90031C22.2459 3.43613 22.5469 4.16286 22.5469 4.92062V19.2063C22.5469 19.9641 22.2459 20.6908 21.71 21.2266C21.1742 21.7625 20.4475 22.0635 19.6897 22.0635H5.40402C4.64626 22.0635 3.91953 21.7625 3.38371 21.2266C2.84789 20.6908 2.54688 19.9641 2.54688 19.2063V4.92062C2.54688 4.16286 2.84789 3.43613 3.38371 2.90031C3.91953 2.3645 4.64626 2.06348 5.40402 2.06348Z" stroke="#3B3A3A" stroke-width="1.69349" stroke-linecap="round" stroke-linejoin="round"/>
<path id="Vector_2" d="M22.5469 16.3489L18.2612 12.0632L13.9754 16.3275M19.6897 22.0632L6.83259 9.20605L2.54688 13.4918" stroke="#3B3A3A" stroke-width="1.69349" stroke-linecap="round" stroke-linejoin="round"/>
</g>
<path id="Vector_3" d="M17.5458 8.49191C18.3347 8.49191 18.9743 7.85232 18.9743 7.06334C18.9743 6.27436 18.3347 5.63477 17.5458 5.63477C16.7568 5.63477 16.1172 6.27436 16.1172 7.06334C16.1172 7.85232 16.7568 8.49191 17.5458 8.49191Z" fill="#3B3A3A"/>
</g>
</g>
</svg>
