<svg width="49" height="40" viewBox="0 0 49 40" fill="none" xmlns="http://www.w3.org/2000/svg">
<g id="House" clip-path="url(#clip0_4111_19400)">
<path id="Vector" d="M32.8945 26L40.8945 14L48.8945 18V28L32.8945 36V26Z" fill="#F8EBCB"/>
<path id="Vector_2" d="M32.8945 36L33.8945 35.5V24.5L32.8945 26V36ZM43.8945 28L37.8945 31V24.5L43.8945 21.5V28Z" fill="white"/>
<path id="Vector_3" d="M43.3945 27.75L38.3945 30.25V24.75L43.3945 22.25V27.75Z" fill="#825012"/>
<path id="Vector_4" d="M38.8945 29.5L42.8945 27.5V23L38.8945 25V29.5Z" fill="#3399CC"/>
<path id="Vector_5" opacity="0.15" d="M42.8945 26.5V23L38.8945 25L42.8945 26.5Z" fill="black"/>
<path id="Vector_6" d="M38.8945 26.5L42.8945 24.5V25L38.8945 27V26.5Z" fill="#825012"/>
<path id="Vector_7" opacity="0.15" d="M42.8945 23.5L38.8945 25.5V25L42.8945 23V23.5Z" fill="black"/>
<path id="Vector_8" d="M39.8945 24L40.3945 23.75V28.75L39.8945 29V24ZM41.3945 23.25L41.8945 23V28L41.3945 28.25V23.25Z" fill="#825012"/>
<path id="Vector_9" opacity="0.3" d="M42.8945 27.5V22.5L43.3945 22.25V27.75L38.3945 30.25V29.75L42.8945 27.5Z" fill="black"/>
<path id="Vector_10" d="M8.89453 14L32.8945 26V36L8.89453 24V14Z" fill="#F8EBCB"/>
<path id="Vector_11" d="M8.89453 24L9.89453 24.5V14.5L8.89453 14V24ZM31.8945 35.5L32.8945 36V26L31.8945 25.5V35.5Z" fill="white"/>
<path id="Vector_12" opacity="0.3" d="M31.8945 35.5L9.89453 24.5V24L31.8945 35V35.5Z" fill="black"/>
<path id="Vector_13" d="M16.3945 25.25L11.8945 23V16.5L16.3945 18.75V25.25Z" fill="white"/>
<path id="Vector_14" d="M15.8945 24.5L12.3945 22.75V17.25L15.8945 19V24.5Z" fill="#825012"/>
<path id="Vector_15" d="M12.8945 22.5L15.3945 23.75V19.25L12.8945 18V22.5Z" fill="#3399CC"/>
<path id="Vector_16" opacity="0.15" d="M15.3945 22.75V19.25L12.8945 18L15.3945 22.75Z" fill="black"/>
<path id="Vector_17" d="M12.8945 19.5L15.3945 20.75V21.25L12.8945 20V19.5Z" fill="#825012"/>
<path id="Vector_18" opacity="0.15" d="M15.3945 19.75L12.8945 18.5V18L15.3945 19.25V19.75Z" fill="black"/>
<path id="Vector_19" d="M13.8945 18L14.3945 18.25V23.25L13.8945 23V18Z" fill="#825012"/>
<path id="Vector_20" opacity="0.3" d="M12.8945 22.5V17.5L12.3945 17.25V22.75L15.8945 24.5V24L12.8945 22.5Z" fill="black"/>
<path id="Vector_21" d="M29.8945 32L25.3945 29.75V23.25L29.8945 25.5V32Z" fill="white"/>
<path id="Vector_22" d="M29.3945 31.25L25.8945 29.5V24L29.3945 25.75V31.25Z" fill="#825012"/>
<path id="Vector_23" d="M26.3945 29.25L28.8945 30.5V26L26.3945 24.75V29.25Z" fill="#3399CC"/>
<path id="Vector_24" opacity="0.15" d="M28.8945 29.5V26L26.3945 24.75L28.8945 29.5Z" fill="black"/>
<path id="Vector_25" d="M26.3945 26.25L28.8945 27.5V28L26.3945 26.75V26.25Z" fill="#825012"/>
<path id="Vector_26" opacity="0.15" d="M28.8945 26.5L26.3945 25.25V24.75L28.8945 26V26.5Z" fill="black"/>
<path id="Vector_27" d="M27.3945 24.75L27.8945 25V30L27.3945 29.75V24.75Z" fill="#825012"/>
<path id="Vector_28" opacity="0.3" d="M26.3945 29.25V24.25L25.8945 24V29.5L29.3945 31.25V30.75L26.3945 29.25Z" fill="black"/>
<path id="Vector_29" d="M23.3945 22.25L18.3945 19.75V28.25L23.3945 30.75V22.25Z" fill="white"/>
<path id="Vector_30" d="M22.8945 30.5L18.8945 28.5V20.5L22.8945 22.5V30.5Z" fill="#825012"/>
<path id="Vector_31" opacity="0.3" d="M19.3945 28.25V20.75L18.8945 20.5V28.5L22.8945 30.5V30L19.3945 28.25Z" fill="black"/>
<path id="Vector_32" opacity="0.3" d="M20.8945 23.5L19.8945 23V22.5L20.8945 23V23.5ZM22.3945 24.25L21.3945 23.75V23.25L22.3945 23.75V24.25ZM20.8945 25.5L19.8945 25V24.5L20.8945 25V25.5ZM22.3945 26.25L21.3945 25.75V25.25L22.3945 25.75V26.25ZM20.8945 27.5L19.8945 27V26.5L20.8945 27V27.5ZM22.3945 28.25L21.3945 27.75V27.25L22.3945 27.75V28.25Z" fill="black"/>
<path id="Vector_33" opacity="0.06" d="M8.89453 14L32.8945 26V36L8.89453 24V14Z" fill="black"/>
<path id="Vector_34" d="M32.8945 26L8.89453 14L16.8945 2L40.8945 14L32.8945 26Z" fill="#762C07"/>
<path id="Vector_35" opacity="0.06" d="M32.8945 26L8.89453 14L16.8945 2L40.8945 14L32.8945 26Z" fill="black"/>
<path id="Vector_36" opacity="0.2" d="M16.3438 2.8L40.3437 14.8L40.8937 14L16.8938 2L16.3438 2.8Z" fill="white"/>
<path id="Vector_37" d="M24.8945 31.5L16.8945 27.5L12.8945 29.5V30L20.8945 34L24.8945 32V31.5Z" fill="#656565"/>
<path id="Vector_38" d="M22.8945 30.5L18.8945 28.5L16.8945 29.5L20.8945 31.5L22.8945 30.5Z" fill="#2D3134"/>
<path id="Vector_39" opacity="0.39" d="M24.8945 31.5V32L20.8945 34V33.5L24.8945 31.5Z" fill="black"/>
<path id="Vector_40" opacity="0.06" d="M12.8945 29.5V30L20.8945 34V33.5L12.8945 29.5Z" fill="black"/>
<path id="Vector_41" d="M15.8945 29.75L15.3945 29.5V19.5L15.8945 19.75V29.75Z" fill="white"/>
<path id="Vector_42" opacity="0.06" d="M15.8945 29.75L15.3945 29.5V19.5L15.8945 19.75V29.75Z" fill="black"/>
<path id="Vector_43" d="M15.8945 19.75L16.3945 19.5V29.5L15.8945 29.75V19.75Z" fill="white"/>
<path id="Vector_44" opacity="0.39" d="M15.8945 19.75L16.3945 19.5V29.5L15.8945 29.75V19.75Z" fill="black"/>
<path id="Vector_45" d="M20.3945 32L19.8945 31.75V21.25L20.3945 21.5V32Z" fill="white"/>
<path id="Vector_46" opacity="0.06" d="M20.3945 32L19.8945 31.75V21.25L20.3945 21.5V32Z" fill="black"/>
<path id="Vector_47" d="M20.3945 21.5L20.8945 21.25V31.75L20.3945 32V21.5Z" fill="white"/>
<path id="Vector_48" opacity="0.39" d="M20.3945 21.5L20.8945 21.25V31.75L20.3945 32V21.5Z" fill="black"/>
<path id="Vector_49" d="M12.3945 19.5L21.3945 24L16.8945 16L12.3945 19.5Z" fill="#F8EBCB"/>
<path id="Vector_50" d="M14.7441 19.85L16.6941 18.2L18.5941 21.75L14.7441 19.85Z" fill="white"/>
<path id="Vector_51" d="M16.8945 16.5L21.0445 23.8L21.3945 24L16.8945 16L12.3945 19.5L12.7445 19.7L16.8945 16.5Z" fill="#762C07"/>
<path id="Vector_52" d="M16.8945 16L21.3945 24L25.1945 21.85L25.8945 11.5L16.8945 16Z" fill="#762C07"/>
<path id="Vector_53" opacity="0.39" d="M16.8945 16L21.3945 24L25.1945 21.85L25.8945 11.5L16.8945 16Z" fill="black"/>
<path id="Vector_54" opacity="0.2" d="M25.6945 12.1L25.8945 11.5L16.8945 16L17.0945 16.4L25.6945 12.1Z" fill="white"/>
<path id="Vector_55" opacity="0.3" d="M15.2441 19.85L16.8441 18.45L16.6941 18.2L14.7441 19.85L18.5941 21.75L18.4441 21.45L15.2441 19.85Z" fill="black"/>
<path id="Vector_56" opacity="0.06" d="M12.3945 19.5L21.3945 24L16.8945 16L12.3945 19.5Z" fill="black"/>
<path id="Vector_57" d="M47.8945 28.5L48.8945 28V18L47.8945 17.5V28.5Z" fill="white"/>
<path id="Vector_58" opacity="0.3" d="M47.8945 28.5L33.8945 35.5V35L47.8945 28V28.5Z" fill="black"/>
<path id="Vector_59" d="M32.8945 26L40.8945 14L48.8945 18H48.3945L40.8945 14.5L33.3945 26H32.8945Z" fill="#762C07"/>
<path id="Vector_60" opacity="0.39" d="M32.8945 26L40.8945 14L48.8945 18V28L32.8945 36V26Z" fill="black"/>
</g>
<defs>
<clipPath id="clip0_4111_19400">
<rect width="48" height="40" fill="white" transform="translate(0.894531)"/>
</clipPath>
</defs>
</svg>
