<svg width="25" height="25" viewBox="0 0 25 25" fill="none" xmlns="http://www.w3.org/2000/svg">
<g id="ic:baseline-whatsapp">
<path id="Vector" d="M19.4414 5.45547C18.5246 4.5294 17.4326 3.79514 16.229 3.29552C15.0255 2.7959 13.7345 2.54093 12.4314 2.54547C6.97141 2.54547 2.52141 6.99547 2.52141 12.4555C2.52141 14.2055 2.98141 15.9055 3.84141 17.4055L2.44141 22.5455L7.69141 21.1655C9.14141 21.9555 10.7714 22.3755 12.4314 22.3755C17.8914 22.3755 22.3414 17.9255 22.3414 12.4655C22.3414 9.81547 21.3114 7.32547 19.4414 5.45547ZM12.4314 20.6955C10.9514 20.6955 9.50141 20.2955 8.23141 19.5455L7.93141 19.3655L4.81141 20.1855L5.64141 17.1455L5.44141 16.8355C4.61915 15.5224 4.18255 14.0047 4.18141 12.4555C4.18141 7.91547 7.88141 4.21547 12.4214 4.21547C14.6214 4.21547 16.6914 5.07547 18.2414 6.63547C19.0089 7.39943 19.6171 8.30813 20.0308 9.30889C20.4445 10.3097 20.6554 11.3826 20.6514 12.4655C20.6714 17.0055 16.9714 20.6955 12.4314 20.6955ZM16.9514 14.5355C16.7014 14.4155 15.4814 13.8155 15.2614 13.7255C15.0314 13.6455 14.8714 13.6055 14.7014 13.8455C14.5314 14.0955 14.0614 14.6555 13.9214 14.8155C13.7814 14.9855 13.6314 15.0055 13.3814 14.8755C13.1314 14.7555 12.3314 14.4855 11.3914 13.6455C10.6514 12.9855 10.1614 12.1755 10.0114 11.9255C9.87141 11.6755 9.99141 11.5455 10.1214 11.4155C10.2314 11.3055 10.3714 11.1255 10.4914 10.9855C10.6114 10.8455 10.6614 10.7355 10.7414 10.5755C10.8214 10.4055 10.7814 10.2655 10.7214 10.1455C10.6614 10.0255 10.1614 8.80547 9.96141 8.30547C9.76141 7.82547 9.55141 7.88547 9.40141 7.87547H8.92141C8.75141 7.87547 8.49141 7.93547 8.26141 8.18547C8.04141 8.43547 7.40141 9.03547 7.40141 10.2555C7.40141 11.4755 8.29141 12.6555 8.41141 12.8155C8.53141 12.9855 10.1614 15.4855 12.6414 16.5555C13.2314 16.8155 13.6914 16.9655 14.0514 17.0755C14.6414 17.2655 15.1814 17.2355 15.6114 17.1755C16.0914 17.1055 17.0814 16.5755 17.2814 15.9955C17.4914 15.4155 17.4914 14.9255 17.4214 14.8155C17.3514 14.7055 17.2014 14.6555 16.9514 14.5355Z" fill="black"/>
</g>
</svg>
