<svg width="16" height="15" viewBox="0 0 16 15" fill="none" xmlns="http://www.w3.org/2000/svg">
<g id="ic:baseline-phone">
<path id="Vector" d="M4.16449 7.11729C5.07038 8.76812 6.52985 10.1156 8.31016 10.9615L9.69415 9.67812C9.864 9.52062 10.1156 9.46812 10.3358 9.53812C11.0404 9.75395 11.8016 9.87062 12.5817 9.87062C12.9276 9.87062 13.2107 10.1331 13.2107 10.454V12.4898C13.2107 12.8106 12.9276 13.0731 12.5817 13.0731C6.67454 13.0731 1.88721 8.63395 1.88721 3.15645C1.88721 2.83562 2.1703 2.57312 2.51629 2.57312H4.71809C5.06409 2.57312 5.34717 2.83562 5.34717 3.15645C5.34717 3.88562 5.47299 4.58562 5.70575 5.23895C5.77495 5.44312 5.72463 5.67062 5.54848 5.83395L4.16449 7.11729Z" fill="#BDBDBD"/>
</g>
</svg>
