<svg width="14" height="15" viewBox="0 0 14 15" fill="none" xmlns="http://www.w3.org/2000/svg">
<g id="ic:round-location-on">
<path id="Vector" d="M6.99992 1.98975C4.54992 1.98975 2.33325 3.86808 2.33325 6.77308C2.33325 8.62808 3.76242 10.8097 6.61492 13.3239C6.83659 13.5164 7.16909 13.5164 7.39075 13.3239C10.2374 10.8097 11.6666 8.62808 11.6666 6.77308C11.6666 3.86808 9.44992 1.98975 6.99992 1.98975ZM6.99992 7.82308C6.35825 7.82308 5.83325 7.29808 5.83325 6.65641C5.83325 6.01475 6.35825 5.48975 6.99992 5.48975C7.64159 5.48975 8.16658 6.01475 8.16658 6.65641C8.16658 7.29808 7.64159 7.82308 6.99992 7.82308Z" fill="#BDBDBD"/>
</g>
</svg>
