<svg width="35" height="31" viewBox="0 0 35 31" fill="none" xmlns="http://www.w3.org/2000/svg">
<path d="M4.35027 28.1321L12.2834 25.4005C12.8476 25.2062 13.4606 25.2062 14.0248 25.4005L26.3179 29.6333C28.0543 30.2312 29.8629 28.9412 29.8629 27.1047V16.3195C29.8629 15.5987 29.572 14.9085 29.0561 14.4052L16.3944 2.05264L17.6628 0.783722C18.7073 -0.26124 20.4012 -0.261241 21.4457 0.783721L34.0581 13.4019C34.5594 13.9034 34.841 14.5834 34.841 15.2925V27.4694C34.841 28.9464 33.6437 30.1437 32.1667 30.1437H6.94185C5.69362 30.1437 4.64512 29.2885 4.35027 28.1321Z" fill="#001F6D"/>
<path d="M0 16.6469V23.9838C0 24.5602 0.573425 24.961 1.11472 24.7628L12.6734 20.5309C12.8598 20.4626 13.0645 20.4635 13.2503 20.5333L24.4752 24.7497C25.0176 24.9535 25.5964 24.5526 25.5964 23.9732V16.6469C25.5964 16.4185 25.5022 16.2002 25.336 16.0434L13.3674 4.7549C13.0478 4.45348 12.5486 4.45348 12.229 4.7549L0.260359 16.0434C0.0941895 16.2002 0 16.4185 0 16.6469Z" fill="#DA0025"/>
<path d="M0.706392 1.96954C0.706392 1.05327 1.44917 0.310494 2.36544 0.310494H4.02442C4.94069 0.310494 5.68347 1.05328 5.68347 1.96954V4.88868C5.68347 5.24671 5.538 5.58938 5.28043 5.83807L0.706392 10.2544V1.96954Z" fill="#001F6D"/>
</svg>
