<svg width="25" height="24" viewBox="0 0 25 24" fill="none" xmlns="http://www.w3.org/2000/svg">
<path d="M13.3753 17.275C13.1753 17.075 13.0793 16.8334 13.0873 16.55C13.096 16.2667 13.2003 16.025 13.4003 15.825L16.2253 13H5.07532C4.79198 13 4.55432 12.904 4.36232 12.712C4.17098 12.5207 4.07532 12.2834 4.07532 12C4.07532 11.7167 4.17098 11.479 4.36232 11.287C4.55432 11.0957 4.79198 11 5.07532 11H16.2253L13.3753 8.15005C13.1753 7.95005 13.0753 7.71238 13.0753 7.43705C13.0753 7.16238 13.1753 6.92505 13.3753 6.72505C13.5753 6.52505 13.813 6.42505 14.0883 6.42505C14.363 6.42505 14.6003 6.52505 14.8003 6.72505L19.3753 11.3C19.4753 11.4 19.5463 11.5084 19.5883 11.625C19.6297 11.7417 19.6503 11.8667 19.6503 12C19.6503 12.1334 19.6297 12.2584 19.5883 12.375C19.5463 12.4917 19.4753 12.6 19.3753 12.7L14.7753 17.3C14.592 17.4834 14.363 17.575 14.0883 17.575C13.813 17.575 13.5753 17.475 13.3753 17.275Z" fill="white"/>
</svg>
