<svg width="24" height="25" viewBox="0 0 24 25" fill="none" xmlns="http://www.w3.org/2000/svg">
<path d="M5 21.9762C4.71667 21.9762 4.479 21.8802 4.287 21.6882C4.095 21.4962 3.99933 21.2589 4 20.9762V19.9762C3.16667 19.9762 2.45833 19.6845 1.875 19.1012C1.29167 18.5179 1 17.8095 1 16.9762V11.9762C1 11.1429 1.29167 10.4345 1.875 9.8512C2.45833 9.26786 3.16667 8.9762 4 8.9762V6.9762C4 6.14286 4.29167 5.43453 4.875 4.8512C5.45833 4.26786 6.16667 3.9762 7 3.9762H17C17.8333 3.9762 18.5417 4.26786 19.125 4.8512C19.7083 5.43453 20 6.14286 20 6.9762V8.9762C20.8333 8.9762 21.5417 9.26786 22.125 9.8512C22.7083 10.4345 23 11.1429 23 11.9762V16.9762C23 17.8095 22.7083 18.5179 22.125 19.1012C21.5417 19.6845 20.8333 19.9762 20 19.9762V20.9762C20 21.2595 19.904 21.4972 19.712 21.6892C19.52 21.8812 19.2827 21.9769 19 21.9762C18.7167 21.9762 18.479 21.8802 18.287 21.6882C18.095 21.4962 17.9993 21.2589 18 20.9762V19.9762H6V20.9762C6 21.2595 5.904 21.4972 5.712 21.6892C5.52 21.8812 5.28267 21.9769 5 21.9762ZM4 17.9762H20C20.2833 17.9762 20.521 17.8802 20.713 17.6882C20.905 17.4962 21.0007 17.2589 21 16.9762V11.9762C21 11.6929 20.904 11.4552 20.712 11.2632C20.52 11.0712 20.2827 10.9755 20 10.9762C19.7167 10.9762 19.479 11.0722 19.287 11.2642C19.095 11.4562 18.9993 11.6935 19 11.9762V15.9762H5V11.9762C5 11.6929 4.904 11.4552 4.712 11.2632C4.52 11.0712 4.28267 10.9755 4 10.9762C3.71667 10.9762 3.479 11.0722 3.287 11.2642C3.095 11.4562 2.99933 11.6935 3 11.9762V16.9762C3 17.2595 3.096 17.4972 3.288 17.6892C3.48 17.8812 3.71733 17.9769 4 17.9762ZM7 13.9762H17V11.9762C17 11.5262 17.0917 11.1179 17.275 10.7512C17.4583 10.3845 17.7 10.0595 18 9.7762V6.9762C18 6.69286 17.904 6.4552 17.712 6.2632C17.52 6.0712 17.2827 5.97553 17 5.9762H7C6.71667 5.9762 6.479 6.0722 6.287 6.2642C6.095 6.4562 5.99933 6.69353 6 6.9762V9.7762C6.3 10.0595 6.54167 10.3845 6.725 10.7512C6.90833 11.1179 7 11.5262 7 11.9762V13.9762Z" fill="#4A4A4A"/>
</svg>
