<svg width="24" height="25" viewBox="0 0 24 25" fill="none" xmlns="http://www.w3.org/2000/svg">
<path d="M8.57143 5.9762C8 5.9762 7.42857 6.2162 6.98286 6.66191C6.53714 7.10762 6.28571 7.63334 6.28571 8.26191V11.6905C5.68 11.6905 5.14286 11.9076 4.67429 12.3648C4.20571 12.8219 4 13.3705 4 13.9762V19.6905H5.53143L6.28571 21.9762H7.42857L8.21714 19.6905H18.1257L18.8571 21.9762H20L20.7543 19.6905H22.2857V13.9762C22.2857 13.3705 22.0686 12.8333 21.6114 12.3648C21.1543 11.8962 20.6057 11.6905 20 11.6905V8.26191C20 7.63334 19.7714 7.11905 19.3029 6.66191C18.8343 6.20477 18.2857 5.9762 17.7143 5.9762M8.57143 8.26191H12V11.6905H8.57143M14.2857 8.26191H17.7143V11.6905H14.2857M6.28571 13.9762H20V17.4048H6.28571V13.9762Z" fill="#4A4A4A"/>
</svg>
