<svg width="24" height="25" viewBox="0 0 24 25" fill="none" xmlns="http://www.w3.org/2000/svg">
<path d="M21 14.9762V15.9762C21 17.8862 19.93 19.5462 18.35 20.3862L19 22.9762H17L16.5 20.9762H7.5L7 22.9762H5L5.65 20.3862C4.84919 19.9614 4.17931 19.3263 3.71239 18.5493C3.24548 17.7723 2.99919 16.8827 3 15.9762V14.9762H2V12.9762H20V5.9762C20 5.71098 19.8946 5.45663 19.7071 5.26909C19.5196 5.08155 19.2652 4.9762 19 4.9762C18.5 4.9762 18.12 5.3162 18 5.7662C18.63 6.3062 19 7.1062 19 7.9762H13C13 7.18055 13.3161 6.41749 13.8787 5.85488C14.4413 5.29227 15.2044 4.9762 16 4.9762H16.17C16.58 3.8162 17.69 2.9762 19 2.9762C19.7956 2.9762 20.5587 3.29227 21.1213 3.85488C21.6839 4.41749 22 5.18055 22 5.9762V14.9762H21ZM19 14.9762H5V15.9762C5 16.7718 5.31607 17.5349 5.87868 18.0975C6.44129 18.6601 7.20435 18.9762 8 18.9762H16C16.7956 18.9762 17.5587 18.6601 18.1213 18.0975C18.6839 17.5349 19 16.7718 19 15.9762V14.9762Z" fill="#4A4A4A"/>
</svg>
