<svg width="48" height="47" viewBox="0 0 48 47" fill="none" xmlns="http://www.w3.org/2000/svg">
<g id="Phone In Talk" clip-path="url(#clip0_4151_20604)">
<path id="Vector" d="M27.0774 22.241H30.5278C30.5278 17.4795 26.6633 13.615 21.9018 13.615V17.0654C24.7656 17.0654 27.0774 19.3772 27.0774 22.241ZM33.9782 22.241H37.4286C37.4286 18.1231 35.7927 14.1738 32.8809 11.2619C29.969 8.35009 26.0197 6.71423 21.9018 6.71423V10.1646C28.5783 10.1646 33.9782 15.5645 33.9782 22.241ZM35.7034 28.2792C33.5469 28.2792 31.4766 27.9342 29.5444 27.2959C29.3719 27.2441 29.1821 27.2096 29.0096 27.2096C28.5611 27.2096 28.1298 27.3821 27.7847 27.7099L23.9893 31.5053C19.0918 29.0145 15.111 25.0338 12.6202 20.1363L16.4157 16.3236C16.6442 16.1068 16.8061 15.8294 16.8825 15.5238C16.9589 15.2182 16.9466 14.8972 16.847 14.5984C16.1925 12.6111 15.8605 10.5317 15.8636 8.43943C15.8636 7.49057 15.0873 6.71423 14.1384 6.71423H8.1002C7.15134 6.71423 6.375 7.49057 6.375 8.43943C6.375 24.639 19.5038 37.7678 35.7034 37.7678C36.6522 37.7678 37.4286 36.9915 37.4286 36.0426V30.0044C37.4286 29.0556 36.6522 28.2792 35.7034 28.2792ZM9.87715 10.1646H12.465C12.5857 11.6828 12.8445 13.1837 13.2413 14.6156L11.1711 16.7031C10.481 14.6156 10.0324 12.4419 9.87715 10.1646ZM33.9782 34.2656C31.7009 34.1104 29.4927 33.6618 27.4224 32.9545L29.4927 30.8843C30.9591 31.2983 32.46 31.5571 33.9782 31.6606V34.2656Z" fill="#001F6D"/>
</g>
<defs>
<clipPath id="clip0_4151_20604">
<rect width="47" height="47" fill="white" transform="translate(0.5)"/>
</clipPath>
</defs>
</svg>
