<svg width="52" height="52" viewBox="0 0 52 52" fill="none" xmlns="http://www.w3.org/2000/svg">
<g id="Question Answer">
<path id="Vector" d="M8.79123 8.61322L8.79127 8.61318C14.2591 3.37199 23.1022 3.35646 28.5933 8.57666C30.8694 10.7403 32.3759 13.6496 32.6876 16.8944C32.8837 16.8864 33.0799 16.8835 33.2779 16.8835C37.1493 16.8835 40.658 18.3884 43.1986 20.8248L43.058 20.9714L43.1986 20.8248C45.7417 23.2637 47.3179 26.6304 47.3179 30.3509C47.3179 34.1893 45.6256 37.7381 42.803 40.2415L42.7347 46.28C42.7347 46.28 42.7347 46.28 42.7347 46.2801C42.725 47.1742 41.6371 47.6753 40.9042 47.0472L36.5155 43.458C31.7401 44.5389 26.7865 43.169 23.3573 39.8795C21.0994 37.7161 19.6058 34.8197 19.2969 31.5975C18.0108 31.6481 16.7261 31.5304 15.4742 31.2465L11.0856 34.8356C10.3536 35.4629 9.26194 34.9638 9.25507 34.0682L9.25508 34.0686L9.45819 34.0662L9.25507 34.0677L8.79123 8.61322ZM8.79123 8.61322C6.24803 11.0522 4.67188 14.4214 4.67188 18.1419C4.67188 21.9779 6.36424 25.5266 9.18424 28.0325L8.79123 8.61322ZM10.3254 10.1183L10.3253 10.1184C8.18289 12.17 6.86005 15.0066 6.86005 18.1419C6.86005 21.5214 8.40453 24.6256 10.9788 26.7456L10.3254 10.1183ZM10.3254 10.1183C14.9381 5.69501 22.4275 5.67732 27.0604 10.0804C28.9941 11.9203 30.2687 14.3937 30.5185 17.1436M10.3254 10.1183L30.5185 17.1436M21.4287 30.4266L21.4287 30.4279L21.4287 30.428V30.4281V30.4282V30.4283V30.4284V30.4284V30.4285V30.4286V30.4287V30.4288V30.4289V30.429V30.4291V30.4292V30.4293V30.4294V30.4294V30.4295V30.4296V30.4297V30.4298V30.4299V30.43V30.4301V30.4302V30.4303V30.4303V30.4304V30.4305V30.4306V30.4307V30.4308V30.4309V30.431V30.4311V30.4312V30.4312V30.4313V30.4314V30.4315V30.4316V30.4317V30.4318V30.4319V30.432V30.4321V30.4321V30.4322V30.4323V30.4324V30.4325V30.4326V30.4327V30.4328V30.4329V30.433V30.4331V30.4331V30.4332V30.4333V30.4334V30.4335V30.4336V30.4337V30.4338V30.4339V30.434V30.434V30.4341V30.4342V30.4343V30.4344V30.4345V30.4346V30.4347V30.4348V30.4349V30.4349V30.435V30.4351V30.4352V30.4353V30.4354V30.4355V30.4356V30.4357V30.4357V30.4358V30.4359V30.436V30.4361V30.4362V30.4363V30.4364V30.4365V30.4366V30.4366V30.4367V30.4368V30.4369V30.437V30.4371V30.4372V30.4373V30.4374V30.4375V30.4375V30.4376V30.4377V30.4378V30.4379V30.438V30.4381V30.4382V30.4383V30.4383V30.4384V30.4385V30.4386V30.4387V30.4388V30.4389V30.439V30.4391V30.4392V30.4392V30.4393V30.4394V30.4395V30.4396V30.4397V30.4398V30.4399V30.44V30.44V30.4401V30.4402V30.4403V30.4404V30.4405V30.4406V30.4407V30.4408V30.4408V30.4409V30.441V30.4411V30.4412V30.4413V30.4414V30.4415V30.4416V30.4417V30.4417V30.4418V30.4419V30.442V30.4421V30.4422V30.4423V30.4424V30.4424V30.4425V30.4426V30.4427V30.4428V30.4429V30.443V30.4431V30.4432V30.4432V30.4433V30.4434V30.4435V30.4436V30.4437V30.4438V30.4439V30.444V30.444V30.4441V30.4442V30.4443V30.4444V30.4445V30.4446V30.4447V30.4448V30.4448V30.4449V30.445V30.4451V30.4452V30.4453V30.4454V30.4455V30.4455V30.4456V30.4457V30.4458V30.4459V30.446V30.4461V30.4462V30.4462V30.4463V30.4464V30.4465V30.4466V30.4467V30.4468V30.4469V30.447V30.447V30.4471V30.4472V30.4473V30.4474V30.4475V30.4476V30.4477V30.4477V30.4478V30.4479V30.448V30.4481V30.4482V30.4483V30.4483V30.4484V30.4485V30.4486V30.4487V30.4488V30.4489V30.449V30.449V30.4491V30.4492V30.4493V30.4494V30.4495V30.4496V30.4497V30.4497V30.4498V30.4499V30.45V30.4501V30.4502V30.4503V30.4503V30.4504V30.4505V30.4506V30.4507V30.4508V30.4509V30.451V30.451V30.4511V30.4512V30.4513V30.4514V30.4515V30.4516V30.4516V30.4517V30.4518V30.4519V30.452V30.4521V30.4522V30.4522V30.4523V30.4524V30.4525V30.4526V30.4527V30.4528V30.4528V30.4529V30.453V30.4531V30.4532V30.4533V30.4534V30.4534V30.4535V30.4536V30.4537V30.4538V30.4539V30.454V30.454V30.4541V30.4542V30.4543V30.4544V30.4545V30.4546V30.4546V30.4547V30.4548V30.4549V30.455V30.4551V30.4552V30.4552V30.4553V30.4554V30.4555V30.4556V30.4557V30.4557V30.4558V30.4559V30.456V30.4561V30.4562V30.4563V30.4563V30.4564V30.4565V30.4566V30.4567V30.4568V30.4568V30.4569V30.457V30.4571V30.4572V30.4573V30.4573V30.4574V30.4575V30.4576V30.4577V30.4578V30.4578V30.4579V30.458V30.4581V30.4582V30.4583V30.4583V30.4584V30.4585V30.4586V30.4587V30.4588V30.4588V30.4589V30.459V30.4591V30.4592V30.4593V30.4593V30.4594V30.4595V30.4596V30.4597V30.4598V30.4598V30.4599V30.46V30.4601V30.4602V30.4603V30.4603V30.4604V30.4605V30.4606V30.4607V30.4607V30.4608V30.4609V30.461V30.4611V30.4612V30.4612V30.4613V30.4614V30.4615V30.4616V30.4617V30.4617V30.4618V30.4619V30.462V30.4621V30.4621V30.4622V30.4623V30.4624V30.4625V30.4625V30.4626V30.4627V30.4628V30.4629V30.463V30.463V30.4631V30.4632V30.4633V30.4634V30.4634V30.4635V30.4636V30.4637V30.4638V30.4638V30.4639V30.464V30.4641V30.4642V30.4642V30.4643V30.4644V30.4645V30.4646V30.4646V30.4647V30.4648V30.4649V30.465V30.465V30.4651V30.4652V30.4653V30.4654V30.4654V30.4655V30.4656V30.4657V30.4658V30.4658V30.4659V30.466V30.4661V30.4662V30.4662V30.4663V30.4664V30.4665V30.4665V30.4666V30.4667V30.4668V30.4669V30.4669V30.467V30.4671V30.4672V30.4673V30.4673V30.4674V30.4675V30.4676V30.4676V30.4677V30.4678V30.4679V30.468V30.468V30.4681V30.4682V30.4683V30.4683V30.4684V30.4685V30.4686V30.4687V30.4687V30.4688V30.4689V30.469V30.469V30.4691V30.4692V30.4693V30.4694V30.4694V30.4695V30.4696V30.4697V30.4697V30.4698V30.4699V30.47V30.47V30.4701V30.4702V30.4703V30.4703V30.4704V30.4705C21.4617 33.5574 22.777 36.3482 24.8914 38.3744L24.8916 38.3745C27.0341 40.4313 29.9983 41.702 33.2779 41.702C34.3903 41.702 35.438 41.5656 36.4935 41.2803L36.7496 41.211V41.2435C37.0393 41.2329 37.3121 41.3381 37.5351 41.5316L40.5771 44.02L40.6261 39.7999C40.6151 39.4881 40.7464 39.172 41.0109 38.9547L21.4287 30.4266ZM21.4287 30.4266C21.4085 27.2634 22.7288 24.4017 24.8914 22.3274C29.5193 17.8914 37.0365 17.8914 41.6644 22.3274C43.8044 24.3816 45.1272 27.2182 45.1272 30.3509C45.1272 33.7331 43.5852 36.8346 41.011 38.9546L21.4287 30.4266ZM30.5185 17.1436C24.4657 18.3021 19.6805 23.2574 19.2671 29.4818C17.9941 29.5361 16.7113 29.3991 15.4939 29.0713C15.1126 28.9674 14.742 29.0709 14.4525 29.3197L11.4103 31.8082L11.3637 27.5883C11.3747 27.276 11.243 26.9627 10.979 26.7458L30.5185 17.1436ZM15.1023 13.5889L15.1021 13.5894C14.8499 14.1379 15.0894 14.7875 15.6383 15.0399C16.1867 15.292 16.8362 15.0527 17.0886 14.5041C17.6242 13.3452 18.4441 12.9424 19.1767 12.9607C19.7176 12.9748 20.236 13.2051 20.5925 13.5544C20.9031 13.8629 21.0592 14.2427 20.9898 14.621L20.9897 14.6216C20.8713 15.2796 20.1314 16.1186 18.181 16.8794L18.1803 16.8796C17.7491 17.0496 17.4843 17.4622 17.4843 17.898V19.8956C17.4843 20.3858 17.8051 20.7997 18.2487 20.9393C17.8051 21.0788 17.4843 21.4928 17.4843 21.983V22.3887C17.4843 22.9931 17.9724 23.4854 18.5783 23.4854C19.1843 23.4854 19.6724 22.9931 19.6724 22.3887V21.983C19.6724 21.4928 19.3516 21.0788 18.908 20.9393C19.3516 20.7997 19.6724 20.3858 19.6724 19.8956V18.6219C21.862 17.6118 22.9025 16.3033 23.138 15.0151C23.3507 13.855 22.9225 12.805 22.1704 12.0444C21.4206 11.2862 20.3425 10.8074 19.2282 10.7778L19.2278 10.7777C17.677 10.7398 16.0551 11.5317 15.1023 13.5889ZM27.4655 31.4546L27.4657 31.4548L30.6342 35.0931L30.6345 35.0935C31.0308 35.5464 31.721 35.5983 32.1763 35.2002C32.2198 35.1625 32.2629 35.1199 32.3018 35.0723L38.9343 27.9292C39.344 27.488 39.3222 26.7972 38.8775 26.384L38.8775 26.384C38.4359 25.974 37.7451 25.9991 37.3349 26.4408C37.3348 26.4408 37.3348 26.4408 37.3348 26.4408L31.4855 32.738L29.1176 30.0173L29.1172 30.0168C28.7198 29.5627 28.0296 29.5158 27.5731 29.9125C27.1182 30.3074 27.0714 31.0006 27.4655 31.4546Z" fill="#001F6D" stroke="#001F6D" stroke-width="0.40625"/>
</g>
</svg>
