<svg width="24" height="25" viewBox="0 0 24 25" fill="none" xmlns="http://www.w3.org/2000/svg">
<path d="M9 12.4762C9 13.1392 8.73661 13.7751 8.26777 14.244C7.79893 14.7128 7.16304 14.9762 6.5 14.9762C5.83696 14.9762 5.20107 14.7128 4.73223 14.244C4.26339 13.7751 4 13.1392 4 12.4762C4 11.8132 4.26339 11.1773 4.73223 10.7084C5.20107 10.2396 5.83696 9.9762 6.5 9.9762C7.16304 9.9762 7.79893 10.2396 8.26777 10.7084C8.73661 11.1773 9 11.8132 9 12.4762Z" stroke="black" stroke-width="1.5"/>
<path d="M14 6.9762L9 10.4762M14 17.9762L9 14.4762" stroke="black" stroke-width="1.5" stroke-linecap="round"/>
<path d="M19 18.9762C19 19.6392 18.7366 20.2751 18.2678 20.744C17.7989 21.2128 17.163 21.4762 16.5 21.4762C15.837 21.4762 15.2011 21.2128 14.7322 20.744C14.2634 20.2751 14 19.6392 14 18.9762C14 18.3132 14.2634 17.6773 14.7322 17.2084C15.2011 16.7396 15.837 16.4762 16.5 16.4762C17.163 16.4762 17.7989 16.7396 18.2678 17.2084C18.7366 17.6773 19 18.3132 19 18.9762ZM19 5.9762C19 6.63924 18.7366 7.27512 18.2678 7.74396C17.7989 8.2128 17.163 8.4762 16.5 8.4762C15.837 8.4762 15.2011 8.2128 14.7322 7.74396C14.2634 7.27512 14 6.63924 14 5.9762C14 5.31316 14.2634 4.67727 14.7322 4.20843C15.2011 3.73959 15.837 3.4762 16.5 3.4762C17.163 3.4762 17.7989 3.73959 18.2678 4.20843C18.7366 4.67727 19 5.31316 19 5.9762Z" stroke="black" stroke-width="1.5"/>
</svg>
