<svg width="18" height="18" viewBox="0 0 18 18" fill="none" xmlns="http://www.w3.org/2000/svg">
<path fill-rule="evenodd" clip-rule="evenodd" d="M0.277908 16.3802C0.0999663 16.5582 0 16.7995 0 17.0512C0 17.3028 0.0999663 17.5442 0.277908 17.7221C0.455849 17.9 0.697189 18 0.948836 18C1.20048 18 1.44182 17.9 1.61976 17.7221L17.7221 1.61981C17.9 1.44187 18 1.20052 18 0.948877C18 0.69723 17.9 0.455891 17.7221 0.27795C17.5441 0.100008 17.3028 4.10102e-05 17.0511 4.10102e-05C16.7995 4.10102e-05 16.5581 0.100009 16.3802 0.27795L0.277908 16.3802Z" fill="black"/>
<path fill-rule="evenodd" clip-rule="evenodd" d="M1.61981 0.277908C1.44187 0.0999663 1.20053 0 0.948881 0C0.697234 0 0.455894 0.0999663 0.277953 0.277908C0.100011 0.455849 4.50034e-05 0.697189 4.50034e-05 0.948836C4.50034e-05 1.20048 0.100011 1.44182 0.277953 1.61976L16.3802 17.7221C16.5582 17.9 16.7995 18 17.0512 18C17.3028 18 17.5442 17.9 17.7221 17.7221C17.9 17.5441 18 17.3028 18 17.0511C18 16.7995 17.9 16.5581 17.7221 16.3802L1.61981 0.277908Z" fill="black"/>
</svg>
