<svg width="14" height="17" viewBox="0 0 14 17" fill="none" xmlns="http://www.w3.org/2000/svg">
<path d="M1.7332 5.11696C1.50267 3.59859 2.57325 2.23472 4.20869 1.73503C4.49891 1.6463 4.81205 1.67156 5.0843 1.80566C5.35654 1.93977 5.56742 2.17263 5.67395 2.4568L6.19898 3.85688C6.2835 4.08212 6.29879 4.32747 6.24287 4.56146C6.18695 4.79544 6.06239 5.00738 5.88517 5.17006L4.32335 6.60032C4.24637 6.67097 4.189 6.76036 4.15685 6.85978C4.1247 6.9592 4.11886 7.06525 4.13989 7.1676L4.15438 7.23036L4.19179 7.38727C4.38603 8.14964 4.68198 8.88241 5.07167 9.56585C5.49618 10.2921 6.02299 10.9534 6.6359 11.5296L6.68418 11.573C6.76215 11.6422 6.85673 11.6901 6.95868 11.7119C7.06063 11.7336 7.16649 11.7286 7.26594 11.6974L9.2852 11.0613C9.51468 10.9892 9.76046 10.9874 9.991 11.056C10.2215 11.1246 10.4263 11.2605 10.5791 11.4463L11.535 12.6062C11.9333 13.089 11.885 13.7987 11.4276 14.2247C10.1759 15.3919 8.45481 15.6309 7.25749 14.6689C5.78985 13.4851 4.55262 12.0412 3.60762 10.4095C2.65495 8.77907 2.01981 6.98345 1.7332 5.11696ZM5.406 7.24726L6.69987 6.0596C7.05453 5.73437 7.30388 5.31056 7.41593 4.84258C7.52797 4.37461 7.4976 3.88382 7.3287 3.43324L6.80488 2.03315C6.59045 1.46135 6.16607 0.992818 5.61821 0.723035C5.07034 0.453251 4.44023 0.402517 3.85626 0.581169C1.82493 1.20276 0.194311 3.02407 0.539504 5.29921C0.780898 6.88758 1.33731 8.90805 2.5648 11.0178C3.58434 12.7772 4.91894 14.334 6.50193 15.6103C8.2979 17.0527 10.6949 16.5602 12.2519 15.1095C12.6974 14.6946 12.9679 14.1255 13.008 13.5181C13.0482 12.9107 12.855 12.3108 12.468 11.841L11.5121 10.6799C11.2063 10.3087 10.7966 10.0373 10.3355 9.90058C9.87445 9.76381 9.38305 9.76787 8.92432 9.91225L7.24784 10.4397C6.81498 9.99339 6.43583 9.49798 6.11811 8.96357C5.81121 8.42328 5.57204 7.84724 5.406 7.24847V7.24726Z" fill="black"/>
</svg>
