<svg width="25" height="24" viewBox="0 0 25 24" fill="none" xmlns="http://www.w3.org/2000/svg">
<g id="ic:round-call-received">
<path id="Vector" d="M5.2 19.2896C5.29251 19.3823 5.4024 19.4558 5.52338 19.506C5.64435 19.5562 5.77403 19.582 5.905 19.582C6.03597 19.582 6.16565 19.5562 6.28662 19.506C6.4076 19.4558 6.51749 19.3823 6.61 19.2896L17.5 8.40959V13.9996C17.5 14.5496 17.95 14.9996 18.5 14.9996C19.05 14.9996 19.5 14.5496 19.5 13.9996V5.99959C19.5 5.44959 19.05 4.99959 18.5 4.99959H10.5C9.95 4.99959 9.5 5.44959 9.5 5.99959C9.5 6.54959 9.95 6.99959 10.5 6.99959H16.09L5.2 17.8896C4.82 18.2696 4.82 18.9096 5.2 19.2896Z" fill="#626161"/>
</g>
</svg>
