<svg width="48" height="48" viewBox="0 0 48 48" fill="none" xmlns="http://www.w3.org/2000/svg">
<g id="basil:chat-outline">
<path id="Vector" d="M31.8603 19.0879C32.5117 19.0879 33.1364 19.3467 33.597 19.8073C34.0576 20.2679 34.3164 20.8926 34.3164 21.544C34.3164 22.1954 34.0576 22.8202 33.597 23.2808C33.1364 23.7414 32.5117 24.0002 31.8603 24.0002C31.2089 24.0002 30.5841 23.7414 30.1235 23.2808C29.6629 22.8202 29.4041 22.1954 29.4041 21.544C29.4041 20.8926 29.6629 20.2679 30.1235 19.8073C30.5841 19.3467 31.2089 19.0879 31.8603 19.0879ZM24.0006 19.0879C24.652 19.0879 25.2768 19.3467 25.7374 19.8073C26.198 20.2679 26.4568 20.8926 26.4568 21.544C26.4568 22.1954 26.198 22.8202 25.7374 23.2808C25.2768 23.7414 24.652 24.0002 24.0006 24.0002C23.3492 24.0002 22.7245 23.7414 22.2639 23.2808C21.8032 22.8202 21.5445 22.1954 21.5445 21.544C21.5445 20.8926 21.8032 20.2679 22.2639 19.8073C22.7245 19.3467 23.3492 19.0879 24.0006 19.0879ZM18.5971 21.544C18.5971 20.8926 18.3383 20.2679 17.8777 19.8073C17.4171 19.3467 16.7924 19.0879 16.141 19.0879C15.4896 19.0879 14.8648 19.3467 14.4042 19.8073C13.9436 20.2679 13.6848 20.8926 13.6848 21.544C13.6848 22.1954 13.9436 22.8202 14.4042 23.2808C14.8648 23.7414 15.4896 24.0002 16.141 24.0002C16.7924 24.0002 17.4171 23.7414 17.8777 23.2808C18.3383 22.8202 18.5971 22.1954 18.5971 21.544Z" fill="white"/>
<path id="Vector_2" fill-rule="evenodd" clip-rule="evenodd" d="M15.9423 9.4464C21.2356 8.99494 26.5566 8.96866 31.8541 9.3678L32.2334 9.39728C34.6691 9.58109 36.9454 10.6783 38.6065 12.4691C40.2676 14.2599 41.1909 16.6122 41.1914 19.0548V35.79C41.1912 36.0447 41.1249 36.2951 40.9991 36.5166C40.8732 36.7381 40.6921 36.9232 40.4734 37.0539C40.2547 37.1845 40.0058 37.2562 39.7511 37.262C39.4964 37.2678 39.2446 37.2074 39.0202 37.0868L31.3374 32.9585C30.9792 32.766 30.5788 32.6654 30.1722 32.6658H12.5351C10.3108 32.6658 8.40488 31.0742 8.006 28.8872C7.19646 24.4524 7.13358 19.9135 7.81737 15.4571L8.01779 14.1425C8.19606 12.9809 8.75976 11.913 9.61828 11.1104C10.4768 10.3078 11.5803 9.81725 12.7513 9.71756L15.9423 9.4464ZM31.6301 12.3073C26.4897 11.9195 21.3264 11.9444 16.1899 12.382L12.9988 12.6551C11.9457 12.7455 11.089 13.5452 10.9298 14.5905L10.7274 15.9031C10.0945 20.036 10.1542 24.2454 10.9042 28.3587C10.9737 28.7401 11.1748 29.0851 11.4724 29.3336C11.7701 29.5821 12.1454 29.7182 12.5332 29.7184H30.1722C31.0651 29.7186 31.9441 29.94 32.7305 30.3629L38.244 33.326V19.0529C38.2439 17.3536 37.6019 15.717 36.4466 14.4709C35.2912 13.2248 33.7077 12.4612 32.0133 12.3329L31.6321 12.3053L31.6301 12.3073Z" fill="white"/>
</g>
</svg>
