<svg width="24" height="24" viewBox="0 0 24 24" fill="none" xmlns="http://www.w3.org/2000/svg">
<path d="M8.57143 5C8 5 7.42857 5.24 6.98286 5.68571C6.53714 6.13143 6.28571 6.65714 6.28571 7.28571V10.7143C5.68 10.7143 5.14286 10.9314 4.67429 11.3886C4.20571 11.8457 4 12.3943 4 13V18.7143H5.53143L6.28571 21H7.42857L8.21714 18.7143H18.1257L18.8571 21H20L20.7543 18.7143H22.2857V13C22.2857 12.3943 22.0686 11.8571 21.6114 11.3886C21.1543 10.92 20.6057 10.7143 20 10.7143V7.28571C20 6.65714 19.7714 6.14286 19.3029 5.68571C18.8343 5.22857 18.2857 5 17.7143 5M8.57143 7.28571H12V10.7143H8.57143M14.2857 7.28571H17.7143V10.7143H14.2857M6.28571 13H20V16.4286H6.28571V13Z" fill="#4A4A4A"/>
</svg>
