<svg width="41" height="39" viewBox="0 0 41 39" fill="none" xmlns="http://www.w3.org/2000/svg">
<path d="M29.8747 0.282471C25.1147 0.282471 21.1247 3.44747 19.7822 7.76997H2.81969C1.56469 7.76997 0.544687 8.79497 0.544687 10.0475V16.7375C0.544687 17.3825 0.819688 17.9575 1.25469 18.3725C1.01758 18.5818 0.827164 18.8387 0.695798 19.1264C0.564433 19.4141 0.495061 19.7262 0.492188 20.0425L0.492188 26.7325C0.493742 27.0432 0.559629 27.3502 0.685698 27.6342C0.811767 27.9181 0.995284 28.1729 1.22469 28.3825C0.995452 28.5927 0.812075 28.848 0.686034 29.1323C0.559992 29.4166 0.494 29.7239 0.492188 30.035L0.492188 36.725C0.492188 37.98 1.51719 39 2.77219 39H30.6972C31.3006 39 31.8792 38.7603 32.3059 38.3336C32.7325 37.907 32.9722 37.3283 32.9722 36.725V30.035C32.9704 29.7239 32.9044 29.4166 32.7783 29.1323C32.6523 28.848 32.4689 28.5927 32.2397 28.3825C32.4691 28.1729 32.6526 27.9181 32.7787 27.6342C32.9047 27.3502 32.9706 27.0432 32.9722 26.7325V21C37.3097 19.67 40.4922 15.675 40.4922 10.9025C40.4895 8.08712 39.3701 5.38779 37.3796 3.3968C35.3891 1.40581 32.69 0.28578 29.8747 0.282471ZM29.8747 1.53247C32.3585 1.53578 34.7396 2.52412 36.4957 4.28069C38.2518 6.03726 39.2395 8.41864 39.2422 10.9025C39.2389 13.3859 38.2509 15.7666 36.4949 17.5226C34.7388 19.2787 32.3581 20.2667 29.8747 20.27C27.3909 20.2673 25.0095 19.2796 23.2529 17.5235C21.4963 15.7674 20.508 13.3863 20.5047 10.9025C20.5073 8.41821 21.4954 6.03645 23.252 4.2798C25.0087 2.52316 27.3904 1.53512 29.8747 1.53247ZM33.9497 6.92997L27.5997 13.28L25.0872 10.765L24.2022 11.6525L27.1547 14.605C27.2122 14.6637 27.2808 14.7104 27.3566 14.7422C27.4324 14.7741 27.5137 14.7905 27.5959 14.7905C27.6781 14.7905 27.7595 14.7741 27.8353 14.7422C27.911 14.7104 27.9797 14.6637 28.0372 14.605L34.8322 7.81247L33.9472 6.92997H33.9497ZM2.81719 9.01747H19.4422C19.3229 9.63889 19.2593 10.2697 19.2522 10.9025C19.2522 13.5325 20.2522 15.9075 21.8397 17.7625H2.81719C2.54534 17.7625 2.28463 17.6545 2.0924 17.4623C1.90018 17.27 1.79219 17.0093 1.79219 16.7375V10.05C1.79219 9.48247 2.25219 9.01747 2.81719 9.01747ZM4.87719 12.7675V14.0175H14.8697V12.7675H4.87969H4.87719ZM2.77219 19.01H23.1097C24.9547 20.55 27.2897 21.5175 29.8747 21.5175C30.5072 21.5175 31.1222 21.435 31.7247 21.3275V26.7275C31.7247 26.9993 31.6167 27.26 31.4245 27.4523C31.2322 27.6445 30.9715 27.7525 30.6997 27.7525H2.76969C2.49738 27.7525 2.23615 27.6446 2.04313 27.4526C1.85011 27.2605 1.74101 26.9998 1.73969 26.7275V20.045C1.73969 19.4775 2.20469 19.015 2.76969 19.015L2.77219 19.01ZM27.3497 22.635C27.1613 22.6495 26.9854 22.7345 26.857 22.8731C26.7286 23.0116 26.6573 23.1936 26.6572 23.3825C26.6572 23.5809 26.7359 23.7713 26.876 23.9119C27.0161 24.0525 27.2062 24.1318 27.4047 24.1325C27.6036 24.1325 27.7944 24.0535 27.935 23.9128C28.0757 23.7721 28.1547 23.5814 28.1547 23.3825C28.154 23.184 28.0747 22.9939 27.9341 22.8538C27.7936 22.7136 27.6032 22.635 27.4047 22.635C27.3864 22.6343 27.368 22.6343 27.3497 22.635ZM5.50469 22.7575V24.0075H15.4972V22.7575H5.50469ZM2.77219 29.005H30.6972C31.2647 29.005 31.7222 29.47 31.7222 30.035V36.725C31.7222 36.8596 31.6957 36.9929 31.6442 37.1172C31.5927 37.2416 31.5172 37.3546 31.422 37.4498C31.3268 37.5449 31.2138 37.6204 31.0894 37.672C30.9651 37.7235 30.8318 37.75 30.6972 37.75H2.77219C2.49988 37.75 2.23865 37.6421 2.04563 37.4501C1.85261 37.258 1.74351 36.9973 1.74219 36.725V30.035C1.74219 29.4675 2.20719 29.005 2.77219 29.005ZM27.2822 32.63C27.0934 32.6445 26.9171 32.7299 26.7887 32.869C26.6602 33.0081 26.5891 33.1906 26.5897 33.38C26.5897 33.5784 26.6684 33.7688 26.8085 33.9094C26.9486 34.05 27.1387 34.1293 27.3372 34.13C27.5361 34.13 27.7269 34.051 27.8675 33.9103C28.0082 33.7696 28.0872 33.5789 28.0872 33.38C28.0872 33.1811 28.0082 32.9903 27.8675 32.8496C27.7269 32.709 27.5361 32.63 27.3372 32.63C27.3189 32.6293 27.3005 32.6293 27.2822 32.63ZM5.50469 32.755V34.005H15.4972V32.755H5.50469Z" fill="#DA0025"/>
</svg>
