<svg width="32" height="32" viewBox="0 0 32 32" fill="none" xmlns="http://www.w3.org/2000/svg">
<g id="radix-icons:hamburger-menu">
<path id="Vector" fill-rule="evenodd" clip-rule="evenodd" d="M5.75425 23.8562C5.55421 24.0563 5.44183 24.3276 5.44183 24.6105C5.44183 24.8934 5.55421 25.1647 5.75425 25.3647C5.95429 25.5648 6.2256 25.6771 6.50849 25.6771C6.79139 25.6771 7.0627 25.5648 7.26274 25.3647L25.3647 7.26279C25.5647 7.06275 25.6771 6.79144 25.6771 6.50854C25.6771 6.22564 25.5647 5.95433 25.3647 5.75429C25.1646 5.55426 24.8933 5.44187 24.6104 5.44187C24.3275 5.44187 24.0562 5.55426 23.8562 5.75429L5.75425 23.8562Z" fill="black"/>
<path id="Vector_2" fill-rule="evenodd" clip-rule="evenodd" d="M7.26206 5.75425C7.06202 5.55421 6.79071 5.44183 6.50781 5.44183C6.22491 5.44183 5.9536 5.55421 5.75357 5.75425C5.55353 5.95429 5.44115 6.2256 5.44115 6.50849C5.44115 6.79139 5.55353 7.0627 5.75357 7.26274L23.8555 25.3647C24.0555 25.5647 24.3268 25.6771 24.6097 25.6771C24.8926 25.6771 25.164 25.5647 25.364 25.3647C25.564 25.1646 25.6764 24.8933 25.6764 24.6104C25.6764 24.3275 25.564 24.0562 25.364 23.8562L7.26206 5.75425Z" fill="black"/>
</g>
</svg>
