<svg width="288" height="237" viewBox="0 0 288 237" fill="none" xmlns="http://www.w3.org/2000/svg">
<circle cx="143.344" cy="118.173" r="76.7313" fill="#16AA63" stroke="#16AA63" stroke-width="6.74561"/>
<mask id="mask0_1884_39181" style="mask-type:luminance" maskUnits="userSpaceOnUse" x="0" y="0" width="288" height="237">
<path d="M287.532 0.125H0V236.74H287.532V0.125Z" fill="white"/>
</mask>
<g mask="url(#mask0_1884_39181)">
<g opacity="0.05">
<path d="M240.149 66.4039C237.686 62.1403 232.234 60.6796 227.971 63.141L182.502 89.3878C185.797 86.2909 186.252 81.2177 183.56 77.5847C180.867 73.9513 175.882 72.9093 171.96 75.1598L171.105 75.6591C171.601 75.1972 172.147 74.7926 172.733 74.4521L195.895 61.08C199.82 58.8142 201.418 53.9657 199.614 49.8094C197.81 45.6534 193.175 43.5122 188.841 44.8324L201.646 37.4398C205.911 34.9782 207.373 29.5243 204.912 25.2587C202.45 20.993 196.997 19.5305 192.731 21.9922L46.0471 106.683C41.783 109.144 40.322 114.597 42.7837 118.861C45.2453 123.125 50.698 124.587 54.9621 122.125L70.4044 113.21C74.6685 110.748 80.1211 112.21 82.5828 116.474C85.0445 120.738 83.5832 126.19 79.3187 128.652L48.436 146.482C45.6551 148.064 43.9347 151.013 43.9278 154.212C43.9206 157.411 45.6281 160.369 48.4019 161.963C51.176 163.555 54.5916 163.54 57.3513 161.922L71.9394 153.5C68.628 156.593 68.164 161.678 70.8611 165.319C73.5579 168.961 78.5574 170.001 82.4822 167.735L50.8238 186.278C48.0425 187.859 46.3218 190.809 46.3146 194.007C46.3077 197.207 48.0152 200.164 50.7893 201.758C53.5634 203.351 56.9787 203.336 59.7387 201.717L105.204 175.466C101.897 178.56 101.435 183.642 104.131 187.282C106.827 190.921 111.823 191.961 115.747 189.699L223.833 127.296C227.949 124.908 229.466 119.71 227.277 115.484C225.09 111.259 219.969 109.497 215.643 111.481C219.042 108.431 219.588 103.305 216.905 99.6093C214.223 95.9133 209.181 94.8419 205.228 97.1278L236.884 78.585C238.933 77.4031 240.428 75.4557 241.04 73.171C241.653 70.8864 241.332 68.4519 240.149 66.4039Z" fill="#16AA63"/>
</g>
<path d="M238.513 36.0041L247.411 39.195L244.225 48.0951L235.32 44.9077L238.513 36.0041ZM245.815 39.9493L239.268 37.6037L236.925 44.1498L243.47 46.4957L245.815 39.9493Z" fill="#02CCAA"/>
<path d="M30.6295 141.736L33.8152 150.636L24.9167 153.827L21.7242 144.924L30.6295 141.736ZM32.2191 149.882L29.8737 143.335L23.3285 145.682L25.6723 152.228L32.2191 149.882Z" fill="#02CCAA"/>
<path d="M210.325 151.372L212.851 158.425L205.798 160.952L203.27 153.898L210.325 151.372ZM211.255 157.671L209.57 152.968L204.866 154.652L206.552 159.356L211.255 157.671Z" fill="#02CCAA"/>
<path d="M98.5525 218.018C96.6864 218.018 95.1738 216.505 95.1738 214.639C95.1738 212.773 96.6864 211.261 98.5525 211.261C100.418 211.261 101.931 212.773 101.931 214.639C101.929 216.504 100.418 218.016 98.5525 218.018ZM98.5525 212.153C97.1794 212.153 96.0663 213.266 96.0663 214.639C96.0663 216.013 97.1794 217.126 98.5525 217.126C99.9256 217.126 101.039 216.013 101.039 214.639C101.037 213.267 99.9252 212.155 98.5525 212.153Z" fill="#008BFF"/>
<path d="M137.412 25.9954C135.249 25.9936 133.497 24.2393 133.498 22.0763C133.499 19.9132 135.253 18.1606 137.416 18.1611C139.579 18.1616 141.332 19.9152 141.332 22.0783C141.33 24.2418 139.576 25.9946 137.412 25.9954ZM137.412 19.1958C135.821 19.1973 134.532 20.4888 134.533 22.0802C134.534 23.6717 135.825 24.9612 137.416 24.9607C139.008 24.9602 140.298 23.6699 140.298 22.0783C140.296 20.4861 139.005 19.1958 137.412 19.1958Z" fill="#008BFF"/>
<path d="M261.693 120.795C258.674 120.795 256.227 118.348 256.227 115.329C256.227 112.31 258.674 109.862 261.693 109.862C264.712 109.862 267.16 112.31 267.16 115.329C267.157 118.346 264.71 120.792 261.693 120.795ZM261.693 111.306C259.472 111.306 257.671 113.107 257.671 115.329C257.671 117.55 259.471 119.352 261.693 119.352C263.914 119.352 265.716 117.55 265.716 115.329C265.714 113.108 263.914 111.308 261.693 111.306Z" fill="#008BFF"/>
<path d="M161.938 191.775L171.153 187.421L170.317 197.578L161.938 191.775ZM169.726 189.476L164.421 191.983L169.244 195.324L169.726 189.476Z" fill="#EA3940"/>
<path d="M61.5673 64.5476L70.7823 60.1937L69.9455 70.3506L61.5673 64.5476ZM69.355 62.2488L64.0499 64.7553L68.8725 68.0965L69.355 62.2488Z" fill="#EA3940"/>
<path d="M93.9121 109.616L128.167 145.825L193.578 89.2305" stroke="white" stroke-width="11.8048"/>
</g>
</svg>
