<svg width="324" height="390" viewBox="0 0 324 390" fill="none" xmlns="http://www.w3.org/2000/svg">
<g opacity="0.3">
<path d="M323.543 327.027V160.82C323.543 142.9 315.786 125.857 302.273 114.087L275.573 90.8327L163.65 220.735C160.605 224.27 159.315 228.988 160.137 233.58L187.978 389H261.57C295.797 389 323.543 361.254 323.543 327.027Z" />
<path d="M323.543 327.027V160.82C323.543 142.9 315.786 125.857 302.273 114.087L275.573 90.8327L163.65 220.735C160.605 224.27 159.315 228.988 160.137 233.58L187.978 389H261.57C295.797 389 323.543 361.254 323.543 327.027Z" stroke="#F3F6FD" stroke-width="0.801653"/>
<path d="M79.5256 389V239.157C79.5256 230.939 82.7903 223.057 88.6013 217.246L243.204 62.6403L198.679 23.8603C163.683 -6.6201 111.567 -6.62012 76.5713 23.8603L-27.0228 114.087C-40.536 125.857 -48.293 142.9 -48.293 160.82V327.027C-48.293 361.254 -20.5469 389 13.6797 389H79.5256Z" stroke="#F3F6FD" stroke-width="0.801653"/>
</g>
</svg>
