<svg width="163" height="37" viewBox="0 0 163 37" fill="none" xmlns="http://www.w3.org/2000/svg">
<path d="M5.24527 33.9135L14.8088 30.6205C15.4889 30.3863 16.2278 30.3863 16.908 30.6205L31.7274 35.7233C33.8207 36.444 36.0009 34.8889 36.0009 32.675V19.6733C36.0009 18.8044 35.6503 17.9723 35.0283 17.3656L19.7646 2.47448L21.2936 0.944784C22.5528 -0.314927 24.5948 -0.314928 25.854 0.944782L41.0584 16.1561C41.6627 16.7606 42.0021 17.5804 42.0021 18.4352V33.1146C42.0021 34.8951 40.5587 36.3385 38.7782 36.3385H8.36944C6.86468 36.3385 5.60071 35.3076 5.24527 33.9135Z" fill="white"/>
<path d="M0.000976562 20.068V28.9127C0.000976562 29.6076 0.692245 30.0907 1.34478 29.8517L15.2789 24.7501C15.5036 24.6679 15.7503 24.6689 15.9743 24.7531L29.506 29.836C30.1599 30.0816 30.8577 29.5983 30.8577 28.8999V20.068C30.8577 19.7926 30.7441 19.5294 30.5438 19.3405L16.1155 5.73207C15.7302 5.36871 15.1284 5.36871 14.7432 5.73207L0.314842 19.3405C0.114523 19.5294 0.000976562 19.7926 0.000976562 20.068Z" fill="#DA0025"/>
<path d="M0.852539 2.3743C0.852539 1.26973 1.74797 0.374303 2.85254 0.374303H4.85245C5.95702 0.374303 6.85245 1.26973 6.85245 2.3743V5.89334C6.85245 6.32496 6.67708 6.73804 6.36658 7.03784L0.852539 12.3618V2.3743Z" fill="white"/>
<path d="M50.0021 12.5484H55.9901L57.1877 19.734V30.9979H51.1673V18.8277L50.0021 12.5484ZM64.082 12.0305C65.8514 12.0305 67.3511 12.3865 68.5811 13.0986C69.8327 13.7891 70.7821 14.7817 71.4295 16.0765C72.0984 17.3712 72.4329 18.914 72.4329 20.705V30.9979H66.4125V21.6113C66.4125 20.0793 66.0348 18.9248 65.2796 18.148C64.5244 17.3496 63.4454 16.9504 62.0428 16.9504C61.0502 16.9504 60.1871 17.1662 59.4534 17.5977C58.7413 18.0077 58.1803 18.6011 57.7703 19.378C57.3819 20.1332 57.1877 21.0395 57.1877 22.0968L55.278 21.0934C55.5154 19.1298 56.044 17.4791 56.864 16.1412C57.7056 14.8033 58.7413 13.7891 59.9713 13.0986C61.2229 12.3865 62.5931 12.0305 64.082 12.0305Z" fill="white"/>
<path d="M83.9337 31.4835C82.2075 31.4835 80.7401 31.1382 79.5317 30.4477C78.3233 29.7356 77.3955 28.7322 76.7481 27.4375C76.1223 26.1428 75.8095 24.6107 75.8095 22.8413V12.5484H81.8298V21.9674C81.8298 23.4563 82.1859 24.5999 82.898 25.3983C83.6101 26.1967 84.635 26.5959 85.9729 26.5959C86.9655 26.5959 87.8071 26.3909 88.4976 25.981C89.1881 25.571 89.7168 24.9776 90.0836 24.2007C90.472 23.4239 90.6662 22.5068 90.6662 21.4495L92.5435 22.4529C92.3277 24.3949 91.8099 26.0457 90.9899 27.4051C90.1915 28.743 89.1773 29.7572 87.9473 30.4477C86.7389 31.1382 85.4011 31.4835 83.9337 31.4835ZM91.8314 30.9979L90.6662 23.8123V12.5484H96.6866V24.7186L97.8518 30.9979H91.8314Z" fill="white"/>
<path d="M99.0064 17.0151V14.3933L102.826 13.0015L105.415 7.6285H108.846V12.5484H116.809V17.0151H108.846V23.1002C108.846 24.4813 109.127 25.4523 109.688 26.0133C110.249 26.5528 111.252 26.8225 112.698 26.8225C113.626 26.8225 114.435 26.747 115.126 26.5959C115.838 26.4233 116.507 26.1967 117.132 25.9162V30.4801C116.485 30.739 115.633 30.9764 114.575 31.1921C113.54 31.4079 112.461 31.5158 111.339 31.5158C109.375 31.5158 107.756 31.2029 106.483 30.5772C105.232 29.9514 104.304 29.0775 103.7 27.9554C103.117 26.8117 102.826 25.4739 102.826 23.9418V17.0151H99.0064Z" fill="white"/>
<path d="M119.91 6.07485H125.898V30.9979H119.91V6.07485Z" fill="white"/>
<path d="M129.772 12.2894L132.75 12.9044L135.76 12.2894V30.9979H129.772V12.2894ZM132.782 10.6063C131.725 10.6063 130.862 10.3366 130.193 9.79713C129.524 9.23609 129.19 8.50242 129.19 7.59613C129.19 6.66826 129.524 5.93459 130.193 5.39513C130.862 4.85567 131.725 4.58594 132.782 4.58594C133.861 4.58594 134.724 4.85567 135.372 5.39513C136.019 5.93459 136.343 6.66826 136.343 7.59613C136.343 8.50242 136.019 9.23609 135.372 9.79713C134.724 10.3366 133.861 10.6063 132.782 10.6063Z" fill="white"/>
<path d="M139.634 12.5484H145.622V18.1156L145.396 18.8924V23.6828L145.622 25.107V36.3386H139.634V12.5484ZM143.648 21.7732C143.971 19.7879 144.586 18.0725 145.493 16.6267C146.399 15.1809 147.543 14.0589 148.924 13.2605C150.326 12.4405 151.88 12.0305 153.585 12.0305C155.397 12.0305 156.983 12.4405 158.343 13.2605C159.724 14.0804 160.803 15.2241 161.579 16.6914C162.356 18.1372 162.745 19.8311 162.745 21.7732C162.745 23.7152 162.356 25.4199 161.579 26.8872C160.803 28.333 159.724 29.4659 158.343 30.2859C156.983 31.1058 155.397 31.5158 153.585 31.5158C151.858 31.5158 150.305 31.1166 148.924 30.3182C147.564 29.4982 146.431 28.3654 145.525 26.9196C144.619 25.4523 143.993 23.7368 143.648 21.7732ZM156.66 21.7732C156.66 20.7806 156.455 19.9066 156.045 19.1514C155.635 18.3746 155.063 17.7704 154.329 17.3388C153.617 16.8856 152.797 16.6591 151.869 16.6591C150.92 16.6591 150.013 16.8856 149.15 17.3388C148.287 17.7704 147.532 18.3746 146.885 19.1514C146.259 19.9066 145.773 20.7806 145.428 21.7732C145.773 22.7658 146.259 23.6505 146.885 24.4273C147.532 25.1826 148.287 25.7867 149.15 26.2399C150.013 26.6715 150.92 26.8872 151.869 26.8872C152.797 26.8872 153.617 26.6715 154.329 26.2399C155.063 25.7867 155.635 25.1826 156.045 24.4273C156.455 23.6505 156.66 22.7658 156.66 21.7732Z" fill="white"/>
<path d="M50.0021 12.5484H55.9901L57.1877 19.734V30.9979H51.1673V18.8277L50.0021 12.5484ZM64.082 12.0305C65.8514 12.0305 67.3511 12.3865 68.5811 13.0986C69.8327 13.7891 70.7821 14.7817 71.4295 16.0765C72.0984 17.3712 72.4329 18.914 72.4329 20.705V30.9979H66.4125V21.6113C66.4125 20.0793 66.0348 18.9248 65.2796 18.148C64.5244 17.3496 63.4454 16.9504 62.0428 16.9504C61.0502 16.9504 60.1871 17.1662 59.4534 17.5977C58.7413 18.0077 58.1803 18.6011 57.7703 19.378C57.3819 20.1332 57.1877 21.0395 57.1877 22.0968L55.278 21.0934C55.5154 19.1298 56.044 17.4791 56.864 16.1412C57.7056 14.8033 58.7413 13.7891 59.9713 13.0986C61.2229 12.3865 62.5931 12.0305 64.082 12.0305Z" fill="white"/>
<path d="M83.9337 31.4835C82.2075 31.4835 80.7401 31.1382 79.5317 30.4477C78.3233 29.7356 77.3955 28.7322 76.7481 27.4375C76.1223 26.1428 75.8095 24.6107 75.8095 22.8413V12.5484H81.8298V21.9674C81.8298 23.4563 82.1859 24.5999 82.898 25.3983C83.6101 26.1967 84.635 26.5959 85.9729 26.5959C86.9655 26.5959 87.8071 26.3909 88.4976 25.981C89.1881 25.571 89.7168 24.9776 90.0836 24.2007C90.472 23.4239 90.6662 22.5068 90.6662 21.4495L92.5435 22.4529C92.3277 24.3949 91.8099 26.0457 90.9899 27.4051C90.1915 28.743 89.1773 29.7572 87.9473 30.4477C86.7389 31.1382 85.4011 31.4835 83.9337 31.4835ZM91.8314 30.9979L90.6662 23.8123V12.5484H96.6866V24.7186L97.8518 30.9979H91.8314Z" fill="white"/>
<path d="M99.0064 17.0151V14.3933L102.826 13.0015L105.415 7.6285H108.846V12.5484H116.809V17.0151H108.846V23.1002C108.846 24.4813 109.127 25.4523 109.688 26.0133C110.249 26.5528 111.252 26.8225 112.698 26.8225C113.626 26.8225 114.435 26.747 115.126 26.5959C115.838 26.4233 116.507 26.1967 117.132 25.9162V30.4801C116.485 30.739 115.633 30.9764 114.575 31.1921C113.54 31.4079 112.461 31.5158 111.339 31.5158C109.375 31.5158 107.756 31.2029 106.483 30.5772C105.232 29.9514 104.304 29.0775 103.7 27.9554C103.117 26.8117 102.826 25.4739 102.826 23.9418V17.0151H99.0064Z" fill="white"/>
<path d="M119.91 6.07485H125.898V30.9979H119.91V6.07485Z" fill="white"/>
<path d="M132.782 10.6063C131.725 10.6063 130.862 10.3366 130.193 9.79713C129.524 9.23609 129.19 8.50242 129.19 7.59613C129.19 6.66826 129.524 5.93459 130.193 5.39513C130.862 4.85567 131.725 4.58594 132.782 4.58594C133.861 4.58594 134.724 4.85567 135.372 5.39513C136.019 5.93459 136.343 6.66826 136.343 7.59613C136.343 8.50242 136.019 9.23609 135.372 9.79713C134.724 10.3366 133.861 10.6063 132.782 10.6063Z" fill="#DA0025"/>
<path d="M139.634 12.5484H145.622V18.1156L145.396 18.8924V23.6828L145.622 25.107V36.3386H139.634V12.5484ZM143.648 21.7732C143.971 19.7879 144.586 18.0725 145.493 16.6267C146.399 15.1809 147.543 14.0589 148.924 13.2605C150.326 12.4405 151.88 12.0305 153.585 12.0305C155.397 12.0305 156.983 12.4405 158.343 13.2605C159.724 14.0804 160.803 15.2241 161.579 16.6914C162.356 18.1372 162.745 19.8311 162.745 21.7732C162.745 23.7152 162.356 25.4199 161.579 26.8872C160.803 28.333 159.724 29.4659 158.343 30.2859C156.983 31.1058 155.397 31.5158 153.585 31.5158C151.858 31.5158 150.305 31.1166 148.924 30.3182C147.564 29.4982 146.431 28.3654 145.525 26.9196C144.619 25.4523 143.993 23.7368 143.648 21.7732ZM156.66 21.7732C156.66 20.7806 156.455 19.9066 156.045 19.1514C155.635 18.3746 155.063 17.7704 154.329 17.3388C153.617 16.8856 152.797 16.6591 151.869 16.6591C150.92 16.6591 150.013 16.8856 149.15 17.3388C148.287 17.7704 147.532 18.3746 146.885 19.1514C146.259 19.9066 145.773 20.7806 145.428 21.7732C145.773 22.7658 146.259 23.6505 146.885 24.4273C147.532 25.1826 148.287 25.7867 149.15 26.2399C150.013 26.6715 150.92 26.8872 151.869 26.8872C152.797 26.8872 153.617 26.6715 154.329 26.2399C155.063 25.7867 155.635 25.1826 156.045 24.4273C156.455 23.6505 156.66 22.7658 156.66 21.7732Z" fill="white"/>
</svg>
