<svg width="25" height="25" viewBox="0 0 25 25" fill="none" xmlns="http://www.w3.org/2000/svg">
<path d="M22.3055 10.5344H21.5V10.4929H12.5V14.4929H18.1515C17.327 16.8214 15.1115 18.4929 12.5 18.4929C9.1865 18.4929 6.5 15.8064 6.5 12.4929C6.5 9.17942 9.1865 6.49292 12.5 6.49292C14.0295 6.49292 15.421 7.06992 16.4805 8.01242L19.309 5.18392C17.523 3.51942 15.134 2.49292 12.5 2.49292C6.9775 2.49292 2.5 6.97042 2.5 12.4929C2.5 18.0154 6.9775 22.4929 12.5 22.4929C18.0225 22.4929 22.5 18.0154 22.5 12.4929C22.5 11.8224 22.431 11.1679 22.3055 10.5344Z" fill="#FFC107"/>
<path d="M3.65234 7.83842L6.93784 10.2479C7.82684 8.04692 9.97984 6.49292 12.4993 6.49292C14.0288 6.49292 15.4203 7.06992 16.4798 8.01242L19.3083 5.18392C17.5223 3.51942 15.1333 2.49292 12.4993 2.49292C8.65834 2.49292 5.32734 4.66142 3.65234 7.83842Z" fill="#FF3D00"/>
<path d="M12.5002 22.493C15.0832 22.493 17.4302 21.5045 19.2047 19.897L16.1097 17.278C15.0719 18.0672 13.8039 18.4941 12.5002 18.493C9.89916 18.493 7.69066 16.8345 6.85866 14.52L3.59766 17.0325C5.25266 20.271 8.61366 22.493 12.5002 22.493Z" fill="#4CAF50"/>
<path d="M22.3055 10.5344H21.5V10.4929H12.5V14.4929H18.1515C17.7571 15.6011 17.0467 16.5695 16.108 17.2784L16.1095 17.2774L19.2045 19.8964C18.9855 20.0954 22.5 17.4929 22.5 12.4929C22.5 11.8224 22.431 11.1679 22.3055 10.5344Z" fill="#1976D2"/>
</svg>
