<svg width="58" height="54" viewBox="0 0 58 54" fill="none" xmlns="http://www.w3.org/2000/svg">
<path d="M45.5627 28.2954L50.7766 25.6885C50.977 25.5883 51.1555 25.4491 51.3016 25.2792C51.4477 25.1093 51.5585 24.9119 51.6275 24.6987C51.6965 24.4855 51.7223 24.2607 51.7035 24.0374C51.6846 23.814 51.6215 23.5967 51.5178 23.3981L46.3302 13.4636C46.1254 13.0714 45.7748 12.7753 45.3539 12.6391C44.933 12.5029 44.4754 12.5374 44.0797 12.7353L38.8127 15.3688L45.5627 28.2954ZM45.5627 28.2954L42.1877 32.2438L34.4258 40.0057C34.2198 40.2117 33.9639 40.3609 33.683 40.4387C33.4022 40.5165 33.106 40.5202 32.8233 40.4495L20.598 37.3932C20.3687 37.3359 20.154 37.231 19.9678 37.0854L8.43772 28.0694M8.43772 28.0694L3.22384 25.4624C3.0234 25.3622 2.84493 25.2231 2.69884 25.0531C2.55275 24.8832 2.44198 24.6858 2.37298 24.4726C2.30399 24.2594 2.27815 24.0346 2.29698 23.8113C2.31582 23.588 2.37894 23.3706 2.48267 23.172L7.67024 13.2375C7.87502 12.8453 8.22562 12.5492 8.64655 12.413C9.06747 12.2768 9.52505 12.3114 9.92076 12.5092L15.1877 15.1427L8.43772 28.0694Z" stroke="url(#paint0_linear_1697_32551)" stroke-width="4" stroke-linecap="round" stroke-linejoin="round"/>
<path d="M42.1868 32.2441L32.9055 25.4941L30.2055 27.5191C29.0371 28.3954 27.616 28.8691 26.1555 28.8691C24.695 28.8691 23.2739 28.3954 22.1055 27.5191L20.9621 26.6616C20.7687 26.5165 20.6087 26.3316 20.493 26.1193C20.3773 25.907 20.3085 25.6724 20.2914 25.4312C20.2742 25.19 20.3091 24.948 20.3936 24.7215C20.4782 24.495 20.6104 24.2893 20.7814 24.1183L29.0363 15.8634C29.193 15.7067 29.379 15.5824 29.5838 15.4976C29.7885 15.4128 30.0079 15.3691 30.2295 15.3691H38.8118" stroke="url(#paint1_linear_1697_32551)" stroke-width="4" stroke-linecap="round" stroke-linejoin="round"/>
<path d="M15.3087 15.1433L26.134 11.9874C26.5207 11.8746 26.9349 11.9039 27.3019 12.07L34.5938 15.3694M23.625 44.9006L17.2675 43.3113C17.0095 43.2468 16.7704 43.1222 16.5697 42.9478L11.8125 38.8127" stroke="url(#paint2_linear_1697_32551)" stroke-width="4" stroke-linecap="round" stroke-linejoin="round"/>
<defs>
<linearGradient id="paint0_linear_1697_32551" x1="51.95" y1="26.7136" x2="-3.29595" y2="26.7136" gradientUnits="userSpaceOnUse">
<stop stop-color="#001F6D"/>
<stop offset="0.5" stop-color="#0737B1"/>
<stop offset="1" stop-color="#0035BA"/>
</linearGradient>
<linearGradient id="paint1_linear_1697_32551" x1="42.2934" y1="23.9852" x2="17.8113" y2="23.9852" gradientUnits="userSpaceOnUse">
<stop stop-color="#001F6D"/>
<stop offset="0.5" stop-color="#0737B1"/>
<stop offset="1" stop-color="#0035BA"/>
</linearGradient>
<linearGradient id="paint2_linear_1697_32551" x1="34.7047" y1="28.7593" x2="9.23698" y2="28.7593" gradientUnits="userSpaceOnUse">
<stop stop-color="#001F6D"/>
<stop offset="0.5" stop-color="#0737B1"/>
<stop offset="1" stop-color="#0035BA"/>
</linearGradient>
</defs>
</svg>
