<svg width="54" height="54" viewBox="0 0 54 54" fill="none" xmlns="http://www.w3.org/2000/svg">
<path d="M29.0554 4.50186L28.9664 6.49987L28.981 6.50052L28.9956 6.50096L29.0554 4.50186ZM27.7343 4.97174L26.3984 3.48338L26.3984 3.48339L27.7343 4.97174ZM49.4926 22.2539L47.5165 22.5624L47.518 22.5719L47.5195 22.5813L49.4926 22.2539ZM49.4926 22.4338L47.5195 22.1064L47.4808 22.3397L47.4976 22.5756L49.4926 22.4338ZM49.0491 23.7282L50.5428 25.0582L50.5428 25.0582L49.0491 23.7282ZM47.8013 24.333L47.6738 22.3371L47.6697 22.3373L47.8013 24.333ZM30.5225 25.4725L30.3909 23.4768L30.3684 23.4783L30.3459 23.4803L30.5225 25.4725ZM28.9616 24.9546L30.2996 23.4681L30.2996 23.4681L28.9616 24.9546ZM28.3015 23.4734L30.3015 23.4816L30.3018 23.4092L30.2969 23.3368L28.3015 23.4734ZM27.1401 6.50096H25.1401V6.56931L25.1448 6.6375L27.1401 6.50096ZM27.1401 6.22109L25.1421 6.13259L25.1401 6.17682V6.22109H27.1401ZM41.5256 28.951L42.2562 27.0892L41.8419 26.9266L41.3977 26.9551L41.5256 28.951ZM26.5492 29.9106L26.6539 31.9078L26.6655 31.9072L26.6771 31.9065L26.5492 29.9106ZM41.6275 28.991L40.8968 30.8527L41.2333 30.9848L41.5948 30.9907L41.6275 28.991ZM43.3302 29.7159L44.7546 28.312L44.7546 28.312L43.3302 29.7159ZM44.0114 31.4099L46.0068 31.5468L46.0103 31.4957L46.0111 31.4444L44.0114 31.4099ZM28.5362 49.0461L28.1144 47.0911L28.5362 49.0461ZM6.94751 39.4063L8.69475 38.4331L8.69044 38.4254L8.68607 38.4177L6.94751 39.4063ZM4.64502 32.3495L6.63231 32.1243L6.62843 32.0901L6.62338 32.0561L4.64502 32.3495ZM4.50239 30.1305L6.50203 30.1682L6.50233 30.1525L6.50238 30.1367L4.50239 30.1305ZM20.1512 11.1589L19.7832 9.19309L19.7594 9.19753L19.7358 9.20255L20.1512 11.1589ZM22.8408 12.4984L21.0402 13.3689L21.0992 13.4909L21.1741 13.6038L22.8408 12.4984ZM23.126 13.0781L25.1219 12.9488L25.1047 12.6841L25.0192 12.433L23.126 13.0781ZM23.6503 20.9253L25.6458 20.7899L23.6503 20.9253ZM24.0633 27.0718L26.0631 27.1007L26.0643 27.0204L26.059 26.9403L24.0633 27.0718ZM24.2875 28.4912L22.3937 29.1343L22.4125 29.1897L22.4346 29.244L24.2875 28.4912ZM29.1445 2.50384C28.1396 2.45905 27.1513 2.80752 26.3984 3.48338L29.0703 6.4601C29.036 6.49093 28.9983 6.50129 28.9664 6.49987L29.1445 2.50384ZM51.4686 21.9454C49.7583 10.9894 40.3351 2.83862 29.1153 2.50275L28.9956 6.50096C38.3444 6.78082 46.1114 13.5617 47.5165 22.5624L51.4686 21.9454ZM51.4656 22.7613C51.5114 22.4849 51.5114 22.2029 51.4656 21.9265L47.5195 22.5813C47.4935 22.4241 47.4935 22.2636 47.5195 22.1064L51.4656 22.7613ZM50.5428 25.0582C51.2156 24.3027 51.5597 23.3074 51.4875 22.2921L47.4976 22.5756C47.4925 22.5045 47.5175 22.4408 47.5555 22.3981L50.5428 25.0582ZM47.9289 26.3289C48.9292 26.265 49.8712 25.8124 50.5428 25.0582L47.5555 22.3981C47.5923 22.3567 47.6362 22.3395 47.6738 22.3371L47.9289 26.3289ZM30.6541 27.4681L47.933 26.3286L47.6697 22.3373L30.3909 23.4768L30.6541 27.4681ZM27.6236 26.4411C28.4631 27.1967 29.5799 27.5639 30.6992 27.4647L30.3459 23.4803C30.3351 23.4812 30.3249 23.4799 30.3162 23.477C30.3075 23.4741 30.3023 23.4704 30.2996 23.4681L27.6236 26.4411ZM26.3015 23.4651C26.2968 24.6046 26.7824 25.6839 27.6236 26.4411L30.2996 23.4681C30.2972 23.4658 30.2978 23.4656 30.299 23.4682C30.3002 23.4709 30.3015 23.4758 30.3015 23.4816L26.3015 23.4651ZM25.1448 6.6375L26.3062 23.6099L30.2969 23.3368L29.1354 6.36442L25.1448 6.6375ZM25.1401 6.22109V6.50096H29.1401V6.22109H25.1401ZM26.3984 3.48339C25.6441 4.16044 25.1872 5.11234 25.1421 6.13259L29.1381 6.30959C29.1352 6.37515 29.106 6.42807 29.0703 6.4601L26.3984 3.48339ZM41.3977 26.9551L26.4213 27.9147L26.6771 31.9065L41.6535 30.9469L41.3977 26.9551ZM42.3581 27.1292L42.2562 27.0892L40.7949 30.8128L40.8968 30.8527L42.3581 27.1292ZM44.7546 28.312C43.9356 27.481 42.8216 27.0102 41.6601 26.9912L41.5948 30.9907C41.7196 30.9927 41.8306 31.0436 41.9057 31.1198L44.7546 28.312ZM46.0111 31.4444C46.0314 30.2706 45.575 29.1444 44.7546 28.312L41.9057 31.1198C41.9796 31.1948 42.0133 31.2873 42.0117 31.3754L46.0111 31.4444ZM28.958 51.0011C38.3867 48.9669 45.3541 41.058 46.0068 31.5468L42.0161 31.273C41.4885 38.9612 35.846 45.423 28.1144 47.0911L28.958 51.0011ZM5.20027 40.3795C9.8496 48.7266 19.5342 53.0343 28.958 51.0011L28.1144 47.0911C20.378 48.7602 12.4712 45.213 8.69475 38.4331L5.20027 40.3795ZM2.65774 32.5746C2.96923 35.3238 3.83711 37.9826 5.20895 40.395L8.68607 38.4177C7.58036 36.4733 6.88263 34.3336 6.63231 32.1243L2.65774 32.5746ZM2.50275 30.0927C2.48663 30.9458 2.54146 31.7987 2.66666 32.6429L6.62338 32.0561C6.53068 31.431 6.49011 30.7996 6.50203 30.1682L2.50275 30.0927ZM19.7358 9.20255C9.72919 11.327 2.5338 20.0125 2.5024 30.1243L6.50238 30.1367C6.52777 21.9595 12.3536 14.859 20.5665 13.1153L19.7358 9.20255ZM24.6414 11.6278C23.7591 9.8029 21.7544 8.82413 19.7832 9.19309L20.5191 13.1248C20.7535 13.0809 20.9602 13.2034 21.0402 13.3689L24.6414 11.6278ZM25.0192 12.433C24.8939 12.0655 24.7218 11.716 24.5075 11.3929L21.1741 13.6038C21.1993 13.6418 21.2189 13.682 21.2329 13.7232L25.0192 12.433ZM25.6458 20.7899C25.4693 18.1894 25.2924 15.5813 25.1219 12.9488L21.1302 13.2074C21.3012 15.847 21.4786 18.4611 21.6549 21.0607L25.6458 20.7899ZM26.059 26.9403C25.924 24.8915 25.785 22.843 25.6458 20.7899L21.6549 21.0607C21.7942 23.1144 21.933 25.159 22.0677 27.2033L26.059 26.9403ZM26.1813 27.8481C26.0992 27.6066 26.0595 27.354 26.0631 27.1007L22.0636 27.043C22.0533 27.7539 22.1651 28.461 22.3937 29.1343L26.1813 27.8481ZM26.4445 27.9133C26.2903 27.9214 26.1782 27.8313 26.1404 27.7384L22.4346 29.244C23.1281 30.9511 24.8359 32.0032 26.6539 31.9078L26.4445 27.9133Z" fill="url(#paint0_linear_38_17843)"/>
<defs>
<linearGradient id="paint0_linear_38_17843" x1="49.7191" y1="27.4762" x2="-0.587448" y2="27.4762" gradientUnits="userSpaceOnUse">
<stop stop-color="#001F6D"/>
<stop offset="0.5" stop-color="#0737B1"/>
<stop offset="1" stop-color="#0035BA"/>
</linearGradient>
</defs>
</svg>
