<svg width="132" height="108" viewBox="0 0 132 108" fill="none" xmlns="http://www.w3.org/2000/svg">
<circle cx="65.8126" cy="53.8819" r="33.1898" fill="#16AA63" stroke="#16AA63" stroke-width="6.74561"/>
<mask id="mask0_6896_44496" style="mask-type:luminance" maskUnits="userSpaceOnUse" x="0" y="0" width="132" height="108">
<path d="M131.623 0H0.382812V108H131.623V0Z" fill="white"/>
</mask>
<g mask="url(#mask0_6896_44496)">
<g opacity="0.05">
<path d="M109.998 30.2533C108.874 28.3073 106.386 27.6405 104.44 28.764L83.686 40.7441C85.1895 39.3305 85.3973 37.0149 84.1686 35.3567C82.9397 33.6982 80.6642 33.2226 78.874 34.2499L78.484 34.4777C78.7101 34.2669 78.9596 34.0823 79.2268 33.9268L89.799 27.8233C91.5903 26.7891 92.32 24.5761 91.4965 22.679C90.6731 20.782 88.5572 19.8046 86.5792 20.4073L92.4239 17.033C94.3708 15.9094 95.0381 13.4201 93.9147 11.4731C92.791 9.52606 90.302 8.85851 88.3546 9.98212L21.4026 48.6381C19.4562 49.7617 18.7894 52.2504 19.913 54.1969C21.0366 56.1432 23.5254 56.8102 25.4717 55.6865L32.5201 51.6173C34.4665 50.4939 36.9552 51.1609 38.0789 53.1072C39.2025 55.0535 38.5355 57.5422 36.589 58.6658L22.493 66.8041C21.2236 67.526 20.4384 68.8722 20.4352 70.3325C20.4319 71.7923 21.2113 73.1427 22.4774 73.87C23.7436 74.5967 25.3026 74.5902 26.5622 73.8517L33.2208 70.0073C31.7093 71.4192 31.4976 73.7403 32.7286 75.4021C33.9595 77.0645 36.2415 77.5388 38.0329 76.5045L23.5828 84.9683C22.3133 85.69 21.5279 87.0366 21.5246 88.4965C21.5215 89.9568 22.3009 91.3067 23.5671 92.034C24.8333 92.7612 26.3922 92.7543 27.6519 92.0156L48.4039 80.0334C46.8944 81.4459 46.6839 83.7655 47.9142 85.4268C49.1446 87.0877 51.4252 87.5626 53.2161 86.5298L102.551 58.0466C104.43 56.9571 105.122 54.5842 104.123 52.6555C103.125 50.727 100.787 49.9226 98.8129 50.8281C100.364 49.4359 100.613 47.0965 99.3885 45.4095C98.1643 43.7225 95.8631 43.2335 94.0588 44.2769L108.508 35.8133C109.443 35.2738 110.125 34.3849 110.405 33.3421C110.685 32.2993 110.538 31.1881 109.998 30.2533Z" fill="#16AA63"/>
</g>
<path d="M109.244 16.378L113.306 17.8345L111.851 21.8968L107.787 20.442L109.244 16.378ZM112.577 18.1788L109.589 17.1082L108.519 20.096L111.507 21.1668L112.577 18.1788Z" fill="#001F6D"/>
<path d="M14.3652 64.6371L15.8193 68.6997L11.7577 70.1559L10.3005 66.0922L14.3652 64.6371ZM15.0908 68.3555L14.0202 65.3673L11.0328 66.4382L12.1026 69.426L15.0908 68.3555Z" fill="#001F6D"/>
<path d="M96.3876 69.0351L97.5408 72.2541L94.3217 73.4075L93.1679 70.188L96.3876 69.0351ZM96.8123 71.9099L96.0433 69.7636L93.8963 70.5321L94.6658 72.6789L96.8123 71.9099Z" fill="#02CCAA"/>
<path d="M45.3703 99.4554C44.5185 99.4554 43.8281 98.7649 43.8281 97.9131C43.8281 97.0616 44.5185 96.3711 45.3703 96.3711C46.222 96.3711 46.9124 97.0616 46.9124 97.9131C46.9115 98.7645 46.2216 99.4544 45.3703 99.4554ZM45.3703 96.7785C44.7435 96.7785 44.2355 97.2865 44.2355 97.9131C44.2355 98.54 44.7435 99.048 45.3703 99.048C45.997 99.048 46.5051 98.54 46.5051 97.9131C46.5045 97.2868 45.9968 96.7791 45.3703 96.7785Z" fill="#008BFF"/>
<path d="M63.107 11.8083C62.1197 11.8075 61.3199 11.0067 61.3203 10.0194C61.3209 9.03214 62.1215 8.2322 63.1088 8.23242C64.0961 8.23265 64.8962 9.03305 64.8962 10.0203C64.895 11.0079 64.0945 11.8079 63.107 11.8083ZM63.107 8.70471C62.3806 8.70539 61.792 9.29486 61.7925 10.0213C61.7931 10.7476 62.3823 11.3362 63.1088 11.336C63.8352 11.3358 64.424 10.7469 64.424 10.0203C64.4232 9.29362 63.8338 8.70471 63.107 8.70471Z" fill="#008BFF"/>
<path d="M119.831 55.0792C118.453 55.079 117.336 53.9618 117.336 52.5839C117.336 51.2059 118.453 50.0889 119.831 50.0889C121.209 50.0889 122.326 51.2059 122.326 52.5839C122.325 53.9612 121.208 55.0776 119.831 55.0792ZM119.831 50.7478C118.817 50.7478 117.995 51.5698 117.995 52.5839C117.995 53.598 118.817 54.4202 119.831 54.4202C120.845 54.4202 121.667 53.598 121.667 52.5839C121.666 51.5705 120.845 50.7489 119.831 50.7478Z" fill="#008BFF"/>
<path d="M74.3073 87.4767L78.5134 85.4894L78.1315 90.1254L74.3073 87.4767ZM77.8619 86.4274L75.4405 87.5715L77.6418 89.0967L77.8619 86.4274Z" fill="#EA3940"/>
<path d="M28.4792 29.4064L32.6853 27.4191L32.3033 32.0551L28.4792 29.4064ZM32.0338 28.3571L29.6123 29.5012L31.8136 31.0262L32.0338 28.3571Z" fill="#EA3940"/>
<path d="M43.25 49.9758L58.8851 66.5027L88.7412 40.6709" stroke="white" stroke-width="6"/>
</g>
</svg>
