<svg width="48" height="48" viewBox="0 0 48 48" fill="none" xmlns="http://www.w3.org/2000/svg">
<g id="Iconly/Bold/Heart">
<g id="Heart">
<g id="Heart_2">
<mask id="path-1-outside-1_35_17400" maskUnits="userSpaceOnUse" x="0" y="1.0011" width="48" height="47" fill="black">
<rect fill="white" y="1.0011" width="48" height="47"/>
<path fill-rule="evenodd" clip-rule="evenodd" d="M31.7 5.00142C32.962 5.00142 34.222 5.17942 35.42 5.58142C42.802 7.98142 45.462 16.0814 43.24 23.1614C41.98 26.7794 39.92 30.0814 37.222 32.7794C33.36 36.5194 29.122 39.8394 24.56 42.6994L24.06 43.0014L23.54 42.6794C18.962 39.8394 14.7 36.5194 10.802 32.7594C8.12203 30.0614 6.06003 26.7794 4.78003 23.1614C2.52003 16.0814 5.18003 7.98142 12.642 5.53942C13.222 5.33942 13.82 5.19942 14.42 5.12142H14.66C15.222 5.03942 15.78 5.00142 16.34 5.00142H16.56C17.82 5.03942 19.04 5.25942 20.222 5.66142H20.34C20.42 5.69942 20.48 5.74142 20.52 5.77942C20.962 5.92142 21.38 6.08142 21.78 6.30142L22.54 6.64142C22.7237 6.73936 22.9298 6.88902 23.1079 7.01836C23.2208 7.10031 23.3225 7.1741 23.4 7.22142C23.4327 7.24067 23.4658 7.26004 23.4993 7.27956C23.6708 7.37966 23.8494 7.48394 24 7.59942C26.222 5.90142 28.92 4.98142 31.7 5.00142ZM37.02 19.4014C37.84 19.3794 38.54 18.7214 38.6 17.8794V17.6414C38.66 14.8394 36.962 12.3014 34.3801 11.3214C33.5601 11.0394 32.6601 11.4814 32.3601 12.3214C32.0801 13.1614 32.5201 14.0814 33.3601 14.3794C34.642 14.8594 35.5 16.1214 35.5 17.5194V17.5814C35.462 18.0394 35.6 18.4814 35.88 18.8214C36.16 19.1614 36.58 19.3594 37.02 19.4014Z"/>
</mask>
<path d="M35.42 5.58142L34.1475 9.37361L34.1654 9.3796L34.1833 9.38543L35.42 5.58142ZM31.7 5.00142L31.6712 9.00131L31.6856 9.00142H31.7V5.00142ZM43.24 23.1614L47.0175 24.477L47.0379 24.4184L47.0565 24.3592L43.24 23.1614ZM37.222 32.7794L40.0047 35.6529L40.0278 35.6306L40.0504 35.6079L37.222 32.7794ZM24.56 42.6994L26.6281 46.1233L26.6565 46.1062L26.6847 46.0885L24.56 42.6994ZM24.06 43.0014L21.9541 46.4022L24.034 47.6902L26.1281 46.4254L24.06 43.0014ZM23.54 42.6794L21.4314 46.0785L21.4341 46.0802L23.54 42.6794ZM10.802 32.7594L7.96415 35.5784L7.99427 35.6087L8.02502 35.6384L10.802 32.7594ZM4.78003 23.1614L0.969462 24.3778L0.988353 24.437L1.00907 24.4955L4.78003 23.1614ZM12.642 5.53942L13.8861 9.34102L13.9161 9.3312L13.946 9.32091L12.642 5.53942ZM14.42 5.12142V1.12142H14.1611L13.9044 1.1548L14.42 5.12142ZM14.66 5.12142V9.12142H14.9503L15.2375 9.07951L14.66 5.12142ZM16.56 5.00142L16.6806 1.00324L16.6203 1.00142H16.56V5.00142ZM20.222 5.66142L18.9341 9.44839L19.5604 9.66142H20.222V5.66142ZM20.34 5.66142L22.0563 2.04831L21.2417 1.66142H20.34V5.66142ZM20.52 5.77942L17.765 8.67938L18.4271 9.30838L19.2966 9.58771L20.52 5.77942ZM21.78 6.30142L19.8524 9.80628L19.9964 9.88553L20.1466 9.95269L21.78 6.30142ZM22.54 6.64142L24.4224 3.11201L24.3001 3.04677L24.1735 2.99015L22.54 6.64142ZM23.1079 7.01836L20.7579 10.2552L20.7579 10.2552L23.1079 7.01836ZM23.4 7.22142L21.317 10.6362L21.3421 10.6516L21.3675 10.6665L23.4 7.22142ZM23.4993 7.27956L21.4827 10.734L21.4828 10.7341L23.4993 7.27956ZM24 7.59942L21.5663 10.7738L23.9961 12.6367L26.4288 10.7777L24 7.59942ZM38.6 17.8794L42.5899 18.1637L42.6 18.0218V17.8794H38.6ZM37.02 19.4014L36.6399 23.3833L36.8831 23.4065L37.1273 23.4L37.02 19.4014ZM38.6 17.6414L34.601 17.5558L34.6 17.5986V17.6414H38.6ZM34.3801 11.3214L35.7995 7.58173L35.7405 7.55936L35.6809 7.53886L34.3801 11.3214ZM32.3601 12.3214L28.5931 10.9761L28.5788 11.0162L28.5653 11.0565L32.3601 12.3214ZM33.3601 14.3794L34.7626 10.6334L34.7301 10.6212L34.6974 10.6096L33.3601 14.3794ZM35.5 17.5814L39.4864 17.9121L39.5 17.7471V17.5814H35.5ZM35.88 18.8214L38.9678 16.2786L38.9678 16.2786L35.88 18.8214ZM36.6925 1.78923C35.0308 1.2316 33.3342 1.00142 31.7 1.00142V9.00142C32.5899 9.00142 33.4133 9.12723 34.1475 9.37361L36.6925 1.78923ZM47.0565 24.3592C49.7272 15.8494 46.7284 5.05184 36.6568 1.77741L34.1833 9.38543C38.8757 10.911 41.1968 16.3135 39.4236 21.9637L47.0565 24.3592ZM40.0504 35.6079C43.1805 32.4778 45.5619 28.6566 47.0175 24.477L39.4625 21.8459C38.3981 24.9023 36.6595 27.6851 34.3936 29.951L40.0504 35.6079ZM26.6847 46.0885C31.483 43.0804 35.9416 39.5877 40.0047 35.6529L34.4393 29.906C30.7785 33.4512 26.7611 36.5985 22.4354 39.3104L26.6847 46.0885ZM26.1281 46.4254L26.6281 46.1233L22.492 39.2755L21.992 39.5775L26.1281 46.4254ZM21.4341 46.0802L21.9541 46.4022L26.1659 39.6007L25.6459 39.2787L21.4341 46.0802ZM8.02502 35.6384C12.1253 39.5935 16.6111 43.0882 21.4314 46.0785L25.6487 39.2804C21.313 36.5907 17.2747 33.4454 13.579 29.8805L8.02502 35.6384ZM1.00907 24.4955C2.48543 28.6686 4.865 32.4584 7.96415 35.5784L13.6399 29.9405C11.3791 27.6645 9.63463 24.8903 8.55099 21.8273L1.00907 24.4955ZM11.3979 1.73781C1.27021 5.05219 -1.75784 15.8339 0.969462 24.3778L8.5906 21.9451C6.7979 16.329 9.08986 10.9106 13.8861 9.34102L11.3979 1.73781ZM13.9044 1.1548C13.036 1.26768 12.1739 1.46971 11.3381 1.75793L13.946 9.32091C14.2702 9.20912 14.6041 9.13115 14.9357 9.08804L13.9044 1.1548ZM14.66 1.12142H14.42V9.12142H14.66V1.12142ZM16.34 1.00142C15.5974 1.00142 14.846 1.05193 14.0825 1.16333L15.2375 9.07951C15.5981 9.0269 15.9627 9.00142 16.34 9.00142V1.00142ZM16.56 1.00142H16.34V9.00142H16.56V1.00142ZM21.51 1.87445C19.9482 1.34328 18.3346 1.05312 16.6806 1.00324L16.4394 8.9996C17.3055 9.02572 18.1318 9.17555 18.9341 9.44839L21.51 1.87445ZM20.34 1.66142H20.222V9.66142H20.34V1.66142ZM23.2751 2.87946C22.8776 2.50188 22.4488 2.23476 22.0563 2.04831L18.6238 9.27453C18.3913 9.16407 18.0824 8.98096 17.765 8.67938L23.2751 2.87946ZM23.7077 2.79656C22.9961 2.40518 22.3118 2.15371 21.7435 1.97112L19.2966 9.58771C19.6122 9.68913 19.7639 9.75766 19.8524 9.80628L23.7077 2.79656ZM24.1735 2.99015L23.4135 2.65015L20.1466 9.95269L20.9066 10.2927L24.1735 2.99015ZM25.458 3.78151C25.3432 3.69818 24.8993 3.36637 24.4224 3.11201L20.6577 10.1708C20.6074 10.144 20.5762 10.1248 20.568 10.1197C20.5588 10.114 20.5606 10.1148 20.5761 10.1253C20.5913 10.1357 20.6131 10.1509 20.6448 10.1735C20.6775 10.1969 20.7115 10.2216 20.7579 10.2552L25.458 3.78151ZM25.4831 3.80661C25.5045 3.8197 25.5218 3.83062 25.5341 3.83858C25.5466 3.84659 25.556 3.8528 25.5617 3.85666C25.5676 3.86057 25.5711 3.86295 25.5718 3.86344C25.5725 3.86395 25.5714 3.86318 25.568 3.86083C25.5608 3.85572 25.5487 3.84715 25.5291 3.83301C25.5196 3.82614 25.5091 3.81854 25.4971 3.80984C25.4849 3.80104 25.4724 3.79192 25.458 3.7815L20.7579 10.2552C20.8159 10.2973 21.0697 10.4854 21.317 10.6362L25.4831 3.80661ZM25.5158 3.82507C25.4809 3.80469 25.4559 3.79005 25.4326 3.77632L21.3675 10.6665C21.4095 10.6913 21.4508 10.7154 21.4827 10.734L25.5158 3.82507ZM26.4338 4.425C26.0466 4.12814 25.6389 3.89692 25.5158 3.82505L21.4828 10.7341C21.5277 10.7603 21.5583 10.7782 21.5867 10.795C21.6138 10.8111 21.6299 10.821 21.6392 10.8268C21.6484 10.8326 21.6459 10.8312 21.635 10.8238C21.6243 10.8165 21.6 10.7997 21.5663 10.7738L26.4338 4.425ZM31.7288 1.00152C28.041 0.974991 24.4825 2.19653 21.5713 4.42118L26.4288 10.7777C27.9616 9.60631 29.799 8.98785 31.6712 9.00131L31.7288 1.00152ZM34.6102 17.5951C34.6965 16.3828 35.6777 15.436 36.9128 15.4029L37.1273 23.4C40.0023 23.3228 42.3835 21.06 42.5899 18.1637L34.6102 17.5951ZM34.6 17.6414V17.8794H42.6V17.6414H34.6ZM32.9606 15.0611C33.9336 15.4304 34.6253 16.418 34.601 17.5558L42.5991 17.7271C42.6947 13.2608 39.9905 9.17246 35.7995 7.58173L32.9606 15.0611ZM36.127 13.6668C35.7167 14.8158 34.4045 15.5598 33.0792 15.104L35.6809 7.53886C32.7156 6.51909 29.6035 8.14704 28.5931 10.9761L36.127 13.6668ZM34.6974 10.6096C35.9371 11.0494 36.5552 12.385 36.1548 13.5863L28.5653 11.0565C27.6049 13.9379 29.103 17.1134 32.0227 18.1492L34.6974 10.6096ZM39.5 17.5194C39.5 14.508 37.6574 11.7172 34.7626 10.6334L31.9575 18.1255C31.6267 18.0016 31.5 17.7349 31.5 17.5194H39.5ZM39.5 17.5814V17.5194H31.5V17.5814H39.5ZM38.9678 16.2786C39.3658 16.762 39.5324 17.3568 39.4864 17.9121L31.5137 17.2507C31.3917 18.7221 31.8342 20.2009 32.7923 21.3642L38.9678 16.2786ZM37.4001 15.4195C37.8645 15.4638 38.4801 15.6865 38.9678 16.2786L32.7923 21.3642C33.8399 22.6364 35.2956 23.255 36.6399 23.3833L37.4001 15.4195Z" fill="url(#paint0_linear_35_17400)" mask="url(#path-1-outside-1_35_17400)"/>
</g>
</g>
</g>
<defs>
<linearGradient id="paint0_linear_35_17400" x1="44.1952" y1="24.4034" x2="-0.522224" y2="24.4034" gradientUnits="userSpaceOnUse">
<stop stop-color="#001F6D"/>
<stop offset="0.5" stop-color="#0737B1"/>
<stop offset="1" stop-color="#0035BA"/>
</linearGradient>
</defs>
</svg>
