<svg width="48" height="48" viewBox="0 0 48 48" fill="none" xmlns="http://www.w3.org/2000/svg">
<path fill-rule="evenodd" clip-rule="evenodd" d="M4.4 3.77143C4.05285 3.77143 3.77143 4.05285 3.77143 4.4V39.6C3.77143 39.9472 4.05285 40.2286 4.4 40.2286H39.6C39.9472 40.2286 40.2286 39.9472 40.2286 39.6V4.4C40.2286 4.05285 39.9472 3.77143 39.6 3.77143H37.0857C36.0443 3.77143 35.2 2.92716 35.2 1.88571C35.2 0.844272 36.0443 0 37.0857 0H39.6C42.0301 0 44 1.96994 44 4.4V39.6C44 42.0301 42.0301 44 39.6 44H4.4C1.96994 44 0 42.0301 0 39.6V4.4C0 1.96994 1.96994 0 4.4 0H27.0286C28.07 0 28.9143 0.844272 28.9143 1.88571C28.9143 2.92716 28.07 3.77143 27.0286 3.77143H4.4Z" fill="url(#paint0_linear_1697_32541)"/>
<path fill-rule="evenodd" clip-rule="evenodd" d="M14.843 11.5276C15.4667 11.2029 16.2192 11.2521 16.7952 11.6553L29.3667 20.4554C29.8708 20.8081 30.171 21.3849 30.171 22.0002C30.171 22.6154 29.8708 23.1922 29.3667 23.5449L16.7952 32.3449C16.2192 32.7482 15.4667 32.7975 14.843 32.4727C14.2193 32.1481 13.8281 31.5034 13.8281 30.8002V13.2002C13.8281 12.497 14.2193 11.8523 14.843 11.5276ZM17.5996 16.822V27.1783L24.9971 22.0002L17.5996 16.822Z" fill="url(#paint1_linear_1697_32541)"/>
<defs>
<linearGradient id="paint0_linear_1697_32541" x1="44.2142" y1="22.4656" x2="-4.97439" y2="22.4656" gradientUnits="userSpaceOnUse">
<stop stop-color="#001F6D"/>
<stop offset="0.5" stop-color="#0737B1"/>
<stop offset="1" stop-color="#0035BA"/>
</linearGradient>
<linearGradient id="paint1_linear_1697_32541" x1="30.2505" y1="22.2263" x2="11.9805" y2="22.2263" gradientUnits="userSpaceOnUse">
<stop stop-color="#001F6D"/>
<stop offset="0.5" stop-color="#0737B1"/>
<stop offset="1" stop-color="#0035BA"/>
</linearGradient>
</defs>
</svg>
