<svg width="54" height="54" viewBox="0 0 54 54" fill="none" xmlns="http://www.w3.org/2000/svg">
<path d="M41.1064 37.376L42.6981 38.587L42.6981 38.5869L41.1064 37.376ZM28.6392 48.943L27.5517 47.2645L27.5442 47.2693L28.6392 48.943ZM25.3585 48.943L24.2753 50.6242L24.2791 50.6266L25.3585 48.943ZM12.8936 37.376L14.4903 36.1717L14.485 36.1646L12.8936 37.376ZM26.9853 2.5C15.4661 2.5 5.875 11.7143 5.875 23.215H9.875C9.875 14.0162 17.5813 6.5 26.9853 6.5V2.5ZM48.125 23.215C48.125 11.7123 38.5318 2.5 26.9853 2.5V6.5C36.4207 6.5 44.125 14.0182 44.125 23.215H48.125ZM42.6981 38.5869C46.0428 34.1902 48.125 28.9325 48.125 23.215H44.125C44.125 27.9282 42.4137 32.3541 39.5146 36.1652L42.6981 38.5869ZM29.7268 50.6214C34.6997 47.3993 39.115 43.2966 42.6981 38.587L39.5147 36.1651C36.2096 40.5092 32.135 44.2948 27.5517 47.2645L29.7268 50.6214ZM24.2791 50.6266C25.1077 51.1579 26.0348 51.5127 27.0642 51.4997C28.09 51.4867 28.9781 51.1113 29.7342 50.6166L27.5442 47.2693C27.2068 47.4901 27.0546 47.4995 27.0135 47.5C26.976 47.5005 26.8095 47.4975 26.438 47.2593L24.2791 50.6266ZM11.2969 38.5804C14.8536 43.2957 19.2726 47.4012 24.2753 50.6242L26.4417 47.2617C21.8337 44.2929 17.7628 40.5101 14.4903 36.1717L11.2969 38.5804ZM5.875 23.215C5.875 28.932 7.9546 34.19 11.3023 38.5875L14.485 36.1646C11.5843 32.3543 9.875 27.9286 9.875 23.215H5.875ZM26.9852 27.9918C24.5774 27.9918 22.687 26.1174 22.687 23.7977H18.687C18.687 28.4123 22.455 31.9918 26.9852 31.9918V27.9918ZM31.313 23.7977C31.313 26.1059 29.4072 27.9918 26.9852 27.9918V31.9918C31.5059 31.9918 35.313 28.4239 35.313 23.7977H31.313ZM26.9852 19.4979C29.357 19.4979 31.313 21.4672 31.313 23.7977H35.313C35.313 19.2479 31.556 15.4979 26.9852 15.4979V19.4979ZM22.687 23.7977C22.687 21.4555 24.6274 19.4979 26.9852 19.4979V15.4979C22.405 15.4979 18.687 19.2596 18.687 23.7977H22.687Z" fill="url(#paint0_linear_38_17827)"/>
<defs>
<linearGradient id="paint0_linear_38_17827" x1="46.3112" y1="27.4762" x2="3.55067" y2="27.4762" gradientUnits="userSpaceOnUse">
<stop stop-color="#001F6D"/>
<stop offset="0.5" stop-color="#0737B1"/>
<stop offset="1" stop-color="#0035BA"/>
</linearGradient>
</defs>
</svg>
