<svg width="7" height="12" viewBox="0 0 7 12" fill="none" xmlns="http://www.w3.org/2000/svg">
<path d="M3.51961 0.166016C1.93431 0.166016 0.5 2.04435 0.5 4.94935C0.5 6.80435 1.42475 8.98602 3.27049 11.5002C3.41392 11.6927 3.62907 11.6927 3.7725 11.5002C5.61446 8.98602 6.53922 6.80435 6.53922 4.94935C6.53922 2.04435 5.1049 0.166016 3.51961 0.166016ZM3.51961 5.99935C3.10441 5.99935 2.76471 5.47435 2.76471 4.83268C2.76471 4.19102 3.10441 3.66602 3.51961 3.66602C3.9348 3.66602 4.27451 4.19102 4.27451 4.83268C4.27451 5.47435 3.9348 5.99935 3.51961 5.99935Z" fill="#BDBDBD"/>
</svg>
