<svg width="30" height="24" viewBox="0 0 30 24" fill="none" xmlns="http://www.w3.org/2000/svg">
<g id="logos:google-meet" clip-path="url(#clip0_5849_27364)">
<path id="Vector" d="M16.4727 11.9802L19.3114 15.225L23.1288 17.6642L23.7929 12.0007L23.1288 6.46484L19.2382 8.60767L16.4727 11.9802Z" fill="#16AA63"/>
<path id="Vector_2" d="M0 17.1371V21.9632C0 23.0652 0.894484 23.9599 1.99666 23.9599H6.82282L7.82218 20.3134L6.82282 17.1371L3.51173 16.1377L0.000113744 17.1371H0Z" fill="#0066DA"/>
<path id="Vector_3" d="M6.82282 0L0 6.82282L3.51196 7.81979L6.82282 6.82282L7.80398 3.68974L6.82282 0Z" fill="#E94235"/>
<path id="Vector_4" d="M0 17.1394H6.82271V6.82324H0V17.1394Z" fill="#2684FC"/>
<path id="Vector_5" d="M27.4875 2.88912L23.1289 6.46477V17.664L27.5054 21.2536C28.1606 21.7668 29.119 21.299 29.119 20.4662V3.66053C29.119 2.81848 28.1377 2.35304 27.4874 2.88923" fill="#16AA63"/>
<path id="Vector_6" d="M16.474 11.9795V17.1364H6.82422V23.9592H21.1337C22.2359 23.9592 23.1302 23.0645 23.1302 21.9626V17.6635L16.474 11.9795Z" fill="#16AA63"/>
<path id="Vector_7" d="M21.1337 0H6.82422V6.82282H16.474V11.9798L23.1303 6.4643V1.99678C23.1303 0.894597 22.2359 0.000113744 21.1337 0.000113744" fill="#FFBA00"/>
</g>
<defs>
<clipPath id="clip0_5849_27364">
<rect width="29.1185" height="24" fill="white"/>
</clipPath>
</defs>
</svg>
