<svg width="32" height="32" viewBox="0 0 32 32" fill="none" xmlns="http://www.w3.org/2000/svg">
<path fill-rule="evenodd" clip-rule="evenodd" d="M3.19997 6.3999C2.91707 6.3999 2.64576 6.51228 2.44572 6.71232C2.24568 6.91236 2.1333 7.18367 2.1333 7.46657C2.1333 7.74947 2.24568 8.02078 2.44572 8.22082C2.64576 8.42085 2.91707 8.53324 3.19997 8.53324H28.8C29.0829 8.53324 29.3542 8.42085 29.5542 8.22082C29.7543 8.02078 29.8666 7.74947 29.8666 7.46657C29.8666 7.18367 29.7543 6.91236 29.5542 6.71232C29.3542 6.51228 29.0829 6.3999 28.8 6.3999H3.19997ZM2.1333 15.9999C2.1333 15.717 2.24568 15.4457 2.44572 15.2457C2.64576 15.0456 2.91707 14.9332 3.19997 14.9332H28.8C29.0829 14.9332 29.3542 15.0456 29.5542 15.2457C29.7543 15.4457 29.8666 15.717 29.8666 15.9999C29.8666 16.2828 29.7543 16.5541 29.5542 16.7541C29.3542 16.9542 29.0829 17.0666 28.8 17.0666H3.19997C2.91707 17.0666 2.64576 16.9542 2.44572 16.7541C2.24568 16.5541 2.1333 16.2828 2.1333 15.9999ZM2.1333 24.5332C2.1333 24.2503 2.24568 23.979 2.44572 23.779C2.64576 23.5789 2.91707 23.4666 3.19997 23.4666H28.8C29.0829 23.4666 29.3542 23.5789 29.5542 23.779C29.7543 23.979 29.8666 24.2503 29.8666 24.5332C29.8666 24.8161 29.7543 25.0874 29.5542 25.2875C29.3542 25.4875 29.0829 25.5999 28.8 25.5999H3.19997C2.91707 25.5999 2.64576 25.4875 2.44572 25.2875C2.24568 25.0874 2.1333 24.8161 2.1333 24.5332Z" fill="black"/>
</svg>
