<svg width="163" height="38" viewBox="0 0 163 38" fill="none" xmlns="http://www.w3.org/2000/svg">
<path d="M5.24429 34.7443L14.8078 31.4513C15.4879 31.2172 16.2269 31.2172 16.907 31.4514L31.7264 36.5541C33.8197 37.2748 36 35.7197 36 33.5058V20.5041C36 19.6352 35.6493 18.8032 35.0274 18.1964L19.7637 3.30529L21.2927 1.77559C22.5518 0.515884 24.5939 0.515882 25.853 1.77559L41.0574 16.9869C41.6617 17.5914 42.0011 18.4112 42.0011 19.266V33.9454C42.0011 35.7259 40.5577 37.1693 38.7772 37.1693H8.36846C6.86371 37.1693 5.59973 36.1384 5.24429 34.7443Z" fill="#001F6D"/>
<path d="M0 20.8988V29.7435C0 30.4384 0.691269 30.9215 1.3438 30.6826L15.2779 25.581C15.5026 25.4987 15.7493 25.4997 15.9733 25.5839L29.505 30.6668C30.1589 30.9124 30.8567 30.4291 30.8567 29.7307V20.8988C30.8567 20.6234 30.7431 20.3603 30.5428 20.1713L16.1145 6.56288C15.7292 6.19952 15.1275 6.19952 14.7422 6.56288L0.313865 20.1713C0.113546 20.3603 0 20.6234 0 20.8988Z" fill="#DA0025"/>
<path d="M0.851562 3.20511C0.851562 2.10054 1.74699 1.20511 2.85156 1.20511H4.85147C5.95604 1.20511 6.85147 2.10054 6.85147 3.20511V6.72415C6.85147 7.15577 6.67611 7.56886 6.36561 7.86865L0.851562 13.1926V3.20511Z" fill="#001F6D"/>
<path d="M50.0011 13.3792H55.9891L57.1867 20.5648V31.8287H51.1663V19.6585L50.0011 13.3792ZM64.081 12.8613C65.8505 12.8613 67.3502 13.2174 68.5801 13.9294C69.8317 14.6199 70.7811 15.6126 71.4285 16.9073C72.0974 18.202 72.4319 19.7448 72.4319 21.5358V31.8287H66.4115V22.4421C66.4115 20.9101 66.0339 19.7556 65.2786 18.9788C64.5234 18.1804 63.4445 17.7812 62.0419 17.7812C61.0493 17.7812 60.1861 17.997 59.4525 18.4285C58.7404 18.8385 58.1793 19.4319 57.7693 20.2088C57.3809 20.964 57.1867 21.8703 57.1867 22.9276L55.277 21.9242C55.5144 19.9606 56.0431 18.3099 56.863 16.972C57.7046 15.6341 58.7404 14.6199 59.9703 13.9294C61.2219 13.2174 62.5921 12.8613 64.081 12.8613Z" fill="#001F6D"/>
<path d="M83.9328 32.3143C82.2065 32.3143 80.7392 31.969 79.5308 31.2785C78.3224 30.5664 77.3945 29.563 76.7471 28.2683C76.1214 26.9736 75.8085 25.4415 75.8085 23.6721V13.3792H81.8289V22.7982C81.8289 24.2871 82.1849 25.4307 82.897 26.2291C83.6091 27.0275 84.6341 27.4267 85.9719 27.4267C86.9645 27.4267 87.8061 27.2218 88.4966 26.8118C89.1871 26.4018 89.7158 25.8084 90.0826 25.0315C90.471 24.2547 90.6652 23.3376 90.6652 22.2803L92.5426 23.2837C92.3268 25.2257 91.8089 26.8765 90.9889 28.2359C90.1905 29.5738 89.1763 30.588 87.9464 31.2785C86.738 31.969 85.4001 32.3143 83.9328 32.3143ZM91.8305 31.8287L90.6652 24.6431V13.3792H96.6856V25.5494L97.8508 31.8287H91.8305Z" fill="#001F6D"/>
<path d="M99.0055 17.8459V15.2241L102.825 13.8323L105.414 8.45931H108.845V13.3792H116.808V17.8459H108.845V23.931C108.845 25.3121 109.126 26.2831 109.687 26.8441C110.248 27.3836 111.251 27.6533 112.697 27.6533C113.625 27.6533 114.434 27.5778 115.125 27.4267C115.837 27.2541 116.506 27.0275 117.131 26.747V31.3109C116.484 31.5698 115.632 31.8072 114.574 32.023C113.539 32.2387 112.46 32.3466 111.338 32.3466C109.374 32.3466 107.756 32.0337 106.482 31.408C105.231 30.7822 104.303 29.9083 103.699 28.7862C103.116 27.6425 102.825 26.3047 102.825 24.7726V17.8459H99.0055Z" fill="#001F6D"/>
<path d="M119.909 6.90566H125.897V31.8287H119.909V6.90566Z" fill="#001F6D"/>
<path d="M129.771 13.1202L132.749 13.7352L135.759 13.1202V31.8287H129.771V13.1202ZM132.781 11.4371C131.724 11.4371 130.861 11.1674 130.192 10.6279C129.523 10.0669 129.189 9.33323 129.189 8.42694C129.189 7.49907 129.523 6.7654 130.192 6.22594C130.861 5.68648 131.724 5.41675 132.781 5.41675C133.86 5.41675 134.723 5.68648 135.371 6.22594C136.018 6.7654 136.342 7.49907 136.342 8.42694C136.342 9.33323 136.018 10.0669 135.371 10.6279C134.723 11.1674 133.86 11.4371 132.781 11.4371Z" fill="#001F6D"/>
<path d="M139.633 13.3792H145.621V18.9464L145.395 19.7232V24.5137L145.621 25.9378V37.1694H139.633V13.3792ZM143.647 22.604C143.97 20.6188 144.585 18.9033 145.492 17.4575C146.398 16.0118 147.542 14.8897 148.923 14.0913C150.325 13.2713 151.879 12.8613 153.584 12.8613C155.396 12.8613 156.982 13.2713 158.342 14.0913C159.723 14.9113 160.802 16.0549 161.578 17.5222C162.355 18.968 162.744 20.6619 162.744 22.604C162.744 24.546 162.355 26.2507 161.578 27.7181C160.802 29.1638 159.723 30.2967 158.342 31.1167C156.982 31.9366 155.396 32.3466 153.584 32.3466C151.857 32.3466 150.304 31.9474 148.923 31.149C147.563 30.329 146.43 29.1962 145.524 27.7504C144.618 26.2831 143.992 24.5676 143.647 22.604ZM156.659 22.604C156.659 21.6114 156.454 20.7374 156.044 19.9822C155.634 19.2054 155.062 18.6012 154.328 18.1696C153.616 17.7165 152.796 17.4899 151.868 17.4899C150.919 17.4899 150.012 17.7165 149.149 18.1696C148.286 18.6012 147.531 19.2054 146.884 19.9822C146.258 20.7374 145.772 21.6114 145.427 22.604C145.772 23.5966 146.258 24.4813 146.884 25.2581C147.531 26.0134 148.286 26.6176 149.149 27.0707C150.012 27.5023 150.919 27.7181 151.868 27.7181C152.796 27.7181 153.616 27.5023 154.328 27.0707C155.062 26.6176 155.634 26.0134 156.044 25.2581C156.454 24.4813 156.659 23.5966 156.659 22.604Z" fill="#001F6D"/>
<path d="M50.0011 13.3792H55.9891L57.1867 20.5648V31.8287H51.1663V19.6585L50.0011 13.3792ZM64.081 12.8613C65.8505 12.8613 67.3502 13.2174 68.5801 13.9294C69.8317 14.6199 70.7811 15.6126 71.4285 16.9073C72.0974 18.202 72.4319 19.7448 72.4319 21.5358V31.8287H66.4115V22.4421C66.4115 20.9101 66.0339 19.7556 65.2786 18.9788C64.5234 18.1804 63.4445 17.7812 62.0419 17.7812C61.0493 17.7812 60.1861 17.997 59.4525 18.4285C58.7404 18.8385 58.1793 19.4319 57.7693 20.2088C57.3809 20.964 57.1867 21.8703 57.1867 22.9276L55.277 21.9242C55.5144 19.9606 56.0431 18.3099 56.863 16.972C57.7046 15.6341 58.7404 14.6199 59.9703 13.9294C61.2219 13.2174 62.5921 12.8613 64.081 12.8613Z" fill="#001F6D"/>
<path d="M83.9328 32.3143C82.2065 32.3143 80.7392 31.969 79.5308 31.2785C78.3224 30.5664 77.3945 29.563 76.7471 28.2683C76.1214 26.9736 75.8085 25.4415 75.8085 23.6721V13.3792H81.8289V22.7982C81.8289 24.2871 82.1849 25.4307 82.897 26.2291C83.6091 27.0275 84.6341 27.4267 85.9719 27.4267C86.9645 27.4267 87.8061 27.2218 88.4966 26.8118C89.1871 26.4018 89.7158 25.8084 90.0826 25.0315C90.471 24.2547 90.6652 23.3376 90.6652 22.2803L92.5426 23.2837C92.3268 25.2257 91.8089 26.8765 90.9889 28.2359C90.1905 29.5738 89.1763 30.588 87.9464 31.2785C86.738 31.969 85.4001 32.3143 83.9328 32.3143ZM91.8305 31.8287L90.6652 24.6431V13.3792H96.6856V25.5494L97.8508 31.8287H91.8305Z" fill="#001F6D"/>
<path d="M99.0055 17.8459V15.2241L102.825 13.8323L105.414 8.45931H108.845V13.3792H116.808V17.8459H108.845V23.931C108.845 25.3121 109.126 26.2831 109.687 26.8441C110.248 27.3836 111.251 27.6533 112.697 27.6533C113.625 27.6533 114.434 27.5778 115.125 27.4267C115.837 27.2541 116.506 27.0275 117.131 26.747V31.3109C116.484 31.5698 115.632 31.8072 114.574 32.023C113.539 32.2387 112.46 32.3466 111.338 32.3466C109.374 32.3466 107.756 32.0337 106.482 31.408C105.231 30.7822 104.303 29.9083 103.699 28.7862C103.116 27.6425 102.825 26.3047 102.825 24.7726V17.8459H99.0055Z" fill="#001F6D"/>
<path d="M119.909 6.90566H125.897V31.8287H119.909V6.90566Z" fill="#001F6D"/>
<path d="M132.781 11.4371C131.724 11.4371 130.861 11.1674 130.192 10.6279C129.523 10.0669 129.189 9.33323 129.189 8.42694C129.189 7.49907 129.523 6.7654 130.192 6.22594C130.861 5.68648 131.724 5.41675 132.781 5.41675C133.86 5.41675 134.723 5.68648 135.371 6.22594C136.018 6.7654 136.342 7.49907 136.342 8.42694C136.342 9.33323 136.018 10.0669 135.371 10.6279C134.723 11.1674 133.86 11.4371 132.781 11.4371Z" fill="#DA0025"/>
<path d="M139.633 13.3792H145.621V18.9464L145.395 19.7232V24.5137L145.621 25.9378V37.1694H139.633V13.3792ZM143.647 22.604C143.97 20.6188 144.585 18.9033 145.492 17.4575C146.398 16.0118 147.542 14.8897 148.923 14.0913C150.325 13.2713 151.879 12.8613 153.584 12.8613C155.396 12.8613 156.982 13.2713 158.342 14.0913C159.723 14.9113 160.802 16.0549 161.578 17.5222C162.355 18.968 162.744 20.6619 162.744 22.604C162.744 24.546 162.355 26.2507 161.578 27.7181C160.802 29.1638 159.723 30.2967 158.342 31.1167C156.982 31.9366 155.396 32.3466 153.584 32.3466C151.857 32.3466 150.304 31.9474 148.923 31.149C147.563 30.329 146.43 29.1962 145.524 27.7504C144.618 26.2831 143.992 24.5676 143.647 22.604ZM156.659 22.604C156.659 21.6114 156.454 20.7374 156.044 19.9822C155.634 19.2054 155.062 18.6012 154.328 18.1696C153.616 17.7165 152.796 17.4899 151.868 17.4899C150.919 17.4899 150.012 17.7165 149.149 18.1696C148.286 18.6012 147.531 19.2054 146.884 19.9822C146.258 20.7374 145.772 21.6114 145.427 22.604C145.772 23.5966 146.258 24.4813 146.884 25.2581C147.531 26.0134 148.286 26.6176 149.149 27.0707C150.012 27.5023 150.919 27.7181 151.868 27.7181C152.796 27.7181 153.616 27.5023 154.328 27.0707C155.062 26.6176 155.634 26.0134 156.044 25.2581C156.454 24.4813 156.659 23.5966 156.659 22.604Z" fill="#001F6D"/>
</svg>
