<svg width="13" height="12" viewBox="0 0 13 12" fill="none" xmlns="http://www.w3.org/2000/svg">
<path d="M3.15229 5.29417C4.05817 6.945 5.51765 8.2925 7.29796 9.13833L8.68194 7.855C8.8518 7.6975 9.10343 7.645 9.32361 7.715C10.0282 7.93083 10.7894 8.0475 11.5694 8.0475C11.9154 8.0475 12.1985 8.31 12.1985 8.63083V10.6667C12.1985 10.9875 11.9154 11.25 11.5694 11.25C5.66234 11.25 0.875 6.81083 0.875 1.33333C0.875 1.0125 1.15809 0.75 1.50409 0.75H3.70588C4.05188 0.75 4.33497 1.0125 4.33497 1.33333C4.33497 2.0625 4.46078 2.7625 4.69355 3.41583C4.76275 3.62 4.71242 3.8475 4.53627 4.01083L3.15229 5.29417Z" fill="#BDBDBD"/>
</svg>
