<svg width="40" height="40" viewBox="0 0 40 40" fill="none" xmlns="http://www.w3.org/2000/svg">
<path d="M24.3125 26.6586L26.6692 24.3027L36.685 34.3186L34.3283 36.6744L24.3125 26.6586Z" fill="#616161"/>
<path d="M16.6654 30.0002C24.0292 30.0002 29.9987 24.0306 29.9987 16.6668C29.9987 9.30303 24.0292 3.3335 16.6654 3.3335C9.30157 3.3335 3.33203 9.30303 3.33203 16.6668C3.33203 24.0306 9.30157 30.0002 16.6654 30.0002Z" fill="#616161"/>
<path d="M27.043 29.4499L29.3988 27.0933L36.6455 34.3399L34.2888 36.6966L27.043 29.4499Z" fill="#37474F"/>
<path d="M16.6654 27.5002C22.6484 27.5002 27.4987 22.6499 27.4987 16.6668C27.4987 10.6837 22.6484 5.8335 16.6654 5.8335C10.6823 5.8335 5.83203 10.6837 5.83203 16.6668C5.83203 22.6499 10.6823 27.5002 16.6654 27.5002Z" fill="#64B5F6"/>
<path d="M22.4153 11.8332C20.9987 10.1665 18.9153 9.1665 16.6653 9.1665C14.4153 9.1665 12.332 10.1665 10.9153 11.8332C10.582 12.1665 10.6653 12.7498 10.9987 12.9998C11.332 13.3332 11.9153 13.2498 12.1653 12.9165C13.332 11.5832 14.9153 10.8332 16.6653 10.8332C18.4153 10.8332 19.9987 11.5832 21.1653 12.9165C21.332 13.0832 21.582 13.2498 21.832 13.2498C21.9987 13.2498 22.2487 13.1665 22.332 13.0832C22.6653 12.7498 22.6653 12.1665 22.4153 11.8332Z" fill="#BBDEFB"/>
</svg>
