<svg width="49" height="56" viewBox="0 0 49 56" fill="none" xmlns="http://www.w3.org/2000/svg">
<mask id="path-1-outside-1_38_17783" maskUnits="userSpaceOnUse" x="0" y="0" width="49" height="56" fill="black">
<rect fill="white" width="49" height="56"/>
<path fill-rule="evenodd" clip-rule="evenodd" d="M23.7475 51.7928C24.0133 51.9317 24.3104 52.0023 24.6076 51.9999C24.9048 51.9976 25.1996 51.9246 25.4678 51.7834L34.0307 47.206C36.459 45.9116 38.3605 44.4642 39.844 42.7791C43.0696 39.1077 44.831 34.422 44.7996 29.5904L44.6981 13.6528C44.6885 11.8171 43.4828 10.1791 41.6996 9.58365L25.7698 4.23895C24.8106 3.91418 23.7596 3.92124 22.8172 4.25543L6.94781 9.79075C5.17434 10.4097 3.99042 12.0595 4.00008 13.8975L4.10156 29.8234C4.13297 34.6621 5.95477 39.3266 9.23352 42.9603C10.7315 44.6219 12.65 46.0481 15.1048 47.3213L23.7475 51.7928ZM21.4791 33.0614C21.8367 33.405 22.3006 33.5745 22.7645 33.5698C23.2284 33.5674 23.6899 33.3932 24.0427 33.0449L33.4005 23.8194C34.1036 23.1251 34.0964 22.0096 33.386 21.3247C32.6732 20.6399 31.5256 20.6446 30.8225 21.3389L22.7379 29.3076L19.4278 26.1258C18.715 25.4409 17.5697 25.448 16.8642 26.1423C16.1611 26.8365 16.1684 27.9521 16.8811 28.6369L21.4791 33.0614Z"/>
</mask>
<path d="M24.6076 51.9999L24.576 48.0001H24.576L24.6076 51.9999ZM23.7475 51.7928L25.5997 48.2475L25.5926 48.2438L25.5856 48.2402L23.7475 51.7928ZM25.4678 51.7834L27.3313 55.3228L27.3424 55.317L27.3535 55.311L25.4678 51.7834ZM34.0307 47.206L32.1491 43.6761L32.145 43.6784L34.0307 47.206ZM39.844 42.7791L42.8463 45.4223L42.849 45.4192L39.844 42.7791ZM44.7996 29.5904L40.7997 29.6158L40.7997 29.6164L44.7996 29.5904ZM44.6981 13.6528L40.6982 13.6738L40.6982 13.6782L44.6981 13.6528ZM41.6996 9.58365L40.4273 13.3759L40.4327 13.3777L41.6996 9.58365ZM25.7698 4.23895L24.487 8.02769L24.4975 8.0312L25.7698 4.23895ZM22.8172 4.25543L24.1346 8.03227L24.1444 8.02884L24.1543 8.02536L22.8172 4.25543ZM6.94781 9.79075L5.63044 6.01391L5.62975 6.01415L6.94781 9.79075ZM4.00008 13.8975L0.00013566 13.9186L0.000164032 13.923L4.00008 13.8975ZM4.10156 29.8234L0.101643 29.8488L0.101646 29.8493L4.10156 29.8234ZM9.23352 42.9603L12.2043 40.2819L12.2033 40.2807L9.23352 42.9603ZM15.1048 47.3213L13.2632 50.8721L13.2667 50.8739L15.1048 47.3213ZM22.7645 33.5698L22.7442 29.5698L22.7341 29.5699L22.7239 29.57L22.7645 33.5698ZM21.4791 33.0614L18.7056 35.9437L18.7077 35.9457L21.4791 33.0614ZM24.0427 33.0449L21.2344 30.1964L21.2323 30.1986L24.0427 33.0449ZM33.4005 23.8194L36.2087 26.6679L36.211 26.6657L33.4005 23.8194ZM33.386 21.3247L36.1623 18.4451L36.1574 18.4404L33.386 21.3247ZM30.8225 21.3389L33.6304 24.1876L33.6329 24.1851L30.8225 21.3389ZM22.7379 29.3076L19.9659 32.1914L22.773 34.8896L25.5459 32.1564L22.7379 29.3076ZM19.4278 26.1258L22.1998 23.242L22.1992 23.2414L19.4278 26.1258ZM16.8642 26.1423L14.0586 23.2912L14.0537 23.296L16.8642 26.1423ZM16.8811 28.6369L19.6547 25.7546L19.6525 25.7526L16.8811 28.6369ZM24.576 48.0001C24.9276 47.9973 25.2781 48.0795 25.5997 48.2475L21.8953 55.3382C22.7484 55.7838 23.6933 56.0073 24.6393 55.9998L24.576 48.0001ZM23.6043 48.244C23.9045 48.086 24.2383 48.0027 24.576 48.0001L24.6393 55.9998C25.5713 55.9924 26.4947 55.7633 27.3313 55.3228L23.6043 48.244ZM32.145 43.6784L23.582 48.2558L27.3535 55.311L35.9165 50.7336L32.145 43.6784ZM36.8418 40.1359C35.7386 41.3889 34.2469 42.5579 32.1491 43.6761L35.9123 50.7358C38.671 49.2652 40.9824 47.5394 42.8463 45.4223L36.8418 40.1359ZM40.7997 29.6164C40.8246 33.4544 39.426 37.1945 36.839 40.139L42.849 45.4192C46.7132 41.0209 48.8374 35.3896 48.7995 29.5644L40.7997 29.6164ZM40.6982 13.6782L40.7997 29.6158L48.7995 29.5649L48.698 13.6273L40.6982 13.6782ZM40.4327 13.3777C40.641 13.4473 40.6978 13.6036 40.6982 13.6738L48.6981 13.6317C48.6791 10.0306 46.3246 6.91089 42.9666 5.78958L40.4327 13.3777ZM24.4975 8.0312L40.4273 13.3759L42.972 5.7914L27.0422 0.44671L24.4975 8.0312ZM24.1543 8.02536C24.2433 7.99378 24.3715 7.98856 24.487 8.02768L27.0526 0.450231C25.2497 -0.160205 23.2758 -0.151309 21.4802 0.485494L24.1543 8.02536ZM8.26519 13.5676L24.1346 8.03227L21.4999 0.478589L5.63044 6.01391L8.26519 13.5676ZM8.00003 13.8765C7.99961 13.7971 8.05816 13.6398 8.26588 13.5674L5.62975 6.01415C2.29053 7.17957 -0.018774 10.3218 0.000138283 13.9186L8.00003 13.8765ZM8.10148 29.7979L8 13.872L0.000164032 13.923L0.101643 29.8488L8.10148 29.7979ZM12.2033 40.2807C9.57361 37.3663 8.12644 33.6431 8.10148 29.7974L0.101646 29.8493C0.139503 35.681 2.33593 41.2869 6.26375 45.64L12.2033 40.2807ZM16.9465 43.7705C14.822 42.6686 13.3165 41.5154 12.2043 40.2819L6.26269 45.6388C8.14657 47.7283 10.478 49.4275 13.2632 50.8721L16.9465 43.7705ZM25.5856 48.2402L16.9429 43.7686L13.2667 50.8739L21.9094 55.3455L25.5856 48.2402ZM22.7239 29.57C23.2607 29.5645 23.8201 29.7635 24.2506 30.1771L18.7077 35.9457C19.8533 37.0465 21.3405 37.5844 22.8051 37.5695L22.7239 29.57ZM21.2323 30.1986C21.6636 29.7727 22.2214 29.5725 22.7442 29.5698L22.7848 37.5697C24.2354 37.5623 25.7162 37.0138 26.8531 35.8913L21.2323 30.1986ZM30.5923 20.9709L21.2344 30.1964L26.8509 35.8934L36.2087 26.6679L30.5923 20.9709ZM30.6097 24.2044C29.7022 23.3295 29.6935 21.8584 30.59 20.9731L36.211 26.6657C38.5137 24.3919 38.4905 20.6897 36.1623 18.4451L30.6097 24.2044ZM33.6329 24.1851C32.784 25.0234 31.4559 25.0174 30.6146 24.2091L36.1574 18.4404C33.8906 16.2624 30.2671 16.2658 28.012 18.4926L33.6329 24.1851ZM25.5459 32.1564L33.6304 24.1876L28.0145 18.4901L19.93 26.4589L25.5459 32.1564ZM16.6558 29.0095L19.9659 32.1914L25.5099 26.4239L22.1998 23.242L16.6558 29.0095ZM19.6698 28.9933C18.8338 29.816 17.5072 29.8276 16.6564 29.0101L22.1992 23.2414C19.9228 21.0543 16.3056 21.08 14.0586 23.2912L19.6698 28.9933ZM19.6525 25.7526C20.5631 26.6275 20.5721 28.1024 19.6747 28.9885L14.0537 23.296C11.7501 25.5707 11.7736 29.2766 14.1098 31.5213L19.6525 25.7526ZM24.2526 30.1791L19.6547 25.7546L14.1076 31.5192L18.7056 35.9437L24.2526 30.1791Z" fill="url(#paint0_linear_38_17783)" mask="url(#path-1-outside-1_38_17783)"/>
<defs>
<linearGradient id="paint0_linear_38_17783" x1="44.9987" y1="28.508" x2="-0.612625" y2="28.508" gradientUnits="userSpaceOnUse">
<stop stop-color="#001F6D"/>
<stop offset="0.5" stop-color="#0737B1"/>
<stop offset="1" stop-color="#0035BA"/>
</linearGradient>
</defs>
</svg>
