<svg width="42" height="48" viewBox="0 0 42 48" fill="none" xmlns="http://www.w3.org/2000/svg">
<path fill-rule="evenodd" clip-rule="evenodd" d="M31.329 29.3984C30.2304 29.3984 29.1768 29.8348 28.4 30.6116C27.6232 31.3884 27.1868 32.442 27.1868 33.5406V34.4005H35.4712V33.5406C35.4712 32.442 35.0347 31.3884 34.2579 30.6116C33.4811 29.8348 32.4276 29.3984 31.329 29.3984ZM24.5293 33.5406C24.551 31.7516 25.2768 30.0432 26.5496 28.7858C27.8223 27.5284 29.5393 26.8232 31.3285 26.8232C33.1176 26.8232 34.8346 27.5284 36.1074 28.7858C37.3801 30.0432 38.106 31.7516 38.1277 33.5406V35.7288C38.1277 36.4622 37.5328 37.057 36.7994 37.057H25.8585C25.684 37.0572 25.5112 37.0229 25.3499 36.9562C25.1887 36.8895 25.0421 36.7917 24.9187 36.6683C24.7952 36.545 24.6973 36.3985 24.6305 36.2373C24.5637 36.0761 24.5293 35.9033 24.5293 35.7288V33.5406ZM31.329 38.7769C32.0624 38.7769 32.6572 39.3717 32.6572 40.1051V42.2943C32.6572 42.6467 32.5172 42.9847 32.268 43.2339C32.0189 43.483 31.6809 43.623 31.3285 43.623C30.9761 43.623 30.6381 43.483 30.3889 43.2339C30.1397 42.9847 29.9997 42.6467 29.9997 42.2943V40.1051C29.9997 39.3717 30.5946 38.7769 31.329 38.7769Z" fill="url(#paint0_linear_1697_32523)"/>
<path fill-rule="evenodd" clip-rule="evenodd" d="M27.48 34.4014H35.1754L35.4674 34.4024C37.1755 34.4422 38.8025 35.1385 40.0106 36.3467C41.2186 37.5549 41.9147 39.1821 41.9542 40.8902C41.9562 40.9679 41.9562 41.0546 41.9562 41.1821V41.218L41.9552 41.51C41.9154 43.218 41.2191 44.8451 40.0109 46.0531C38.8027 47.2612 37.1755 47.9572 35.4674 47.9968C35.3897 47.9997 35.303 47.9997 35.1754 47.9997H27.48C27.3524 47.9997 27.2657 47.9997 27.189 47.9978C25.4808 47.9582 23.8534 47.262 22.6452 46.0538C21.437 44.8455 20.7407 43.2182 20.7012 41.51C20.6992 41.4332 20.6992 41.3455 20.6992 41.217V41.1811C20.6992 41.0536 20.6992 40.9659 20.7012 40.8892C20.741 39.1813 21.4372 37.5543 22.6452 36.3463C23.8532 35.1383 25.4801 34.4421 27.188 34.4024C27.2657 34.4004 27.3524 34.4014 27.48 34.4014ZM27.4989 37.0579L27.2498 37.0589C26.2249 37.0827 25.2485 37.5005 24.5237 38.2256C23.7989 38.9506 23.3813 39.927 23.3577 40.952L23.3567 41.2011V41.4482C23.38 42.4736 23.7978 43.4506 24.5231 44.1759C25.2484 44.9012 26.2253 45.3189 27.2508 45.3422H35.4076C36.4325 45.3184 37.4089 44.9006 38.1337 44.1756C38.8585 43.4505 39.2761 42.4741 39.2997 41.4492V40.952C39.2759 39.927 38.858 38.9507 38.133 38.2259C37.408 37.501 36.4315 37.0834 35.4066 37.0599C35.3236 37.059 35.2405 37.059 35.1575 37.0599H27.4999L27.4989 37.0579Z" fill="url(#paint1_linear_1697_32523)"/>
<path d="M11.699 12.5C10.8706 12.5 10.1992 13.1719 10.1992 14.0005C10.1992 14.3983 10.3572 14.7797 10.6385 15.061C10.9197 15.3422 11.3012 15.5002 11.699 15.5002H25.6992C26.0971 15.5002 26.4786 15.3422 26.76 15.0609C27.0413 14.7795 27.1993 14.398 27.1993 14.0001C27.1993 13.6023 27.0413 13.2207 26.76 12.9394C26.4786 12.658 26.0971 12.5 25.6992 12.5H11.699ZM11.699 20.5002C10.871 20.5002 10.1994 21.1717 10.1992 21.9996L10.1992 22C10.1991 22.1969 10.2378 22.3919 10.3131 22.5739C10.3884 22.756 10.4988 22.9215 10.6381 23.0608C10.7774 23.2002 10.9428 23.3108 11.1248 23.3862C11.3068 23.4617 11.5019 23.5005 11.699 23.5005H25.6992C26.0971 23.5005 26.4786 23.3425 26.76 23.0611C27.0413 22.7798 27.1993 22.3982 27.1993 22.0004C27.1993 21.6025 27.0413 21.221 26.76 20.9396C26.4786 20.6583 26.0971 20.5002 25.6992 20.5002H11.699ZM11.699 28.5005C10.871 28.5005 10.1994 29.1719 10.1992 29.9999L10.1992 30.0002C10.1991 30.1972 10.2378 30.3922 10.3131 30.5742C10.3884 30.7562 10.4988 30.9217 10.6381 31.0611C10.7774 31.2005 10.9427 31.311 11.1248 31.3865C11.3068 31.4619 11.5019 31.5007 11.699 31.5007H17.699C18.0968 31.5007 18.4784 31.3427 18.7597 31.0614C19.041 30.78 19.1991 30.3985 19.1991 30.0006C19.1991 29.6028 19.041 29.2212 18.7597 28.9399C18.4784 28.6585 18.0968 28.5005 17.699 28.5005H11.699Z" fill="url(#paint2_linear_1697_32523)" stroke="url(#paint3_linear_1697_32523)"/>
<path fill-rule="evenodd" clip-rule="evenodd" d="M2.40027 6.00023C2.40027 5.04546 2.77955 4.12979 3.45467 3.45467C4.1298 2.77955 5.04546 2.40027 6.00023 2.40027H32.3996C33.3544 2.40027 34.27 2.77955 34.9451 3.45467C35.6203 4.12979 35.9996 5.04546 35.9996 6.00023V25.2006C35.9996 25.5189 36.126 25.8241 36.3511 26.0492C36.5761 26.2743 36.8814 26.4007 37.1997 26.4007C37.518 26.4007 37.8232 26.2743 38.0483 26.0492C38.2734 25.8241 38.3998 25.5189 38.3998 25.2006V6.00023C38.3998 4.40887 37.7677 2.88269 36.6424 1.75742C35.5171 0.632164 33.991 0 32.3996 0H6.00023C4.40887 0 2.88269 0.632164 1.75743 1.75742C0.632164 2.88269 0 4.40887 0 6.00023V41.9998C0 43.5911 0.632164 45.1173 1.75743 46.2426C2.88269 47.3678 4.40887 48 6.00023 48H17.9998C18.3181 48 18.6233 47.8736 18.8484 47.6485C19.0735 47.4234 19.1999 47.1182 19.1999 46.7999C19.1999 46.4816 19.0735 46.1763 18.8484 45.9512C18.6233 45.7262 18.3181 45.5997 17.9998 45.5997H6.00023C5.04546 45.5997 4.1298 45.2205 3.45467 44.5453C2.77955 43.8702 2.40027 42.9545 2.40027 41.9998V6.00023Z" fill="url(#paint4_linear_1697_32523)" stroke="url(#paint5_linear_1697_32523)"/>
<defs>
<linearGradient id="paint0_linear_1697_32523" x1="38.1939" y1="35.4009" x2="22.9919" y2="35.4009" gradientUnits="userSpaceOnUse">
<stop stop-color="#001F6D"/>
<stop offset="0.5" stop-color="#0737B1"/>
<stop offset="1" stop-color="#0035BA"/>
</linearGradient>
<linearGradient id="paint1_linear_1697_32523" x1="42.0597" y1="41.344" x2="18.296" y2="41.344" gradientUnits="userSpaceOnUse">
<stop stop-color="#001F6D"/>
<stop offset="0.5" stop-color="#0737B1"/>
<stop offset="1" stop-color="#0035BA"/>
</linearGradient>
<linearGradient id="paint2_linear_1697_32523" x1="26.7772" y1="22.1909" x2="8.89033" y2="22.1909" gradientUnits="userSpaceOnUse">
<stop stop-color="#001F6D"/>
<stop offset="0.5" stop-color="#0737B1"/>
<stop offset="1" stop-color="#0035BA"/>
</linearGradient>
<linearGradient id="paint3_linear_1697_32523" x1="26.7772" y1="22.1909" x2="8.89033" y2="22.1909" gradientUnits="userSpaceOnUse">
<stop stop-color="#001F6D"/>
<stop offset="0.5" stop-color="#0737B1"/>
<stop offset="1" stop-color="#0035BA"/>
</linearGradient>
<linearGradient id="paint4_linear_1697_32523" x1="38.5868" y1="24.5079" x2="-4.34127" y2="24.5079" gradientUnits="userSpaceOnUse">
<stop stop-color="#001F6D"/>
<stop offset="0.5" stop-color="#0737B1"/>
<stop offset="1" stop-color="#0035BA"/>
</linearGradient>
<linearGradient id="paint5_linear_1697_32523" x1="38.5868" y1="24.5079" x2="-4.34127" y2="24.5079" gradientUnits="userSpaceOnUse">
<stop stop-color="#001F6D"/>
<stop offset="0.5" stop-color="#0737B1"/>
<stop offset="1" stop-color="#0035BA"/>
</linearGradient>
</defs>
</svg>
