<svg width="50" height="48" viewBox="0 0 50 48" fill="none" xmlns="http://www.w3.org/2000/svg">
<path d="M38.3175 29.2202C37.7347 29.785 37.467 30.6017 37.5997 31.4027L39.6 42.4727C39.7687 43.411 39.3727 44.3605 38.5875 44.9027C37.818 45.4652 36.7942 45.5327 35.955 45.0827L25.9897 39.8852C25.6432 39.7007 25.2585 39.6017 24.8647 39.5905H24.255C24.0435 39.622 23.8365 39.6895 23.6475 39.793L13.68 45.0152C13.1872 45.2627 12.6292 45.3505 12.0825 45.2627C10.7505 45.0107 9.86172 43.7417 10.08 42.403L12.0825 31.333C12.2152 30.5252 11.9475 29.704 11.3647 29.1302L3.23997 21.2552C2.56047 20.596 2.32422 19.606 2.63472 18.7127C2.93622 17.8217 3.70572 17.1715 4.63497 17.0252L15.8175 15.403C16.668 15.3152 17.415 14.7977 17.7975 14.0327L22.725 3.93024C22.842 3.70524 22.9927 3.49824 23.175 3.32274L23.3775 3.16524C23.4832 3.04824 23.6047 2.95149 23.7397 2.87274L23.985 2.78274L24.3675 2.62524H25.3147C26.1607 2.71299 26.9055 3.21924 27.2947 3.97524L32.2875 14.0327C32.6475 14.7685 33.3472 15.2792 34.155 15.403L45.3375 17.0252C46.2825 17.1602 47.0722 17.8127 47.385 18.7127C47.6797 19.615 47.4255 20.605 46.7325 21.2552L38.3175 29.2202Z" stroke="url(#paint0_linear_305_11898)" stroke-width="4"/>
<defs>
<linearGradient id="paint0_linear_305_11898" x1="47.725" y1="24.4541" x2="-2.58811" y2="24.4541" gradientUnits="userSpaceOnUse">
<stop stop-color="#001F6D"/>
<stop offset="0.5" stop-color="#0737B1"/>
<stop offset="1" stop-color="#0035BA"/>
</linearGradient>
</defs>
</svg>
