<svg width="244" height="200" viewBox="0 0 244 200" fill="none" xmlns="http://www.w3.org/2000/svg">
<circle cx="121.642" cy="99.7813" r="64.3357" fill="#16AA63" stroke="#16AA63" stroke-width="6.74561"/>
<mask id="mask0_3_62929" style="mask-type:luminance" maskUnits="userSpaceOnUse" x="0" y="0" width="244" height="200">
<path d="M243.519 0H0.481445V200H243.519V0Z" fill="white"/>
</mask>
<g mask="url(#mask0_3_62929)">
<g opacity="0.05">
<path d="M203.463 56.0235C201.381 52.4197 196.773 51.185 193.17 53.2655L154.737 75.4508C157.521 72.8331 157.906 68.545 155.631 65.4741C153.355 62.403 149.141 61.5222 145.826 63.4245L145.103 63.8465C145.522 63.4561 145.984 63.1141 146.479 62.8263L166.057 51.5235C169.374 49.6083 170.726 45.5101 169.201 41.9969C167.676 38.484 163.758 36.6741 160.095 37.7901L170.918 31.5415C174.523 29.4607 175.759 24.8508 173.679 21.2453C171.598 17.6397 166.989 16.4035 163.382 18.4842L39.3971 90.0693C35.7928 92.1501 34.5579 96.7589 36.6387 100.363C38.7194 103.968 43.3283 105.203 46.9326 103.122L59.9852 95.5865C63.5895 93.506 68.1984 94.7412 70.2792 98.3455C72.3599 101.95 71.1247 106.558 67.5202 108.639L41.4164 123.71C39.0657 125.047 37.6116 127.54 37.6057 130.244C37.5997 132.948 39.043 135.448 41.3875 136.795C43.7323 138.141 46.6194 138.129 48.9521 136.761L61.2827 129.642C58.4837 132.257 58.0916 136.555 60.3713 139.632C62.6508 142.711 66.8766 143.589 70.1941 141.674L43.4346 157.348C41.0837 158.684 39.6293 161.178 39.6232 163.881C39.6174 166.586 41.0607 169.085 43.4055 170.432C45.7503 171.779 48.6371 171.766 50.9701 170.398L89.3997 148.209C86.6042 150.824 86.2144 155.12 88.4928 158.197C90.7713 161.272 94.9946 162.152 98.3111 160.239L189.672 107.493C193.151 105.475 194.433 101.081 192.583 97.5091C190.734 93.9377 186.406 92.448 182.75 94.125C185.622 91.5468 186.083 87.2146 183.816 84.0906C181.549 80.9665 177.287 80.061 173.946 81.9931L200.703 66.3197C202.435 65.3207 203.698 63.6746 204.216 61.7435C204.734 59.8123 204.463 57.7546 203.463 56.0235Z" fill="#16AA63"/>
</g>
<path d="M202.082 30.3274L209.603 33.0245L206.91 40.5473L199.383 37.8532L202.082 30.3274ZM208.254 33.6621L202.72 31.6795L200.739 37.2125L206.272 39.1954L208.254 33.6621Z" fill="#001F6D"/>
<path d="M26.365 119.699L29.0578 127.222L21.5363 129.918L18.8378 122.393L26.365 119.699ZM27.7087 126.584L25.7262 121.051L20.1938 123.034L22.1749 128.567L27.7087 126.584Z" fill="#001F6D"/>
<path d="M178.255 127.843L180.391 133.804L174.429 135.941L172.292 129.978L178.255 127.843ZM179.041 133.167L177.617 129.192L173.641 130.616L175.066 134.591L179.041 133.167Z" fill="#02CCAA"/>
<path d="M83.7787 184.176C82.2013 184.176 80.9229 182.897 80.9229 181.32C80.9229 179.743 82.2013 178.464 83.7787 178.464C85.3559 178.464 86.6345 179.743 86.6345 181.32C86.6327 182.896 85.3551 184.174 83.7787 184.176ZM83.7787 179.218C82.6181 179.218 81.6772 180.159 81.6772 181.32C81.6772 182.48 82.6181 183.421 83.7787 183.421C84.9393 183.421 85.8802 182.48 85.8802 181.32C85.8791 180.16 84.9389 179.22 83.7787 179.218Z" fill="#008BFF"/>
<path d="M116.624 21.8673C114.796 21.8658 113.315 20.383 113.315 18.5547C113.316 16.7263 114.799 15.2449 116.627 15.2454C118.456 15.2458 119.937 16.728 119.937 18.5563C119.935 20.3851 118.453 21.8667 116.624 21.8673ZM116.624 16.12C115.279 16.1212 114.189 17.2128 114.19 18.558C114.191 19.9032 115.282 20.9931 116.627 20.9927C117.973 20.9923 119.063 19.9017 119.063 18.5563C119.062 17.2105 117.97 16.12 116.624 16.12Z" fill="#008BFF"/>
<path d="M221.675 101.998C219.123 101.998 217.055 99.929 217.055 97.3772C217.055 94.8254 219.123 92.7568 221.675 92.7568C224.227 92.7568 226.296 94.8254 226.296 97.3772C226.293 99.9278 224.226 101.995 221.675 101.998ZM221.676 93.9771C219.798 93.9771 218.275 95.4993 218.275 97.3772C218.275 99.2553 219.797 100.778 221.675 100.778C223.553 100.778 225.075 99.2553 225.075 97.3772C225.074 95.5005 223.553 93.9791 221.676 93.9771Z" fill="#008BFF"/>
<path d="M137.354 161.994L145.143 158.314L144.436 166.899L137.354 161.994ZM143.937 160.051L139.452 162.169L143.529 164.994L143.937 160.051Z" fill="#EA3940"/>
<path d="M52.5181 54.4539L60.3072 50.7738L59.5998 59.359L52.5181 54.4539ZM59.1007 52.5109L54.6165 54.6295L58.6929 57.4537L59.1007 52.5109Z" fill="#EA3940"/>
<path d="M79.8584 92.5476L108.812 123.153L164.101 75.3162" stroke="white" stroke-width="11.8048"/>
</g>
</svg>
