<svg width="50" height="46" viewBox="0 0 50 46" fill="none" xmlns="http://www.w3.org/2000/svg">
<path d="M2.995 19.3861L4.40271 17.9654L4.40271 17.9654L2.995 19.3861ZM2.5 18.2045L0.5 18.203V18.2045H2.5ZM2.5045 11.9866L4.5045 11.988V11.9866H2.5045ZM47.4977 11.9866H45.4977V11.9873L47.4977 11.9866ZM47.5 18.0105H49.5V18.0098L47.5 18.0105ZM47.0073 19.1921L48.415 20.6128L48.415 20.6128L47.0073 19.1921ZM32.7197 21.8988L31.3368 20.4538L31.331 20.4595L32.7197 21.8988ZM30.0669 24.4582L28.6783 23.0189L27.9151 23.7552L28.0964 24.8L30.0669 24.4582ZM33.1404 20.2044L31.2406 20.8293L31.2427 20.8357L33.1404 20.2044ZM31.7994 19.0874L31.5129 21.0668L31.5241 21.0684L31.7994 19.0874ZM28.1342 18.5568L26.3442 19.4491L26.8113 20.3862L27.8476 20.5362L28.1342 18.5568ZM26.4939 15.2662L24.7027 16.1558L24.704 16.1584L26.4939 15.2662ZM25.0044 14.3454L25.0114 12.3454H25.0044V14.3454ZM23.5082 15.264L21.7226 14.3629L21.718 14.3722L23.5082 15.264ZM21.8679 18.5568L22.1538 20.5363L23.1909 20.3865L23.6581 19.4486L21.8679 18.5568ZM18.2094 19.0852L18.4888 21.0656L18.4953 21.0647L18.2094 19.0852ZM16.8594 20.2044L14.9617 19.5731L14.9596 19.5795L16.8594 20.2044ZM17.2802 21.8988L18.6688 20.4595L18.6665 20.4572L17.2802 21.8988ZM19.9329 24.4582L21.9037 24.7988L22.0842 23.7546L21.3216 23.0189L19.9329 24.4582ZM19.3074 28.0765L21.2782 28.4175L21.2782 28.4172L19.3074 28.0765ZM19.9712 29.6929L18.8031 31.3164L18.8146 31.3245L19.9712 29.6929ZM21.7194 29.8155L20.7959 28.0415L20.7926 28.0432L21.7194 29.8155ZM24.9999 28.1078L25.923 26.3335L24.9997 25.8531L24.0764 26.3337L24.9999 28.1078ZM28.2737 29.811L29.2114 28.0445L29.2041 28.0406L29.1968 28.0368L28.2737 29.811ZM30.0287 29.6907L28.8686 28.0615L28.8606 28.0672L28.8527 28.0729L30.0287 29.6907ZM30.6947 28.0765L32.6654 27.7356L32.6652 27.7347L30.6947 28.0765ZM45.8125 24.3219C45.0525 24.3219 44.4622 23.7108 44.4622 23.0022H40.4622C40.4622 25.9544 42.878 28.3219 45.8125 28.3219V24.3219ZM49.5 27.9939C49.5 25.9491 47.8312 24.3219 45.8125 24.3219V28.3219C45.6568 28.3219 45.5 28.1928 45.5 27.9939H49.5ZM49.5 34.0157V27.9939H45.5V34.0157H49.5ZM38.1805 45.25C44.4067 45.25 49.5 40.2295 49.5 34.0157H45.5C45.5 37.9859 42.2323 41.25 38.1805 41.25V45.25ZM11.8218 45.25H38.1805V41.25H11.8218V45.25ZM0.5 34.0157C0.5 40.2302 5.59616 45.25 11.8218 45.25V41.25C7.76934 41.25 4.5 37.9852 4.5 34.0157H0.5ZM0.5 27.9939V34.0157H4.5V27.9939H0.5ZM4.1875 24.3219C2.16878 24.3219 0.5 25.9491 0.5 27.9939H4.5C4.5 28.1928 4.34322 28.3219 4.1875 28.3219V24.3219ZM5.54 23.0022C5.54 23.7099 4.95066 24.3219 4.1875 24.3219V28.3219C7.12334 28.3219 9.54 25.9553 9.54 23.0022H5.54ZM4.1875 21.8766C5.12856 21.8766 5.54 22.4539 5.54 23.0022H9.54C9.54 19.9834 7.06694 17.8766 4.1875 17.8766V21.8766ZM1.58729 20.8068C2.27915 21.4923 3.21261 21.8766 4.1875 21.8766V17.8766C4.26689 17.8766 4.34535 17.9086 4.40271 17.9654L1.58729 20.8068ZM0.5 18.2045C0.5 19.1835 0.893829 20.1196 1.58729 20.8068L4.40271 17.9654C4.46167 18.0238 4.5 18.1083 4.5 18.2045H0.5ZM0.504501 11.9851L0.5 18.203L4.5 18.2059L4.5045 11.988L0.504501 11.9851ZM11.824 0.75C5.59715 0.75 0.5045 5.77331 0.5045 11.9866H4.5045C4.5045 8.01574 7.77285 4.75 11.824 4.75V0.75ZM38.176 0.75H11.824V4.75H38.176V0.75ZM49.4977 11.9866C49.4977 5.77269 44.4022 0.75 38.176 0.75V4.75C42.2278 4.75 45.4977 8.01637 45.4977 11.9866H49.4977ZM49.5 18.0098L49.4977 11.9858L45.4977 11.9873L45.5 18.0113L49.5 18.0098ZM48.415 20.6128C49.1096 19.9245 49.5 18.9847 49.5 18.0105H45.5C45.5 17.9192 45.5349 17.8355 45.5995 17.7714L48.415 20.6128ZM45.8125 21.6826C46.7882 21.6826 47.7221 21.2993 48.415 20.6128L45.5996 17.7714C45.6579 17.7136 45.7368 17.6826 45.8125 17.6826V21.6826ZM44.4622 23.0022C44.4622 22.2937 45.0525 21.6826 45.8125 21.6826V17.6826C42.878 17.6826 40.4622 20.05 40.4622 23.0022H44.4622ZM31.331 20.4595L28.6783 23.0189L31.4556 25.8975L34.1083 23.3381L31.331 20.4595ZM31.2427 20.8357C31.2233 20.7774 31.2184 20.7051 31.2367 20.6313C31.255 20.5572 31.2932 20.4956 31.3369 20.4538L34.1025 23.3437C35.1233 22.3668 35.482 20.9071 35.0382 19.5731L31.2427 20.8357ZM31.5241 21.0684C31.4 21.0512 31.283 20.9583 31.2406 20.8293L35.0403 19.5795C34.6019 18.2466 33.4499 17.2976 32.0748 17.1065L31.5241 21.0684ZM27.8476 20.5362L31.5129 21.0668L32.086 17.1081L28.4207 16.5775L27.8476 20.5362ZM24.704 16.1584L26.3442 19.4491L29.9241 17.6646L28.2839 14.374L24.704 16.1584ZM24.9974 16.3454C24.8878 16.345 24.7628 16.2769 24.7027 16.1558L28.2852 14.3765C27.6626 13.1229 26.3946 12.3503 25.0114 12.3454L24.9974 16.3454ZM24.9999 16.3454H25.0044V12.3454H24.9999V16.3454ZM25.2937 16.165C25.2398 16.2718 25.1213 16.3454 24.9999 16.3454V12.3454C23.6096 12.3454 22.348 13.1236 21.7226 14.3629L25.2937 16.165ZM23.6581 19.4486L25.2984 16.1557L21.718 14.3722L20.0777 17.6651L23.6581 19.4486ZM18.4953 21.0647L22.1538 20.5363L21.5821 16.5774L17.9236 17.1058L18.4953 21.0647ZM18.7572 20.8357C18.7381 20.8931 18.7005 20.9494 18.6484 20.9926C18.5965 21.0356 18.5389 21.0585 18.4888 21.0656L17.9301 17.1048C16.5554 17.2987 15.4046 18.2418 14.9617 19.5731L18.7572 20.8357ZM18.6665 20.4572C18.7102 20.4992 18.7472 20.5598 18.7649 20.6313C18.7825 20.7024 18.778 20.7723 18.7593 20.8293L14.9596 19.5795C14.5223 20.9089 14.8786 22.364 15.8938 23.3403L18.6665 20.4572ZM21.3216 23.0189L18.6688 20.4595L15.8915 23.3381L18.5443 25.8975L21.3216 23.0189ZM21.2782 28.4172L21.9037 24.7988L17.9622 24.1175L17.3367 27.7359L21.2782 28.4172ZM21.1392 28.0694C21.1841 28.1017 21.2275 28.153 21.2549 28.2196C21.2823 28.2864 21.2887 28.3567 21.2782 28.4175L17.3367 27.7356C17.0973 29.1194 17.6683 30.4999 18.8032 31.3164L21.1392 28.0694ZM20.9477 28.0072C21.022 28.0072 21.0856 28.0314 21.1278 28.0612L18.8146 31.3245C19.4417 31.7691 20.1849 32.0072 20.9477 32.0072V28.0072ZM20.7926 28.0432C20.8322 28.0225 20.8843 28.0072 20.9477 28.0072V32.0072C21.5376 32.0072 22.1206 31.8627 22.6463 31.5878L20.7926 28.0432ZM24.0764 26.3337L20.7959 28.0415L22.6429 31.5895L25.9234 29.8818L24.0764 26.3337ZM29.1968 28.0368L25.923 26.3335L24.0768 29.882L27.3506 31.5853L29.1968 28.0368ZM28.8527 28.0729C28.9007 28.038 28.9641 28.0137 29.0332 28.0089C29.1022 28.0041 29.1648 28.0197 29.2114 28.0445L27.336 31.5776C28.5739 32.2347 30.0673 32.1352 31.2047 31.3084L28.8527 28.0729ZM28.724 28.4175C28.7135 28.3569 28.7196 28.2856 28.7479 28.2171C28.7761 28.1485 28.8214 28.0951 28.8686 28.0615L31.1887 31.3198C32.3341 30.5043 32.9048 29.1191 32.6654 27.7356L28.724 28.4175ZM28.0964 24.8L28.7241 28.4184L32.6652 27.7347L32.0375 24.1163L28.0964 24.8Z" fill="url(#paint0_linear_305_6308)"/>
<defs>
<linearGradient id="paint0_linear_305_6308" x1="47.7191" y1="23.4286" x2="-2.58745" y2="23.4286" gradientUnits="userSpaceOnUse">
<stop stop-color="#001F6D"/>
<stop offset="0.5" stop-color="#0737B1"/>
<stop offset="1" stop-color="#0035BA"/>
</linearGradient>
</defs>
</svg>
