<svg width="48" height="48" viewBox="0 0 48 48" fill="none" xmlns="http://www.w3.org/2000/svg">
<path d="M45.6342 17.3242V9.51315C45.6342 8.48556 45.226 7.50005 44.4994 6.77343C43.7728 6.04682 42.7872 5.63861 41.7597 5.63861H6.23783C5.21023 5.63861 4.22473 6.04682 3.49811 6.77343C2.77149 7.50005 2.36328 8.48556 2.36328 9.51315V30.9626C2.36328 31.9902 2.77149 32.9757 3.49811 33.7024C4.22473 34.429 5.21023 34.8372 6.23783 34.8372H15.5367C15.1653 35.8322 14.9743 36.8855 14.9726 37.9477C14.9688 39.269 15.2551 40.5751 15.8114 41.7737C16.3676 42.9722 17.1803 44.0341 18.1919 44.8841C19.2035 45.7342 20.3894 46.3518 21.6659 46.6933C22.9423 47.0348 24.2782 47.0919 25.5792 46.8605C26.8801 46.6292 28.1144 46.115 29.1948 45.3543C30.2753 44.5936 31.1756 43.605 31.832 42.4583C32.4885 41.3115 32.8852 40.0346 32.9941 38.7178C33.103 37.4009 32.9215 36.0762 32.4623 34.8372H41.7612C42.7888 34.8372 43.7743 34.429 44.5009 33.7024C45.2275 32.9757 45.6357 31.9902 45.6357 30.9626L45.6342 17.3242ZM3.9131 13.2312H44.0844V16.5679H3.9131V13.2312ZM6.23783 7.19617H41.7597C42.3762 7.19617 42.9675 7.4411 43.4035 7.87707C43.8395 8.31304 44.0844 8.90434 44.0844 9.5209V11.6813H3.9131V9.5209C3.9131 8.90434 4.15802 8.31304 4.594 7.87707C5.02997 7.4411 5.62127 7.19617 6.23783 7.19617ZM23.9987 45.4302C22.5201 45.4302 21.0746 44.9917 19.8451 44.1702C18.6156 43.3487 17.6574 42.181 17.0915 40.8149C16.5257 39.4488 16.3776 37.9456 16.6661 36.4953C16.9545 35.045 17.6666 33.7129 18.7122 32.6673C19.7578 31.6217 21.0899 30.9097 22.5402 30.6212C23.9904 30.3327 25.4937 30.4808 26.8598 31.0466C28.2259 31.6125 29.3936 32.5708 30.2151 33.8002C31.0366 35.0297 31.4751 36.4752 31.4751 37.9539C31.473 39.9361 30.6847 41.8365 29.283 43.2382C27.8814 44.6398 25.981 45.4281 23.9987 45.4302ZM41.7597 33.2874H31.7153C30.9152 31.9558 29.7841 30.8539 28.4321 30.0889C27.08 29.3239 25.553 28.9219 23.9995 28.9219C22.446 28.9219 20.919 29.3239 19.5669 30.0889C18.2149 30.8539 17.0838 31.9558 16.2837 33.2874H6.23783C5.62127 33.2874 5.02997 33.0424 4.594 32.6065C4.15802 32.1705 3.9131 31.5792 3.9131 30.9626V18.1177H44.0844V30.9626C44.0844 31.5792 43.8395 32.1705 43.4035 32.6065C42.9675 33.0424 42.3762 33.2874 41.7597 33.2874ZM40.9925 25.9536C40.9925 26.1591 40.9109 26.3562 40.7655 26.5016C40.6202 26.6469 40.4231 26.7285 40.2176 26.7285H34.8289C34.6234 26.7285 34.4263 26.6469 34.2809 26.5016C34.1356 26.3562 34.054 26.1591 34.054 25.9536C34.054 25.7481 34.1356 25.551 34.2809 25.4057C34.4263 25.2604 34.6234 25.1787 34.8289 25.1787H40.2176C40.3199 25.1787 40.4211 25.199 40.5156 25.2383C40.61 25.2776 40.6957 25.3352 40.7677 25.4079C40.8398 25.4805 40.8967 25.5666 40.9353 25.6614C40.9739 25.7561 40.9933 25.8575 40.9925 25.9598V25.9536ZM27.8888 34.8961C28.0366 35.0389 28.1215 35.2346 28.125 35.4401C28.1285 35.6456 28.0502 35.844 27.9074 35.9918L22.6659 41.4162C22.5937 41.4907 22.5072 41.5499 22.4116 41.5904C22.316 41.6309 22.2133 41.6517 22.1095 41.6517C22.0722 41.6515 22.0349 41.6489 21.9979 41.644C21.8763 41.6264 21.7605 41.5801 21.6603 41.509C21.56 41.4378 21.4782 41.3439 21.4214 41.2348L19.9599 38.425C19.865 38.2427 19.8463 38.0302 19.9081 37.8341C19.9698 37.6381 20.107 37.4746 20.2893 37.3797C20.4715 37.2847 20.6841 37.2661 20.8801 37.3278C21.0762 37.3896 21.2397 37.5267 21.3346 37.709L22.3001 39.5688L26.7946 34.9193C26.9376 34.7722 27.1331 34.6878 27.3382 34.6846C27.5433 34.6814 27.7413 34.7597 27.8888 34.9023V34.8961ZM30.119 1.77491C30.119 1.62165 30.1644 1.47183 30.2496 1.34439C30.3347 1.21696 30.4557 1.11764 30.5973 1.05899C30.7389 1.00034 30.8947 0.98499 31.0451 1.01489C31.1954 1.04479 31.3335 1.11859 31.4418 1.22697C31.5502 1.33534 31.624 1.47342 31.6539 1.62373C31.6838 1.77405 31.6685 1.92986 31.6098 2.07146C31.5512 2.21305 31.4518 2.33408 31.3244 2.41922C31.197 2.50437 31.0471 2.54982 30.8939 2.54982C30.7917 2.54982 30.6906 2.52962 30.5963 2.49039C30.5019 2.45116 30.4163 2.39366 30.3443 2.32121C30.2723 2.24876 30.2153 2.16279 30.1766 2.06823C30.138 1.97368 30.1184 1.87241 30.119 1.77026V1.77491ZM34.7684 1.77491C34.7684 1.62165 34.8139 1.47183 34.899 1.34439C34.9842 1.21696 35.1052 1.11764 35.2468 1.05899C35.3884 1.00034 35.5442 0.98499 35.6945 1.01489C35.8448 1.04479 35.9829 1.11859 36.0913 1.22697C36.1997 1.33534 36.2735 1.47342 36.3034 1.62373C36.3333 1.77405 36.3179 1.92986 36.2593 2.07146C36.2006 2.21305 36.1013 2.33408 35.9739 2.41922C35.8464 2.50437 35.6966 2.54982 35.5433 2.54982C35.4412 2.54982 35.34 2.52962 35.2457 2.49039C35.1514 2.45116 35.0658 2.39366 34.9937 2.32121C34.9217 2.24876 34.8647 2.16279 34.8261 2.06823C34.7874 1.97368 34.7678 1.87241 34.7684 1.77026V1.77491ZM39.4179 1.77491C39.4179 1.62165 39.4633 1.47183 39.5485 1.34439C39.6336 1.21696 39.7547 1.11764 39.8962 1.05899C40.0378 1.00034 40.1937 0.98499 40.344 1.01489C40.4943 1.04479 40.6324 1.11859 40.7407 1.22697C40.8491 1.33534 40.9229 1.47342 40.9528 1.62373C40.9827 1.77405 40.9674 1.92986 40.9087 2.07146C40.8501 2.21305 40.7507 2.33408 40.6233 2.41922C40.4959 2.50437 40.3461 2.54982 40.1928 2.54982C40.0906 2.54982 39.9895 2.52962 39.8952 2.49039C39.8008 2.45116 39.7152 2.39366 39.6432 2.32121C39.5712 2.24876 39.5142 2.16279 39.4755 2.06823C39.4369 1.97368 39.4173 1.87241 39.4179 1.77026V1.77491Z" fill="url(#paint0_linear_1697_32534)" stroke="url(#paint1_linear_1697_32534)" stroke-width="1.5"/>
<defs>
<linearGradient id="paint0_linear_1697_32534" x1="45.8464" y1="24.4868" x2="-2.52886" y2="24.4868" gradientUnits="userSpaceOnUse">
<stop stop-color="#001F6D"/>
<stop offset="0.5" stop-color="#0737B1"/>
<stop offset="1" stop-color="#0035BA"/>
</linearGradient>
<linearGradient id="paint1_linear_1697_32534" x1="45.8464" y1="24.4868" x2="-2.52886" y2="24.4868" gradientUnits="userSpaceOnUse">
<stop stop-color="#001F6D"/>
<stop offset="0.5" stop-color="#0737B1"/>
<stop offset="1" stop-color="#0035BA"/>
</linearGradient>
</defs>
</svg>
