<svg width="25" height="25" viewBox="0 0 25 25" fill="none" xmlns="http://www.w3.org/2000/svg">
<g id="ep:location">
<path id="Vector" d="M19.3984 10.5681C19.3984 8.7779 18.6873 7.06101 17.4214 5.79514C16.1555 4.52927 14.4386 3.81812 12.6484 3.81812C10.8582 3.81812 9.14134 4.52927 7.87547 5.79514C6.6096 7.06101 5.89844 8.7779 5.89844 10.5681C5.89844 13.3371 8.11394 16.9461 12.6484 21.2691C17.1829 16.9461 19.3984 13.3371 19.3984 10.5681ZM12.6484 23.3181C7.14794 18.3186 4.39844 14.0676 4.39844 10.5681C4.39844 8.38008 5.26763 6.28166 6.81481 4.73448C8.36198 3.18731 10.4604 2.31812 12.6484 2.31812C14.8365 2.31812 16.9349 3.18731 18.4821 4.73448C20.0292 6.28166 20.8984 8.38008 20.8984 10.5681C20.8984 14.0676 18.1489 18.3186 12.6484 23.3181Z" fill="black"/>
<path id="Vector_2" d="M12.6484 12.8181C13.2452 12.8181 13.8175 12.5811 14.2394 12.1591C14.6614 11.7371 14.8984 11.1649 14.8984 10.5681C14.8984 9.97138 14.6614 9.39908 14.2394 8.97712C13.8175 8.55517 13.2452 8.31812 12.6484 8.31812C12.0517 8.31812 11.4794 8.55517 11.0574 8.97712C10.6355 9.39908 10.3984 9.97138 10.3984 10.5681C10.3984 11.1649 10.6355 11.7371 11.0574 12.1591C11.4794 12.5811 12.0517 12.8181 12.6484 12.8181ZM12.6484 14.3181C11.6539 14.3181 10.7 13.923 9.99679 13.2198C9.29353 12.5165 8.89844 11.5627 8.89844 10.5681C8.89844 9.57355 9.29353 8.61973 9.99679 7.91646C10.7 7.2132 11.6539 6.81812 12.6484 6.81812C13.643 6.81812 14.5968 7.2132 15.3001 7.91646C16.0033 8.61973 16.3984 9.57355 16.3984 10.5681C16.3984 11.5627 16.0033 12.5165 15.3001 13.2198C14.5968 13.923 13.643 14.3181 12.6484 14.3181Z" fill="black"/>
</g>
</svg>
