<svg width="19" height="25" viewBox="0 0 19 25" fill="none" xmlns="http://www.w3.org/2000/svg">
<path id="Vector" d="M2.0788 7.77926C1.733 5.50171 3.33887 3.4559 5.79204 2.70637C6.22737 2.57327 6.69708 2.61116 7.10545 2.81231C7.51382 3.01347 7.83013 3.36276 7.98993 3.78902L8.77748 5.88915C8.90426 6.227 8.92718 6.59503 8.84331 6.94601C8.75944 7.29698 8.57259 7.61489 8.30676 7.85892L5.96403 10.0043C5.84855 10.1103 5.76251 10.2444 5.71428 10.3935C5.66605 10.5426 5.65729 10.7017 5.68884 10.8552L5.71057 10.9494L5.76669 11.1847C6.05804 12.3283 6.50197 13.4274 7.08651 14.4526C7.72327 15.5419 8.51348 16.534 9.43286 17.3982L9.50528 17.4634C9.62224 17.5672 9.76409 17.6389 9.91702 17.6716C10.07 17.7043 10.2287 17.6968 10.3779 17.6499L13.4068 16.6957C13.751 16.5877 14.1197 16.5849 14.4655 16.6878C14.8113 16.7907 15.1185 16.9946 15.3476 17.2733L16.7815 19.0131C17.3789 19.7373 17.3065 20.8018 16.6204 21.4409C14.7429 23.1916 12.1612 23.5501 10.3652 22.1072C8.16378 20.3314 6.30793 18.1656 4.89043 15.7181C3.46143 13.2724 2.50871 10.579 2.0788 7.77926ZM7.58801 10.9747L9.52882 9.19322C10.0608 8.70537 10.4348 8.06966 10.6029 7.3677C10.771 6.66573 10.7254 5.92956 10.4721 5.25368L9.68632 3.15355C9.36469 2.29584 8.72811 1.59305 7.90631 1.18837C7.08452 0.783698 6.13934 0.707596 5.26339 0.975575C2.21639 1.90796 -0.229529 4.63993 0.288261 8.05264C0.650351 10.4352 1.48497 13.4659 3.3262 16.6306C4.85551 19.2697 6.85741 21.6048 9.2319 23.5193C11.9259 25.6828 15.5214 24.9442 17.8569 22.768C18.5252 22.1458 18.9308 21.292 18.991 20.3809C19.0512 19.4698 18.7615 18.5701 18.181 17.8653L16.7471 16.1236C16.2884 15.5669 15.6738 15.1598 14.9823 14.9547C14.2907 14.7495 13.5536 14.7556 12.8655 14.9722L10.3508 15.7634C9.70148 15.0939 9.13275 14.3508 8.65618 13.5492C8.19582 12.7387 7.83706 11.8747 7.58801 10.9765V10.9747Z" fill="black"/>
</svg>
