<svg width="24" height="25" viewBox="0 0 24 25" fill="none" xmlns="http://www.w3.org/2000/svg">
<g id="ic:baseline-whatsapp">
<path id="Vector" d="M19.0469 5.72817C18.1301 4.8021 17.0381 4.06784 15.8345 3.56823C14.631 3.06861 13.34 2.81364 12.0369 2.81817C6.57687 2.81817 2.12688 7.26817 2.12688 12.7282C2.12688 14.4782 2.58688 16.1782 3.44688 17.6782L2.04688 22.8182L7.29688 21.4382C8.74687 22.2282 10.3769 22.6482 12.0369 22.6482C17.4969 22.6482 21.9469 18.1982 21.9469 12.7382C21.9469 10.0882 20.9169 7.59817 19.0469 5.72817ZM12.0369 20.9682C10.5569 20.9682 9.10687 20.5682 7.83687 19.8182L7.53687 19.6382L4.41688 20.4582L5.24688 17.4182L5.04688 17.1082C4.22462 15.7951 3.78802 14.2774 3.78688 12.7282C3.78688 8.18817 7.48687 4.48817 12.0269 4.48817C14.2269 4.48817 16.2969 5.34818 17.8469 6.90817C18.6144 7.67214 19.2226 8.58084 19.6363 9.5816C20.05 10.5824 20.2609 11.6553 20.2569 12.7382C20.2769 17.2782 16.5769 20.9682 12.0369 20.9682ZM16.5569 14.8082C16.3069 14.6882 15.0869 14.0882 14.8669 13.9982C14.6369 13.9182 14.4769 13.8782 14.3069 14.1182C14.1369 14.3682 13.6669 14.9282 13.5269 15.0882C13.3869 15.2582 13.2369 15.2782 12.9869 15.1482C12.7369 15.0282 11.9369 14.7582 10.9969 13.9182C10.2569 13.2582 9.76687 12.4482 9.61687 12.1982C9.47687 11.9482 9.59687 11.8182 9.72687 11.6882C9.83687 11.5782 9.97688 11.3982 10.0969 11.2582C10.2169 11.1182 10.2669 11.0082 10.3469 10.8482C10.4269 10.6782 10.3869 10.5382 10.3269 10.4182C10.2669 10.2982 9.76687 9.07818 9.56687 8.57818C9.36687 8.09818 9.15688 8.15817 9.00688 8.14817H8.52687C8.35687 8.14817 8.09687 8.20817 7.86687 8.45817C7.64687 8.70817 7.00688 9.30818 7.00688 10.5282C7.00688 11.7482 7.89688 12.9282 8.01688 13.0882C8.13688 13.2582 9.76687 15.7582 12.2469 16.8282C12.8369 17.0882 13.2969 17.2382 13.6569 17.3482C14.2469 17.5382 14.7869 17.5082 15.2169 17.4482C15.6969 17.3782 16.6869 16.8482 16.8869 16.2682C17.0969 15.6882 17.0969 15.1982 17.0269 15.0882C16.9569 14.9782 16.8069 14.9282 16.5569 14.8082Z" fill="black"/>
</g>
</svg>
