<svg width="25" height="25" viewBox="0 0 25 25" fill="none" xmlns="http://www.w3.org/2000/svg">
<path d="M4.91094 19.7115C5.00345 19.8042 5.11334 19.8777 5.23431 19.9279C5.35529 19.9781 5.48497 20.0039 5.61594 20.0039C5.74691 20.0039 5.87659 19.9781 5.99756 19.9279C6.11854 19.8777 6.22842 19.8042 6.32094 19.7115L17.2109 8.83146V14.4215C17.2109 14.9715 17.6609 15.4215 18.2109 15.4215C18.7609 15.4215 19.2109 14.9715 19.2109 14.4215V6.42146C19.2109 5.87146 18.7609 5.42146 18.2109 5.42146H10.2109C9.66094 5.42146 9.21094 5.87146 9.21094 6.42146C9.21094 6.97146 9.66094 7.42146 10.2109 7.42146H15.8009L4.91094 18.3115C4.53094 18.6915 4.53094 19.3315 4.91094 19.7115Z" fill="#626161"/>
</svg>
