<svg width="52" height="48" viewBox="0 0 52 48" fill="none" xmlns="http://www.w3.org/2000/svg">
<rect x="0.8125" width="50.7801" height="48" rx="8" fill="white"/>
<path d="M18.6725 18.9611C18.3268 16.6836 19.9326 14.6378 22.3858 13.8883C22.8211 13.7552 23.2908 13.793 23.6992 13.9942C24.1076 14.1954 24.4239 14.5446 24.5837 14.9709L25.3712 17.071C25.498 17.4089 25.5209 17.7769 25.4371 18.1279C25.3532 18.4789 25.1663 18.7968 24.9005 19.0408L22.5578 21.1862C22.4423 21.2922 22.3563 21.4262 22.308 21.5754C22.2598 21.7245 22.251 21.8836 22.2826 22.0371L22.3043 22.1312L22.3604 22.3666C22.6518 23.5102 23.0957 24.6093 23.6803 25.6345C24.317 26.7238 25.1072 27.7159 26.0266 28.5801L26.099 28.6453C26.216 28.7491 26.3578 28.8208 26.5108 28.8535C26.6637 28.8862 26.8225 28.8787 26.9717 28.8317L30.0006 27.8776C30.3448 27.7695 30.7134 27.7668 31.0593 27.8697C31.4051 27.9726 31.7122 28.1765 31.9414 28.4552L33.3752 30.195C33.9727 30.9192 33.9003 31.9837 33.2141 32.6228C31.3367 34.3735 28.755 34.732 26.959 33.2891C24.7575 31.5133 22.9017 29.3475 21.4842 26.9C20.0552 24.4543 19.1025 21.7609 18.6725 18.9611ZM24.1818 22.1566L26.1226 20.3751C26.6545 19.8873 27.0286 19.2515 27.1966 18.5496C27.3647 17.8476 27.3192 17.1114 27.0658 16.4356L26.2801 14.3354C25.9584 13.4777 25.3219 12.7749 24.5001 12.3703C23.6783 11.9656 22.7331 11.8895 21.8571 12.1575C18.8101 13.0898 16.3642 15.8218 16.882 19.2345C17.2441 21.6171 18.0787 24.6478 19.92 27.8125C21.4493 30.4515 23.4512 32.7867 25.8257 34.7012C28.5196 36.8647 32.1152 36.1261 34.4507 33.9499C35.1189 33.3277 35.5245 32.4739 35.5848 31.5628C35.645 30.6517 35.3553 29.7519 34.7747 29.0472L33.3408 27.3055C32.8821 26.7488 32.2676 26.3417 31.576 26.1366C30.8844 25.9314 30.1473 25.9375 29.4592 26.1541L26.9445 26.9452C26.2952 26.2758 25.7265 25.5327 25.2499 24.7311C24.7896 23.9206 24.4308 23.0566 24.1818 22.1584V22.1566Z" fill="black"/>
</svg>
