<svg width="27" height="26" viewBox="0 0 27 26" fill="none" xmlns="http://www.w3.org/2000/svg">
<path d="M13.5234 0C6.35544 0 0.523438 5.832 0.523438 13C0.523438 20.168 6.35544 26 13.5234 26C20.6914 26 26.5234 20.168 26.5234 13C26.5234 5.832 20.6914 0 13.5234 0ZM13.5234 2C19.6104 2 24.5234 6.913 24.5234 13C24.5234 19.087 19.6104 24 13.5234 24C7.43644 24 2.52344 19.087 2.52344 13C2.52344 6.913 7.43644 2 13.5234 2ZM9.74344 7.78L8.30344 9.22L12.0874 13L8.30544 16.78L9.74544 18.22L13.5234 14.437L17.3034 18.217L18.7434 16.78L14.9604 13L18.7404 9.22L17.3034 7.78L13.5234 11.564L9.74344 7.782V7.78Z" fill="#626161"/>
</svg>
