<svg width="25" height="24" viewBox="0 0 25 24" fill="none" xmlns="http://www.w3.org/2000/svg">
<path d="M17.6914 6.97266L18.7461 8.02734L9.96875 16.8047L5.69141 12.5273L6.74609 11.4727L9.96875 14.6953L17.6914 6.97266ZM12.2188 0C13.3203 0 14.3828 0.140625 15.4062 0.421875C16.4297 0.703125 17.3867 1.10547 18.2773 1.62891C19.168 2.15234 19.9766 2.77734 20.7031 3.50391C21.4297 4.23047 22.0547 5.04297 22.5781 5.94141C23.1016 6.83984 23.5039 7.79688 23.7852 8.8125C24.0664 9.82812 24.2109 10.8906 24.2188 12C24.2188 13.1016 24.0781 14.1641 23.7969 15.1875C23.5156 16.2109 23.1133 17.168 22.5898 18.0586C22.0664 18.9492 21.4414 19.7578 20.7148 20.4844C19.9883 21.2109 19.1758 21.8359 18.2773 22.3594C17.3789 22.8828 16.4219 23.2852 15.4062 23.5664C14.3906 23.8477 13.3281 23.9922 12.2188 24C11.1172 24 10.0547 23.8594 9.03125 23.5781C8.00781 23.2969 7.05078 22.8945 6.16016 22.3711C5.26953 21.8477 4.46094 21.2227 3.73438 20.4961C3.00781 19.7695 2.38281 18.957 1.85938 18.0586C1.33594 17.1602 0.933594 16.207 0.652344 15.1992C0.371094 14.1914 0.226562 13.125 0.21875 12C0.21875 10.8984 0.359375 9.83594 0.640625 8.8125C0.921875 7.78906 1.32422 6.83203 1.84766 5.94141C2.37109 5.05078 2.99609 4.24219 3.72266 3.51562C4.44922 2.78906 5.26172 2.16406 6.16016 1.64062C7.05859 1.11719 8.01172 0.714844 9.01953 0.433594C10.0273 0.152344 11.0938 0.0078125 12.2188 0ZM12.2188 22.5C13.1797 22.5 14.1055 22.375 14.9961 22.125C15.8867 21.875 16.7227 21.5234 17.5039 21.0703C18.2852 20.6172 18.9961 20.0664 19.6367 19.418C20.2773 18.7695 20.8242 18.0625 21.2773 17.2969C21.7305 16.5312 22.0859 15.6953 22.3438 14.7891C22.6016 13.8828 22.7266 12.9531 22.7188 12C22.7188 11.0391 22.5938 10.1133 22.3438 9.22266C22.0938 8.33203 21.7422 7.49609 21.2891 6.71484C20.8359 5.93359 20.2852 5.22266 19.6367 4.58203C18.9883 3.94141 18.2812 3.39453 17.5156 2.94141C16.75 2.48828 15.9141 2.13281 15.0078 1.875C14.1016 1.61719 13.1719 1.49219 12.2188 1.5C11.2578 1.5 10.332 1.625 9.44141 1.875C8.55078 2.125 7.71484 2.47656 6.93359 2.92969C6.15234 3.38281 5.44141 3.93359 4.80078 4.58203C4.16016 5.23047 3.61328 5.9375 3.16016 6.70312C2.70703 7.46875 2.35156 8.30469 2.09375 9.21094C1.83594 10.1172 1.71094 11.0469 1.71875 12C1.71875 12.9609 1.84375 13.8867 2.09375 14.7773C2.34375 15.668 2.69531 16.5039 3.14844 17.2852C3.60156 18.0664 4.15234 18.7773 4.80078 19.418C5.44922 20.0586 6.15625 20.6055 6.92188 21.0586C7.6875 21.5117 8.52344 21.8672 9.42969 22.125C10.3359 22.3828 11.2656 22.5078 12.2188 22.5Z" fill="#626161"/>
</svg>
