<svg width="25" height="25" viewBox="0 0 25 25" fill="none" xmlns="http://www.w3.org/2000/svg">
<g clip-path="url(#clip0_799_37540)">
<path d="M8.78906 23.4219H15.7891C18.7891 23.4219 19.7891 21.4219 19.7891 18.4219V6.42188C19.7891 4.42188 18.7891 4.42188 18.2891 4.42188C17.7891 4.42188 16.7891 4.42188 16.7891 6.42188V13.4219V4.42188C16.7891 3.42188 16.7891 2.42188 15.2891 2.42188C13.7891 2.42188 13.7891 3.42188 13.7891 4.42188V13.4219V3.42188C13.7891 2.42188 13.7891 1.42188 12.2891 1.42188C10.7891 1.42188 10.7891 2.42188 10.7891 3.42188V13.4219V4.42188C10.7891 3.42188 10.8191 2.42188 9.28906 2.42188C7.78906 2.42188 7.78906 3.42188 7.78906 4.42188V18.4219V14.4219C7.78906 13.4219 7.23906 12.4219 5.78906 12.4219H4.78906V18.4219C4.78906 22.3839 6.78906 23.4459 8.78906 23.4219Z" stroke="#626161" stroke-width="2"/>
</g>
<defs>
<clipPath id="clip0_799_37540">
<rect width="24" height="24" fill="white" transform="translate(0.789062 0.421875)"/>
</clipPath>
</defs>
</svg>
