<svg width="25" height="24" viewBox="0 0 25 24" fill="none" xmlns="http://www.w3.org/2000/svg">
<path d="M19.9406 4.71041C19.8481 4.61771 19.7382 4.54416 19.6172 4.49398C19.4963 4.4438 19.3666 4.41797 19.2356 4.41797C19.1047 4.41797 18.975 4.4438 18.854 4.49398C18.733 4.54416 18.6231 4.61771 18.5306 4.71041L7.64062 15.5904V10.0004C7.64062 9.45041 7.19062 9.00041 6.64062 9.00041C6.09062 9.00041 5.64062 9.45041 5.64062 10.0004V18.0004C5.64062 18.5504 6.09062 19.0004 6.64062 19.0004H14.6406C15.1906 19.0004 15.6406 18.5504 15.6406 18.0004C15.6406 17.4504 15.1906 17.0004 14.6406 17.0004H9.05062L19.9406 6.11041C20.3206 5.73041 20.3206 5.09041 19.9406 4.71041Z" fill="#626161"/>
</svg>
