<svg width="57" height="48" viewBox="0 0 57 48" fill="none" xmlns="http://www.w3.org/2000/svg">
<rect x="0.59375" width="56" height="48" rx="8" fill="white"/>
<path d="M35.6406 16.9101C34.7238 15.984 33.6318 15.2497 32.4283 14.7501C31.2247 14.2505 29.9337 13.9955 28.6306 14.0001C23.1706 14.0001 18.7206 18.4501 18.7206 23.9101C18.7206 25.6601 19.1806 27.3601 20.0406 28.8601L18.6406 34.0001L23.8906 32.6201C25.3406 33.4101 26.9706 33.8301 28.6306 33.8301C34.0906 33.8301 38.5406 29.3801 38.5406 23.9201C38.5406 21.2701 37.5106 18.7801 35.6406 16.9101ZM28.6306 32.1501C27.1506 32.1501 25.7006 31.7501 24.4306 31.0001L24.1306 30.8201L21.0106 31.6401L21.8406 28.6001L21.6406 28.2901C20.8184 26.977 20.3818 25.4593 20.3806 23.9101C20.3806 19.3701 24.0806 15.6701 28.6206 15.6701C30.8206 15.6701 32.8906 16.5301 34.4406 18.0901C35.2081 18.854 35.8163 19.7627 36.23 20.7635C36.6437 21.7642 36.8547 22.8372 36.8506 23.9201C36.8706 28.4601 33.1706 32.1501 28.6306 32.1501ZM33.1506 25.9901C32.9006 25.8701 31.6806 25.2701 31.4606 25.1801C31.2306 25.1001 31.0706 25.0601 30.9006 25.3001C30.7306 25.5501 30.2606 26.1101 30.1206 26.2701C29.9806 26.4401 29.8306 26.4601 29.5806 26.3301C29.3306 26.2101 28.5306 25.9401 27.5906 25.1001C26.8506 24.4401 26.3606 23.6301 26.2106 23.3801C26.0706 23.1301 26.1906 23.0001 26.3206 22.8701C26.4306 22.7601 26.5706 22.5801 26.6906 22.4401C26.8106 22.3001 26.8606 22.1901 26.9406 22.0301C27.0206 21.8601 26.9806 21.7201 26.9206 21.6001C26.8606 21.4801 26.3606 20.2601 26.1606 19.7601C25.9606 19.2801 25.7506 19.3401 25.6006 19.3301H25.1206C24.9506 19.3301 24.6906 19.3901 24.4606 19.6401C24.2406 19.8901 23.6006 20.4901 23.6006 21.7101C23.6006 22.9301 24.4906 24.1101 24.6106 24.2701C24.7306 24.4401 26.3606 26.9401 28.8406 28.0101C29.4306 28.2701 29.8906 28.4201 30.2506 28.5301C30.8406 28.7201 31.3806 28.6901 31.8106 28.6301C32.2906 28.5601 33.2806 28.0301 33.4806 27.4501C33.6906 26.8701 33.6906 26.3801 33.6206 26.2701C33.5506 26.1601 33.4006 26.1101 33.1506 25.9901Z" fill="black"/>
</svg>
