<svg width="163" height="37" viewBox="0 0 163 37" fill="none" xmlns="http://www.w3.org/2000/svg">
<path d="M5.37222 33.9135L14.9357 30.6205C15.6159 30.3863 16.3548 30.3863 17.0349 30.6205L31.8544 35.7233C33.9477 36.444 36.1279 34.8889 36.1279 32.675V19.6733C36.1279 18.8044 35.7772 17.9723 35.1553 17.3656L19.8916 2.47448L21.4206 0.944784C22.6797 -0.314927 24.7218 -0.314928 25.9809 0.944782L41.1853 16.1561C41.7896 16.7606 42.1291 17.5804 42.1291 18.4352V33.1146C42.1291 34.8951 40.6857 36.3385 38.9051 36.3385H8.49639C6.99164 36.3385 5.72766 35.3076 5.37222 33.9135Z" fill="white"/>
<path d="M0.12793 20.068V28.9127C0.12793 29.6076 0.819198 30.0907 1.47173 29.8517L15.4058 24.7501C15.6305 24.6679 15.8773 24.6689 16.1013 24.7531L29.633 29.836C30.2868 30.0816 30.9846 29.5983 30.9846 28.8999V20.068C30.9846 19.7926 30.8711 19.5294 30.6708 19.3405L16.2424 5.73207C15.8572 5.36871 15.2554 5.36871 14.8701 5.73207L0.441795 19.3405C0.241476 19.5294 0.12793 19.7926 0.12793 20.068Z" fill="#DA0025"/>
<path d="M0.979492 2.3743C0.979492 1.26973 1.87492 0.374303 2.97949 0.374303H4.9794C6.08397 0.374303 6.9794 1.26973 6.9794 2.3743V5.89334C6.9794 6.32496 6.80404 6.73804 6.49354 7.03784L0.979492 12.3618V2.3743Z" fill="white"/>
<path d="M50.1289 12.5484H56.1169L57.3145 19.734V30.9979H51.2941V18.8277L50.1289 12.5484ZM64.2088 12.0305C65.9783 12.0305 67.478 12.3865 68.7079 13.0986C69.9595 13.7891 70.9089 14.7817 71.5563 16.0765C72.2252 17.3712 72.5597 18.914 72.5597 20.705V30.9979H66.5393V21.6113C66.5393 20.0793 66.1617 18.9248 65.4064 18.148C64.6512 17.3496 63.5723 16.9504 62.1697 16.9504C61.1771 16.9504 60.3139 17.1662 59.5803 17.5977C58.8682 18.0077 58.3071 18.6011 57.8971 19.378C57.5087 20.1332 57.3145 21.0395 57.3145 22.0968L55.4048 21.0934C55.6422 19.1298 56.1709 17.4791 56.9908 16.1412C57.8324 14.8033 58.8682 13.7891 60.0981 13.0986C61.3497 12.3865 62.7199 12.0305 64.2088 12.0305Z" fill="white"/>
<path d="M84.0606 31.4835C82.3343 31.4835 80.867 31.1382 79.6586 30.4477C78.4502 29.7356 77.5223 28.7322 76.8749 27.4375C76.2492 26.1428 75.9363 24.6107 75.9363 22.8413V12.5484H81.9567V21.9674C81.9567 23.4563 82.3127 24.5999 83.0248 25.3983C83.7369 26.1967 84.7619 26.5959 86.0997 26.5959C87.0923 26.5959 87.9339 26.3909 88.6244 25.981C89.3149 25.571 89.8436 24.9776 90.2104 24.2007C90.5988 23.4239 90.793 22.5068 90.793 21.4495L92.6704 22.4529C92.4546 24.3949 91.9367 26.0457 91.1167 27.4051C90.3183 28.743 89.3041 29.7572 88.0742 30.4477C86.8658 31.1382 85.5279 31.4835 84.0606 31.4835ZM91.9583 30.9979L90.793 23.8123V12.5484H96.8134V24.7186L97.9787 30.9979H91.9583Z" fill="white"/>
<path d="M99.1333 17.0151V14.3933L102.953 13.0015L105.542 7.6285H108.973V12.5484H116.935V17.0151H108.973V23.1002C108.973 24.4813 109.254 25.4523 109.815 26.0133C110.376 26.5528 111.379 26.8225 112.825 26.8225C113.753 26.8225 114.562 26.747 115.252 26.5959C115.964 26.4233 116.633 26.1967 117.259 25.9162V30.4801C116.612 30.739 115.759 30.9764 114.702 31.1921C113.666 31.4079 112.587 31.5158 111.465 31.5158C109.502 31.5158 107.883 31.2029 106.61 30.5772C105.359 29.9514 104.431 29.0775 103.827 27.9554C103.244 26.8117 102.953 25.4739 102.953 23.9418V17.0151H99.1333Z" fill="white"/>
<path d="M120.037 6.07485H126.025V30.9979H120.037V6.07485Z" fill="white"/>
<path d="M129.899 12.2894L132.877 12.9044L135.887 12.2894V30.9979H129.899V12.2894ZM132.909 10.6063C131.852 10.6063 130.989 10.3366 130.32 9.79713C129.651 9.23609 129.316 8.50242 129.316 7.59613C129.316 6.66826 129.651 5.93459 130.32 5.39513C130.989 4.85567 131.852 4.58594 132.909 4.58594C133.988 4.58594 134.851 4.85567 135.499 5.39513C136.146 5.93459 136.47 6.66826 136.47 7.59613C136.47 8.50242 136.146 9.23609 135.499 9.79713C134.851 10.3366 133.988 10.6063 132.909 10.6063Z" fill="white"/>
<path d="M139.761 12.5484H145.749V18.1156L145.522 18.8924V23.6828L145.749 25.107V36.3386H139.761V12.5484ZM143.775 21.7732C144.098 19.7879 144.713 18.0725 145.62 16.6267C146.526 15.1809 147.669 14.0589 149.05 13.2605C150.453 12.4405 152.007 12.0305 153.711 12.0305C155.524 12.0305 157.11 12.4405 158.469 13.2605C159.851 14.0804 160.929 15.2241 161.706 16.6914C162.483 18.1372 162.871 19.8311 162.871 21.7732C162.871 23.7152 162.483 25.4199 161.706 26.8872C160.929 28.333 159.851 29.4659 158.469 30.2859C157.11 31.1058 155.524 31.5158 153.711 31.5158C151.985 31.5158 150.432 31.1166 149.05 30.3182C147.691 29.4982 146.558 28.3654 145.652 26.9196C144.746 25.4523 144.12 23.7368 143.775 21.7732ZM156.786 21.7732C156.786 20.7806 156.581 19.9066 156.171 19.1514C155.761 18.3746 155.19 17.7704 154.456 17.3388C153.744 16.8856 152.924 16.6591 151.996 16.6591C151.047 16.6591 150.14 16.8856 149.277 17.3388C148.414 17.7704 147.659 18.3746 147.011 19.1514C146.386 19.9066 145.9 20.7806 145.555 21.7732C145.9 22.7658 146.386 23.6505 147.011 24.4273C147.659 25.1826 148.414 25.7867 149.277 26.2399C150.14 26.6715 151.047 26.8872 151.996 26.8872C152.924 26.8872 153.744 26.6715 154.456 26.2399C155.19 25.7867 155.761 25.1826 156.171 24.4273C156.581 23.6505 156.786 22.7658 156.786 21.7732Z" fill="white"/>
<path d="M50.1289 12.5484H56.1169L57.3145 19.734V30.9979H51.2941V18.8277L50.1289 12.5484ZM64.2088 12.0305C65.9783 12.0305 67.478 12.3865 68.7079 13.0986C69.9595 13.7891 70.9089 14.7817 71.5563 16.0765C72.2252 17.3712 72.5597 18.914 72.5597 20.705V30.9979H66.5393V21.6113C66.5393 20.0793 66.1617 18.9248 65.4064 18.148C64.6512 17.3496 63.5723 16.9504 62.1697 16.9504C61.1771 16.9504 60.3139 17.1662 59.5803 17.5977C58.8682 18.0077 58.3071 18.6011 57.8971 19.378C57.5087 20.1332 57.3145 21.0395 57.3145 22.0968L55.4048 21.0934C55.6422 19.1298 56.1709 17.4791 56.9908 16.1412C57.8324 14.8033 58.8682 13.7891 60.0981 13.0986C61.3497 12.3865 62.7199 12.0305 64.2088 12.0305Z" fill="white"/>
<path d="M84.0606 31.4835C82.3343 31.4835 80.867 31.1382 79.6586 30.4477C78.4502 29.7356 77.5223 28.7322 76.8749 27.4375C76.2492 26.1428 75.9363 24.6107 75.9363 22.8413V12.5484H81.9567V21.9674C81.9567 23.4563 82.3127 24.5999 83.0248 25.3983C83.7369 26.1967 84.7619 26.5959 86.0997 26.5959C87.0923 26.5959 87.9339 26.3909 88.6244 25.981C89.3149 25.571 89.8436 24.9776 90.2104 24.2007C90.5988 23.4239 90.793 22.5068 90.793 21.4495L92.6704 22.4529C92.4546 24.3949 91.9367 26.0457 91.1167 27.4051C90.3183 28.743 89.3041 29.7572 88.0742 30.4477C86.8658 31.1382 85.5279 31.4835 84.0606 31.4835ZM91.9583 30.9979L90.793 23.8123V12.5484H96.8134V24.7186L97.9787 30.9979H91.9583Z" fill="white"/>
<path d="M99.1333 17.0151V14.3933L102.953 13.0015L105.542 7.6285H108.973V12.5484H116.935V17.0151H108.973V23.1002C108.973 24.4813 109.254 25.4523 109.815 26.0133C110.376 26.5528 111.379 26.8225 112.825 26.8225C113.753 26.8225 114.562 26.747 115.252 26.5959C115.964 26.4233 116.633 26.1967 117.259 25.9162V30.4801C116.612 30.739 115.759 30.9764 114.702 31.1921C113.666 31.4079 112.587 31.5158 111.465 31.5158C109.502 31.5158 107.883 31.2029 106.61 30.5772C105.359 29.9514 104.431 29.0775 103.827 27.9554C103.244 26.8117 102.953 25.4739 102.953 23.9418V17.0151H99.1333Z" fill="white"/>
<path d="M120.037 6.07485H126.025V30.9979H120.037V6.07485Z" fill="white"/>
<path d="M132.909 10.6063C131.852 10.6063 130.989 10.3366 130.32 9.79713C129.651 9.23609 129.316 8.50242 129.316 7.59613C129.316 6.66826 129.651 5.93459 130.32 5.39513C130.989 4.85567 131.852 4.58594 132.909 4.58594C133.988 4.58594 134.851 4.85567 135.499 5.39513C136.146 5.93459 136.47 6.66826 136.47 7.59613C136.47 8.50242 136.146 9.23609 135.499 9.79713C134.851 10.3366 133.988 10.6063 132.909 10.6063Z" fill="#DA0025"/>
<path d="M139.761 12.5484H145.749V18.1156L145.522 18.8924V23.6828L145.749 25.107V36.3386H139.761V12.5484ZM143.775 21.7732C144.098 19.7879 144.713 18.0725 145.62 16.6267C146.526 15.1809 147.669 14.0589 149.05 13.2605C150.453 12.4405 152.007 12.0305 153.711 12.0305C155.524 12.0305 157.11 12.4405 158.469 13.2605C159.851 14.0804 160.929 15.2241 161.706 16.6914C162.483 18.1372 162.871 19.8311 162.871 21.7732C162.871 23.7152 162.483 25.4199 161.706 26.8872C160.929 28.333 159.851 29.4659 158.469 30.2859C157.11 31.1058 155.524 31.5158 153.711 31.5158C151.985 31.5158 150.432 31.1166 149.05 30.3182C147.691 29.4982 146.558 28.3654 145.652 26.9196C144.746 25.4523 144.12 23.7368 143.775 21.7732ZM156.786 21.7732C156.786 20.7806 156.581 19.9066 156.171 19.1514C155.761 18.3746 155.19 17.7704 154.456 17.3388C153.744 16.8856 152.924 16.6591 151.996 16.6591C151.047 16.6591 150.14 16.8856 149.277 17.3388C148.414 17.7704 147.659 18.3746 147.011 19.1514C146.386 19.9066 145.9 20.7806 145.555 21.7732C145.9 22.7658 146.386 23.6505 147.011 24.4273C147.659 25.1826 148.414 25.7867 149.277 26.2399C150.14 26.6715 151.047 26.8872 151.996 26.8872C152.924 26.8872 153.744 26.6715 154.456 26.2399C155.19 25.7867 155.761 25.1826 156.171 24.4273C156.581 23.6505 156.786 22.7658 156.786 21.7732Z" fill="white"/>
</svg>
