<svg width="198" height="197" viewBox="0 0 198 197" fill="none" xmlns="http://www.w3.org/2000/svg">
<path d="M136.533 67.062L85.212 118.383L61.49 94.6425L61.4896 94.642C59.3672 92.5197 55.9156 92.5197 53.7932 94.642C51.6708 96.7644 51.6708 100.216 53.7932 102.338L81.3732 129.918C82.4264 130.972 83.8142 131.52 85.2116 131.52C86.6066 131.52 87.9872 130.974 89.0361 129.952L89.043 129.945L89.0499 129.938L144.21 74.7782C146.331 72.6569 146.332 69.2079 144.213 67.0852C142.09 64.9386 138.656 64.9396 136.533 67.062ZM99.0016 8.3501C49.2974 8.3501 8.85156 48.796 8.85156 98.5001C8.85156 148.204 49.2974 188.65 99.0016 188.65C148.706 188.65 189.152 148.204 189.152 98.5001C189.152 48.796 148.706 8.3501 99.0016 8.3501ZM99.0016 177.77C55.2883 177.77 19.7316 142.213 19.7316 98.5001C19.7316 54.7868 55.2883 19.2301 99.0016 19.2301C142.715 19.2301 178.272 54.7868 178.272 98.5001C178.272 142.213 142.715 177.77 99.0016 177.77Z" fill="#001F6D" stroke="#001F6D" stroke-width="3"/>
</svg>
