<svg width="22" height="22" viewBox="0 0 22 22" fill="none" xmlns="http://www.w3.org/2000/svg">
<path d="M8.142 20.6117C6.48803 20.1179 4.99009 19.2042 3.794 17.9597C4.17884 17.5033 4.41874 16.9424 4.483 16.3488C4.54726 15.7553 4.43296 15.156 4.15472 14.6278C3.87649 14.0996 3.44698 13.6664 2.92115 13.3837C2.39531 13.1009 1.79708 12.9815 1.203 13.0407C1.06766 12.3777 0.999648 11.7028 1 11.0262C1 9.9812 1.16 8.9732 1.458 8.0262H1.5C2.00988 8.02636 2.51139 7.89657 2.95717 7.64907C3.40295 7.40157 3.7783 7.04454 4.04777 6.61169C4.31724 6.17884 4.47194 5.68445 4.49726 5.1752C4.52259 4.66595 4.4177 4.15865 4.1925 3.7012C5.3648 2.60961 6.78253 1.81611 8.326 1.3877C8.57719 1.8809 8.95992 2.29499 9.43186 2.58417C9.90379 2.87335 10.4465 3.02633 11 3.0262C11.5535 3.02633 12.0962 2.87335 12.5681 2.58417C13.0401 2.29499 13.4228 1.8809 13.674 1.3877C15.2175 1.81611 16.6352 2.60961 17.8075 3.7012C17.5807 4.16185 17.4759 4.67302 17.5031 5.18577C17.5304 5.69853 17.6888 6.1957 17.9632 6.62971C18.2376 7.06372 18.6188 7.42003 19.0703 7.66454C19.5219 7.90905 20.0286 8.03358 20.542 8.0262C20.8465 8.99705 21.0009 10.0087 21 11.0262C21 11.7162 20.93 12.3902 20.797 13.0412C20.2029 12.982 19.6047 13.1014 19.0789 13.3842C18.553 13.6669 18.1235 14.1001 17.8453 14.6283C17.567 15.1565 17.4527 15.7558 17.517 16.3493C17.5813 16.9429 17.8212 17.5038 18.206 17.9602C17.0099 19.2045 15.5119 20.118 13.858 20.6117C13.6638 20.0063 13.2824 19.4783 12.7687 19.1037C12.2551 18.729 11.6357 18.5272 11 18.5272C10.3643 18.5272 9.74493 18.729 9.23129 19.1037C8.71765 19.4783 8.33623 20.0063 8.142 20.6117Z" stroke="black" stroke-width="2" stroke-linejoin="round"/>
<path d="M11 14.5264C11.4596 14.5264 11.9148 14.4358 12.3394 14.2599C12.764 14.0841 13.1499 13.8262 13.4749 13.5012C13.7999 13.1762 14.0577 12.7904 14.2336 12.3658C14.4095 11.9411 14.5 11.486 14.5 11.0264C14.5 10.5667 14.4095 10.1116 14.2336 9.68698C14.0577 9.26234 13.7999 8.8765 13.4749 8.55149C13.1499 8.22649 12.764 7.96868 12.3394 7.79279C11.9148 7.6169 11.4596 7.52637 11 7.52637C10.0717 7.52637 9.1815 7.89512 8.52513 8.55149C7.86875 9.20787 7.5 10.0981 7.5 11.0264C7.5 11.9546 7.86875 12.8449 8.52513 13.5012C9.1815 14.1576 10.0717 14.5264 11 14.5264Z" stroke="black" stroke-width="2" stroke-linejoin="round"/>
</svg>
