<svg width="52" height="52" viewBox="0 0 52 52" fill="none" xmlns="http://www.w3.org/2000/svg">
<mask id="path-1-inside-1_1697_32512" fill="white">
<path d="M46.678 14.2111C46.6998 14.1903 46.7172 14.1653 46.7291 14.1376C46.7409 14.11 46.7471 14.0801 46.7471 14.05C46.7471 14.0199 46.7409 13.9901 46.7291 13.9624C46.7172 13.9347 46.6998 13.9097 46.678 13.8889L44.9289 12.1399C44.9082 12.118 44.8832 12.1007 44.8555 12.0888C44.8278 12.0769 44.798 12.0708 44.7678 12.0708C44.7377 12.0708 44.7079 12.0769 44.6802 12.0888C44.6525 12.1007 44.6275 12.118 44.6067 12.1399L42.3514 14.3952C43.0449 15.0905 43.6944 15.8284 44.2961 16.6046L46.678 14.2111ZM24.6191 7.64063C25.0794 7.61761 25.5512 7.60611 26 7.60611C26.4488 7.60611 26.9205 7.61761 27.3808 7.64063V4.83293H24.6191V7.64063ZM21.3282 2.99181H30.6718C30.742 2.98312 30.8073 2.95123 30.8574 2.9012C30.9074 2.85117 30.9393 2.78586 30.948 2.71564V0.241646C30.9378 0.175266 30.9046 0.114607 30.854 0.0703886C30.8035 0.02617 30.7389 0.00123855 30.6718 0H21.3282C21.261 0.00123855 21.1965 0.02617 21.1459 0.0703886C21.0954 0.114607 21.0621 0.175266 21.052 0.241646V2.71564C21.0607 2.78586 21.0926 2.85117 21.1426 2.9012C21.1926 2.95123 21.2579 2.98312 21.3282 2.99181ZM40.1535 29.9181H42.6621C42.2593 21.3569 35.3667 14.4643 26.8055 14.0615V16.455C26.8055 16.6991 26.7085 16.9333 26.5358 17.1059C26.3632 17.2785 26.1291 17.3755 25.8849 17.3755C25.6408 17.3755 25.4066 17.2785 25.234 17.1059C25.0613 16.9333 24.9644 16.6991 24.9644 16.455V14.073C16.5182 14.5908 9.74063 21.4375 9.33789 29.9181H11.6163C11.8604 29.9181 12.0946 30.0151 12.2672 30.1877C12.4398 30.3604 12.5368 30.5945 12.5368 30.8387C12.5368 31.0828 12.4398 31.317 12.2672 31.4896C12.0946 31.6622 11.8604 31.7592 11.6163 31.7592H9.3494C9.86721 40.1363 16.5873 46.8564 24.9644 47.3627V44.9923C24.9644 44.7481 25.0613 44.514 25.234 44.3413C25.4066 44.1687 25.6408 44.0717 25.8849 44.0717C26.1291 44.0717 26.3632 44.1687 26.5358 44.3413C26.7085 44.514 26.8055 44.7481 26.8055 44.9923V47.3857C35.2861 46.983 42.1212 40.2169 42.6506 31.7592H40.1535C39.9094 31.7592 39.6753 31.6622 39.5026 31.4896C39.33 31.317 39.233 31.0828 39.233 30.8387C39.233 30.5945 39.33 30.3604 39.5026 30.1877C39.6753 30.0151 39.9094 29.9181 40.1535 29.9181ZM32.6165 39.676L31.6614 39.9637C31.0568 40.1462 30.4288 40.2392 29.7973 40.2399C28.7921 40.2413 27.8014 40.0005 26.909 39.5379C26.1133 39.1236 25.2097 38.963 24.32 39.0777L21.6158 39.3999C21.4372 39.4199 21.2567 39.3883 21.0955 39.3087C20.9344 39.2292 20.7995 39.105 20.7068 38.9511C20.6168 38.795 20.5743 38.6161 20.5845 38.4362C20.5947 38.2563 20.6572 38.0834 20.7643 37.9385L21.4892 36.9489C22.1104 36.1059 22.4813 35.1048 22.5594 34.0606V34.0146C22.6094 33.3753 22.6247 32.7339 22.6054 32.0929H19.2109C18.9667 32.0929 18.7326 31.996 18.5599 31.8233C18.3873 31.6507 18.2903 31.4165 18.2903 31.1724C18.2903 30.9282 18.3873 30.6941 18.5599 30.5214C18.7326 30.3488 18.9667 30.2518 19.2109 30.2518H22.4443C22.3638 29.711 22.2602 29.1817 22.1336 28.6408C21.8983 27.7424 21.7709 26.8192 21.7539 25.8907C21.7537 25.2214 21.8785 24.5579 22.1221 23.9345C22.3683 23.3181 22.7318 22.7554 23.1923 22.2775C23.6684 21.7868 24.2402 21.3991 24.8723 21.1383C25.5372 20.8681 26.2488 20.7313 26.9666 20.7356C29.6362 20.7356 31.4658 22.1509 31.9836 24.6019C32.01 24.7211 32.0125 24.8443 31.9909 24.9644C31.9694 25.0846 31.9242 25.1993 31.8581 25.3018C31.7919 25.4044 31.7061 25.4928 31.6055 25.562C31.505 25.6312 31.3917 25.6798 31.2722 25.7049C31.1528 25.73 31.0295 25.7311 30.9096 25.7083C30.7897 25.6855 30.6755 25.6391 30.5737 25.5718C30.4718 25.5045 30.3843 25.4178 30.3162 25.3164C30.2482 25.2151 30.2008 25.1013 30.177 24.9816C29.8433 23.3822 28.7617 22.5767 26.9551 22.5767C26.4818 22.5722 26.0123 22.6622 25.5742 22.8413C25.1719 23.0077 24.8078 23.2543 24.5041 23.5663C24.2077 23.869 23.9766 24.2293 23.8252 24.6249C23.6634 25.0312 23.5813 25.4649 23.5835 25.9022C23.5991 26.6832 23.7073 27.4596 23.9057 28.2151C24.0668 28.894 24.1934 29.5844 24.2854 30.2633H27.8411C28.0852 30.2633 28.3194 30.3603 28.492 30.533C28.6647 30.7056 28.7617 30.9397 28.7617 31.1839C28.7617 31.428 28.6647 31.6622 28.492 31.8348C28.3194 32.0075 28.0852 32.1044 27.8411 32.1044H24.458C24.4811 32.7949 24.458 33.4853 24.412 34.1757V34.2217C24.3249 35.32 23.9948 36.3851 23.4454 37.3401L24.1128 37.2596C25.3669 37.1112 26.6367 37.3395 27.7605 37.9155C28.8014 38.4544 30.0126 38.5619 31.1321 38.2146L32.0872 37.927C32.2025 37.8905 32.3239 37.8773 32.4443 37.8882C32.5648 37.899 32.6819 37.9336 32.7889 37.99C32.8958 38.0465 32.9906 38.1236 33.0675 38.2169C33.1445 38.3102 33.2021 38.4178 33.2371 38.5336C33.2722 38.6493 33.2839 38.7709 33.2716 38.8912C33.2593 39.0115 33.2232 39.1282 33.1655 39.2345C33.1077 39.3407 33.0295 39.4345 32.9353 39.5103C32.841 39.5861 32.7327 39.6424 32.6165 39.676Z"/>
</mask>
<path d="M46.678 14.2111C46.6998 14.1903 46.7172 14.1653 46.7291 14.1376C46.7409 14.11 46.7471 14.0801 46.7471 14.05C46.7471 14.0199 46.7409 13.9901 46.7291 13.9624C46.7172 13.9347 46.6998 13.9097 46.678 13.8889L44.9289 12.1399C44.9082 12.118 44.8832 12.1007 44.8555 12.0888C44.8278 12.0769 44.798 12.0708 44.7678 12.0708C44.7377 12.0708 44.7079 12.0769 44.6802 12.0888C44.6525 12.1007 44.6275 12.118 44.6067 12.1399L42.3514 14.3952C43.0449 15.0905 43.6944 15.8284 44.2961 16.6046L46.678 14.2111ZM24.6191 7.64063C25.0794 7.61761 25.5512 7.60611 26 7.60611C26.4488 7.60611 26.9205 7.61761 27.3808 7.64063V4.83293H24.6191V7.64063ZM21.3282 2.99181H30.6718C30.742 2.98312 30.8073 2.95123 30.8574 2.9012C30.9074 2.85117 30.9393 2.78586 30.948 2.71564V0.241646C30.9378 0.175266 30.9046 0.114607 30.854 0.0703886C30.8035 0.02617 30.7389 0.00123855 30.6718 0H21.3282C21.261 0.00123855 21.1965 0.02617 21.1459 0.0703886C21.0954 0.114607 21.0621 0.175266 21.052 0.241646V2.71564C21.0607 2.78586 21.0926 2.85117 21.1426 2.9012C21.1926 2.95123 21.2579 2.98312 21.3282 2.99181ZM40.1535 29.9181H42.6621C42.2593 21.3569 35.3667 14.4643 26.8055 14.0615V16.455C26.8055 16.6991 26.7085 16.9333 26.5358 17.1059C26.3632 17.2785 26.1291 17.3755 25.8849 17.3755C25.6408 17.3755 25.4066 17.2785 25.234 17.1059C25.0613 16.9333 24.9644 16.6991 24.9644 16.455V14.073C16.5182 14.5908 9.74063 21.4375 9.33789 29.9181H11.6163C11.8604 29.9181 12.0946 30.0151 12.2672 30.1877C12.4398 30.3604 12.5368 30.5945 12.5368 30.8387C12.5368 31.0828 12.4398 31.317 12.2672 31.4896C12.0946 31.6622 11.8604 31.7592 11.6163 31.7592H9.3494C9.86721 40.1363 16.5873 46.8564 24.9644 47.3627V44.9923C24.9644 44.7481 25.0613 44.514 25.234 44.3413C25.4066 44.1687 25.6408 44.0717 25.8849 44.0717C26.1291 44.0717 26.3632 44.1687 26.5358 44.3413C26.7085 44.514 26.8055 44.7481 26.8055 44.9923V47.3857C35.2861 46.983 42.1212 40.2169 42.6506 31.7592H40.1535C39.9094 31.7592 39.6753 31.6622 39.5026 31.4896C39.33 31.317 39.233 31.0828 39.233 30.8387C39.233 30.5945 39.33 30.3604 39.5026 30.1877C39.6753 30.0151 39.9094 29.9181 40.1535 29.9181ZM32.6165 39.676L31.6614 39.9637C31.0568 40.1462 30.4288 40.2392 29.7973 40.2399C28.7921 40.2413 27.8014 40.0005 26.909 39.5379C26.1133 39.1236 25.2097 38.963 24.32 39.0777L21.6158 39.3999C21.4372 39.4199 21.2567 39.3883 21.0955 39.3087C20.9344 39.2292 20.7995 39.105 20.7068 38.9511C20.6168 38.795 20.5743 38.6161 20.5845 38.4362C20.5947 38.2563 20.6572 38.0834 20.7643 37.9385L21.4892 36.9489C22.1104 36.1059 22.4813 35.1048 22.5594 34.0606V34.0146C22.6094 33.3753 22.6247 32.7339 22.6054 32.0929H19.2109C18.9667 32.0929 18.7326 31.996 18.5599 31.8233C18.3873 31.6507 18.2903 31.4165 18.2903 31.1724C18.2903 30.9282 18.3873 30.6941 18.5599 30.5214C18.7326 30.3488 18.9667 30.2518 19.2109 30.2518H22.4443C22.3638 29.711 22.2602 29.1817 22.1336 28.6408C21.8983 27.7424 21.7709 26.8192 21.7539 25.8907C21.7537 25.2214 21.8785 24.5579 22.1221 23.9345C22.3683 23.3181 22.7318 22.7554 23.1923 22.2775C23.6684 21.7868 24.2402 21.3991 24.8723 21.1383C25.5372 20.8681 26.2488 20.7313 26.9666 20.7356C29.6362 20.7356 31.4658 22.1509 31.9836 24.6019C32.01 24.7211 32.0125 24.8443 31.9909 24.9644C31.9694 25.0846 31.9242 25.1993 31.8581 25.3018C31.7919 25.4044 31.7061 25.4928 31.6055 25.562C31.505 25.6312 31.3917 25.6798 31.2722 25.7049C31.1528 25.73 31.0295 25.7311 30.9096 25.7083C30.7897 25.6855 30.6755 25.6391 30.5737 25.5718C30.4718 25.5045 30.3843 25.4178 30.3162 25.3164C30.2482 25.2151 30.2008 25.1013 30.177 24.9816C29.8433 23.3822 28.7617 22.5767 26.9551 22.5767C26.4818 22.5722 26.0123 22.6622 25.5742 22.8413C25.1719 23.0077 24.8078 23.2543 24.5041 23.5663C24.2077 23.869 23.9766 24.2293 23.8252 24.6249C23.6634 25.0312 23.5813 25.4649 23.5835 25.9022C23.5991 26.6832 23.7073 27.4596 23.9057 28.2151C24.0668 28.894 24.1934 29.5844 24.2854 30.2633H27.8411C28.0852 30.2633 28.3194 30.3603 28.492 30.533C28.6647 30.7056 28.7617 30.9397 28.7617 31.1839C28.7617 31.428 28.6647 31.6622 28.492 31.8348C28.3194 32.0075 28.0852 32.1044 27.8411 32.1044H24.458C24.4811 32.7949 24.458 33.4853 24.412 34.1757V34.2217C24.3249 35.32 23.9948 36.3851 23.4454 37.3401L24.1128 37.2596C25.3669 37.1112 26.6367 37.3395 27.7605 37.9155C28.8014 38.4544 30.0126 38.5619 31.1321 38.2146L32.0872 37.927C32.2025 37.8905 32.3239 37.8773 32.4443 37.8882C32.5648 37.899 32.6819 37.9336 32.7889 37.99C32.8958 38.0465 32.9906 38.1236 33.0675 38.2169C33.1445 38.3102 33.2021 38.4178 33.2371 38.5336C33.2722 38.6493 33.2839 38.7709 33.2716 38.8912C33.2593 39.0115 33.2232 39.1282 33.1655 39.2345C33.1077 39.3407 33.0295 39.4345 32.9353 39.5103C32.841 39.5861 32.7327 39.6424 32.6165 39.676Z" stroke="url(#paint0_linear_1697_32512)" stroke-width="4" mask="url(#path-1-inside-1_1697_32512)"/>
<path d="M25.8049 12.1587L25.8054 12.1587L26.0125 12.1587C36.2468 12.1587 44.5887 20.4891 44.5887 30.735C44.5772 40.9578 36.2468 49.2882 26.0125 49.2882C26 49.2882 25.9847 49.2902 25.9632 49.2931L25.9601 49.2935C25.939 49.2963 25.9133 49.2996 25.887 49.2997M25.8049 12.1587L7.37121 30.8385M25.8049 12.1587C15.7826 12.2625 7.63953 20.3552 7.44804 30.3642M25.8049 12.1587L7.49779 30.3782M25.887 49.2997C25.8385 49.3016 25.79 49.2977 25.7424 49.2881C15.826 49.1472 7.76608 41.1936 7.44821 31.3243C7.36454 31.1762 7.32074 31.0087 7.32121 30.8384M25.887 49.2997C25.8873 49.2997 25.8876 49.2996 25.888 49.2996L25.8859 49.2497V49.2997C25.8863 49.2997 25.8866 49.2997 25.887 49.2997ZM7.32121 30.8384L7.37121 30.8385M7.32121 30.8384C7.32121 30.8385 7.32121 30.8386 7.32121 30.8387L7.37121 30.8385M7.32121 30.8384C7.32078 30.6718 7.36459 30.5082 7.44804 30.3642M7.37121 30.8385C7.37075 30.6764 7.41451 30.5173 7.49779 30.3782M7.44804 30.3642C7.44796 30.3686 7.44788 30.3729 7.4478 30.3773L7.49779 30.3782M7.44804 30.3642C7.4503 30.3603 7.45258 30.3564 7.45489 30.3525L7.49779 30.3782M4.77461 30.7234C4.77461 19.0139 14.2915 9.48555 26.001 9.48555C37.7105 9.48555 47.2274 19.0139 47.2274 30.7234C47.2274 42.4214 37.699 51.9498 26.001 51.9498C14.303 51.9498 4.77461 42.4329 4.77461 30.7234Z" fill="url(#paint1_linear_1697_32512)" stroke="url(#paint2_linear_1697_32512)" stroke-width="0.1"/>
<defs>
<linearGradient id="paint0_linear_1697_32512" x1="46.9292" y1="24.1943" x2="5.10862" y2="24.1943" gradientUnits="userSpaceOnUse">
<stop stop-color="#001F6D"/>
<stop offset="0.5" stop-color="#0737B1"/>
<stop offset="1" stop-color="#0035BA"/>
</linearGradient>
<linearGradient id="paint1_linear_1697_32512" x1="47.4845" y1="31.1681" x2="-0.0861687" y2="31.1681" gradientUnits="userSpaceOnUse">
<stop stop-color="#001F6D"/>
<stop offset="0.5" stop-color="#0737B1"/>
<stop offset="1" stop-color="#0035BA"/>
</linearGradient>
<linearGradient id="paint2_linear_1697_32512" x1="47.4845" y1="31.1681" x2="-0.0861687" y2="31.1681" gradientUnits="userSpaceOnUse">
<stop stop-color="#001F6D"/>
<stop offset="0.5" stop-color="#0737B1"/>
<stop offset="1" stop-color="#0035BA"/>
</linearGradient>
</defs>
</svg>
