<svg width="24" height="24" viewBox="0 0 24 24" fill="none" xmlns="http://www.w3.org/2000/svg">
<path d="M4 11.4527V16.8007C4 17.9207 4 18.4807 4.218 18.9097C4.41 19.2857 4.715 19.5917 5.092 19.7827C5.519 20.0007 6.079 20.0007 7.197 20.0007H16.803C17.921 20.0007 18.48 20.0007 18.907 19.7827C19.2835 19.5914 19.5898 19.2858 19.782 18.9097C20 18.4817 20 17.9227 20 16.8047V11.4527C20 10.9187 20 10.6517 19.935 10.4027C19.8775 10.1826 19.7828 9.97393 19.655 9.7857C19.51 9.5727 19.31 9.3957 18.907 9.0447L14.107 4.8447C13.361 4.1917 12.987 3.8647 12.567 3.7407C12.197 3.6307 11.803 3.6307 11.432 3.7407C11.012 3.8647 10.64 4.1907 9.894 4.8427L5.093 9.0447C4.691 9.3967 4.49 9.5727 4.346 9.7847C4.2178 9.97319 4.12276 10.1822 4.065 10.4027C4 10.6507 4 10.9187 4 11.4527Z" stroke="#3B3A3A" stroke-width="2" stroke-linecap="round" stroke-linejoin="round"/>
</svg>
