<svg width="24" height="24" viewBox="0 0 24 24" fill="none" xmlns="http://www.w3.org/2000/svg">
<g clip-path="url(#clip0_799_40550)">
<path d="M22.5 14.9531C22.5078 14.9688 22.5117 15.082 22.5117 15.293C22.5117 15.5039 22.5156 15.7734 22.5234 16.1016C22.5312 16.4297 22.5312 16.8086 22.5234 17.2383C22.5156 17.668 22.5156 18.1016 22.5234 18.5391C22.5312 18.9766 22.5273 19.4219 22.5117 19.875C22.4961 20.3281 22.4961 20.7266 22.5117 21.0703C22.5273 21.4141 22.5234 21.7227 22.5 21.9961C22.4766 22.2695 22.4766 22.4375 22.5 22.5H0V21.082C0 20.7148 -0.00390625 20.3125 -0.0117188 19.875C-0.0195312 19.4375 -0.0195312 18.9961 -0.0117188 18.5508C-0.00390625 18.1055 -0.0078125 17.668 -0.0234375 17.2383C-0.0390625 16.8086 -0.0390625 16.4336 -0.0234375 16.1133C-0.0078125 15.793 -0.0078125 15.5195 -0.0234375 15.293C-0.0390625 15.0664 -0.03125 14.9531 0 14.9531L4.48828 1.5H9V3H5.56641L1.57031 15H6.46875L7.96875 18H14.5312L16.0312 15H20.9297L16.9336 3H13.5V1.5H18.0117L22.5 14.9531ZM21 16.5H16.9688L15.4688 19.5H7.03125L5.53125 16.5H1.5V21H21V16.5ZM10.5 10.9336V0H12V10.9336L15.4453 7.5L16.5 8.55469L11.25 13.8047L6 8.55469L7.05469 7.5L10.5 10.9336Z" fill="#3B3A3A"/>
</g>
<defs>
<clipPath id="clip0_799_40550">
<rect width="24" height="24" fill="white"/>
</clipPath>
</defs>
</svg>
